<?xml version="1.0" encoding="utf-8"?>
<!-- Generator: Adobe Illustrator 22.0.1, SVG Export Plug-In . SVG Version: 6.00 Build 0)  -->
<svg version="1.1" xmlns="http://www.w3.org/2000/svg" xmlns:xlink="http://www.w3.org/1999/xlink" x="0px" y="0px"
	 viewBox="0 0 203.2 731" style="enable-background:new 0 0 203.2 731;" xml:space="preserve">
<style type="text/css">
	.Arched_x0020_Green{fill:url(#SVGID_1_);stroke:#FFFFFF;stroke-width:0.25;stroke-miterlimit:1;}
</style>
<linearGradient id="SVGID_1_" gradientUnits="userSpaceOnUse" x1="-104.0635" y1="555.7067" x2="-103.3564" y2="554.9996">
	<stop  offset="0" style="stop-color:#1DA238"/>
	<stop  offset="0.9831" style="stop-color:#24391D"/>
</linearGradient>
<g id="Layer_6">
</g>
<g id="Layer_2">
	<path d="M114.1,589.4c3.1-20.8-2.8-54.4-2.6-75.3c0.9-101.4-2.9-253.1-2.8-354.5c0-9.3-0.9-19.9,2.2-27.6
		c2.7-6.7,10.3-13.2,16.1-14c4.4-0.6,11.5,7,14,13c2.8,6.9,2.5,16.1,2.5,24.4c0.1,115,4.5,280.3,2.5,395.3
		c-0.4,25.6-1.5,53-11.5,75.8c-15.1,34.3-46.1,35.6-63.6,3.4c-9.3-17.1-14.5-39.4-14.7-59.5c-1.4-156.8-9.5-313.7-8-470.5
		c0.8-79.5,54.3-104.7,108.1-90c28.8,7.8,38.9,53.5,39,96.4c0.3,157.9,2,315.8-0.8,473.6c-1.1,64.8-10.7,76.7-50.1,120.7
		c-38.2,42.7-77.1,28.9-110.4-21.8C5.9,635.5,5,358.7,6.4,300.2C8.3,218.7,6.8,224.6,7,143c0-15.4-1.9-33.6,17.4-33.7
		c19.3-0.1,18.8,18.2,17.5,33.6c-6.7,78.3-2.1,77.2-2.3,163.5c-1.2,387.4,21.8,356.5,22.9,357.6c41.6,42.1,73.1,18.6,87.4-33.5
		c10.7-38.7,9.2-60,10-100.6c2.5-124.3,1.1-248.8,0.7-373.2c-0.1-16.4-2.1-33.3-5.6-49.2c-6.3-28.8-6-75.5-28.9-73.4
		c-22.4,2.1-37.9,48.7-39.7,80.5c-0.7,12.4,2,24.8,2,37.2c-0.2,127.6-0.4,255.1,0.2,382.7c0.1,14.5,2.6,47,5.3,61.5
		C98.1,595.5,109.3,611,114.1,589.4z"/>
</g>
</svg>
