<?xml version="1.0" encoding="utf-8"?>
<!-- Generator: Adobe Illustrator 22.0.1, SVG Export Plug-In . SVG Version: 6.00 Build 0)  -->
<svg version="1.1" xmlns="http://www.w3.org/2000/svg" xmlns:xlink="http://www.w3.org/1999/xlink" x="0px" y="0px"
	 viewBox="0 0 175.1 731" style="enable-background:new 0 0 175.1 731;" xml:space="preserve">
<style type="text/css">
	.Arched_x0020_Green{fill:url(#SVGID_1_);stroke:#FFFFFF;stroke-width:0.25;stroke-miterlimit:1;}
	.st0{display:none;}
	.st1{display:inline;}
	.st2{clip-path:url(#SVGID_3_);}
	.st3{fill:#FFFFFF;}
</style>
<linearGradient id="SVGID_1_" gradientUnits="userSpaceOnUse" x1="-104.0635" y1="555.7067" x2="-103.3564" y2="554.9996">
	<stop  offset="0" style="stop-color:#1DA238"/>
	<stop  offset="0.9831" style="stop-color:#24391D"/>
</linearGradient>
<g id="Layer_2">
	<path d="M92.6,483.9c1-3.3,1.9-6.1,2.8-9c2-6.7,4.5-13.3,7.8-19.5c1.9-3.5,4-6.9,6.4-10.2c1.7-2.3,3.6-4.6,5.8-6.4
		c1.5-1.2,3.6-1.7,5.4-2.6c0.2-0.1,0.5,0,0.7-0.2c3.9-2.3,6.5-1.1,8.2,3.2c3,7.3,3.6,15.1,5,22.7c1.6,8.4,2.9,16.9,4.4,25.4
		c1.9,11.4,3.8,22.8,5.8,34.2c2.1,12.2,4.2,24.4,6.3,36.6c2.2,13.1,4.4,26.3,6.6,39.4c1.7,10.3,3.5,20.5,5.3,30.8
		c1.8,10.8,1.7,21.6-0.8,32.2c-1.9,8.4-4,16.7-6.3,25c-1.3,4.6-3.2,9.1-5.1,13.5c-2,4.6-4.3,9.1-6.9,13.4c-1.3,2.3-2.9,4.5-5.1,6.2
		c-1.7,1.3-3.1,3-4.7,4.4c-0.7,0.6-1.5,1.1-2.3,1.4c-3.2,1.2-6.5,2.3-9.9,0.5c-1.1-0.6-2.5-0.5-3.5-1.2c-2.4-1.6-4.7-3.4-6.7-5.6
		c-4.8-5.4-8.1-11.7-11.2-18.2c-1.7-3.4-3.5-6.7-5.1-10.2c-3.5-7.8-6.7-15.8-9.2-24c-1.8-6-4.3-11.8-6.1-17.7c-3.4-11-6.7-22-9.8-33
		c-2.2-7.8-4.2-15.7-6.1-23.6c-2.6-11-5.1-22.1-7.6-33.1c-1.9-8.6-3.8-17.2-5.4-25.8c-3.1-16.1-6-32.2-8.8-48.4
		C40,471.1,38,457.9,36,444.8c-1.7-11.2-3.2-22.4-4.8-33.6c-1.8-13.3-3.7-26.7-5.3-40.1c-2.2-17.4-4.2-34.9-6.1-52.4
		c-1.5-13.2-2.9-26.3-4.1-39.5c-1.6-17.5-3.1-35-4.4-52.4C9,198.9,7.8,171,8.4,143c0.3-14.5,1.1-29,2.7-43.5
		c1.4-12.6,3.3-25,6.2-37.3c1.9-7.9,4.2-15.7,6.8-23.3c2.1-6,4.7-12,7.7-17.6c2.2-4,4.9-7.9,8.5-10.9c1.6-1.3,3.5-2.2,4.8-3.6
		c1.6-1.7,3.6-1.3,5.3-2c2.4-1,4,0.4,5.5,3.2c2.2,4.2,3,8.9,3.9,13.5c1.3,7.1,2.4,14.3,3.6,21.4c2,12.1,4,24.2,6.1,36.3
		c1.9,11.3,3.9,22.7,5.8,34c2.2,13.2,4.5,26.4,6.7,39.6c2.1,12.2,4.2,24.4,6.3,36.6c1.8,10.5,3.5,21,2.2,31.7
		c-0.5,4.3-1.3,8.7-2.3,12.9c-1.7,7.3-3.6,14.6-5.7,21.8c-1.4,4.8-3.3,9.5-5.4,14.1c-2,4.5-4.3,8.9-6.8,13.1
		c-1.4,2.4-3.8,4.3-5.5,6.6c-0.9,1.2-1.9,2-3.2,2.6c-1.2,0.6-1.7,1.8-1.5,3.3c0.7,4.1,1.3,8.2,1.9,12.3c1.5,9.8,3,19.6,4.6,29.3
		c1.3,8.1,2.6,16.1,3.9,24.2c1.8,10.9,3.6,21.7,5.4,32.6c1.9,11.3,3.8,22.5,5.8,33.8c2.4,13.1,4.8,26.2,7.3,39.3
		C90.2,472.5,91.4,477.9,92.6,483.9z"/>
	<path d="M118.1,117c1.9,2,4.1,3.9,5.9,6.1c1.9,2.3,3.6,4.9,5.3,7.4c4.4,6.8,8.3,14,11.1,21.7c2.1,5.6,4.6,11.1,6.3,16.8
		c2.9,9.7,5.7,19.4,8.1,29.2c2.1,8.6,3.8,17.3,5.3,26.1c1.6,9.3,3,18.7,4.2,28.1c1.1,9,2,18.1,2.8,27.1c0.7,8.5,1.4,17.1,1.6,25.7
		c0.4,16.9,0.8,33.8,0.6,50.7c-0.2,13.9-1.4,27.7-2.2,41.5c-0.3,5.2-0.6,10.4-2.6,15.3c-0.7,1.8-1.6,3.2-3.3,3.7
		c-0.6,0.2-2-0.5-2.2-1.1c-1.2-2.8-2.4-5.6-3-8.5c-1.5-6.6-0.9-13.4-0.4-20.1c1.6-21,2.4-42.1,1.8-63.2c-0.5-17.3-1.5-34.6-3.5-51.8
		c-1.9-17.1-4.5-34.1-8.7-50.7c-2.2-8.6-4.6-17.2-7.3-25.7c-2.6-8.3-6-16.4-10.5-23.9c-2.2-3.7-4.8-7.2-7.3-10.8
		c-1.3-1.9-3-3.4-4.3-5.3c-2.5-3.8-2.9-8.2-3.4-12.6c-0.7-6.2-0.2-12.4,1.2-18.4C114,121.5,115.2,118.8,118.1,117z"/>
	<path d="M145.6,346.1c-0.8,12.7-1.5,26.3-2.5,39.9c-0.3,3.7-0.8,7.4-3,10.5c-0.4,0.6-0.8,1.5-1.4,1.7c-0.9,0.4-1.9,0.6-2.8-0.5
		c-3.6-4.5-4.1-10-4.1-15.4c-0.1-8,0.8-16,0.9-24.1c0.2-11.5,0.3-23-0.1-34.5c-0.3-9.1-1.2-18.2-2.3-27.2c-1.3-11-3.2-21.9-6.4-32.5
		c-1.8-6-4-11.8-6.2-17.6c-1.7-4.3-3.8-8.5-7.1-11.8c-4.4-4.4-5.6-9.8-6.2-15.5c-0.7-7.1-0.5-14.2,1.9-21.1c0.5-1.5,1.3-3,2.4-4.1
		c0.5-0.5,2.5-0.5,3,0c2,2,3.7,4.3,5.3,6.6c6.1,8.7,10.1,18.3,13.1,28.4c2.4,8.1,4.6,16.2,6.5,24.3c1.6,7,2.8,14.2,3.7,21.3
		c1.4,10.8,2.7,21.6,3.5,32.4C144.9,319.8,145.1,332.5,145.6,346.1z"/>
</g>
<g id="Layer_2_copy" class="st0">
	<g class="st1">
		<defs>
			<rect id="SVGID_2_" width="175.1" height="731"/>
		</defs>
		<clipPath id="SVGID_3_">
			<use xlink:href="#SVGID_2_"  style="overflow:visible;"/>
		</clipPath>
		<g class="st2">
			<g>
				<path class="st3" d="M-127.7,738.7c0-248.5,0-497.1,0-745.6c143.1,0,286.2,0,429.3,0c0,248.5,0,497.1,0,745.6
					C158.5,738.7,15.4,738.7-127.7,738.7z M90.7,484.6c-1.2-6-2.4-11.4-3.5-16.9c-2.5-13.1-5-26.2-7.3-39.3
					c-2-11.2-3.9-22.5-5.8-33.8c-1.8-10.9-3.6-21.7-5.4-32.6c-1.3-8.1-2.6-16.1-3.9-24.2c-1.5-9.8-3.1-19.6-4.6-29.3
					c-0.6-4.1-1.2-8.2-1.9-12.3c-0.3-1.6,0.3-2.8,1.5-3.3c1.3-0.7,2.3-1.4,3.2-2.6c1.7-2.3,4-4.1,5.5-6.6c2.5-4.2,4.8-8.6,6.8-13.1
					c2.1-4.6,3.9-9.3,5.4-14.1c2.2-7.2,4-14.5,5.7-21.8c1-4.3,1.8-8.6,2.3-12.9c1.3-10.7-0.4-21.2-2.2-31.7
					c-2.1-12.2-4.2-24.4-6.3-36.6c-2.3-13.2-4.5-26.4-6.7-39.6c-1.9-11.3-3.9-22.7-5.8-34c-2-12.1-4.1-24.2-6.1-36.3
					c-1.2-7.1-2.3-14.3-3.6-21.4c-0.8-4.6-1.7-9.2-3.9-13.5c-1.5-2.9-3.1-4.2-5.5-3.2c-1.7,0.7-3.7,0.3-5.3,2
					c-1.3,1.4-3.2,2.3-4.8,3.6c-3.7,3.1-6.3,6.9-8.5,10.9c-3,5.6-5.6,11.5-7.7,17.6c-2.6,7.6-4.9,15.4-6.8,23.3
					c-3,12.3-4.8,24.8-6.2,37.3c-1.6,14.4-2.4,28.9-2.7,43.5c-0.5,27.9,0.6,55.8,2.8,83.7c1.4,17.5,2.8,35,4.4,52.4
					c1.2,13.2,2.7,26.4,4.1,39.5c2,17.5,4,34.9,6.1,52.4c1.7,13.4,3.5,26.7,5.3,40.1c1.5,11.2,3.1,22.4,4.8,33.6
					c2,13.1,4,26.2,6.3,39.3c2.8,16.2,5.8,32.3,8.8,48.4c1.6,8.6,3.5,17.3,5.4,25.8c2.4,11.1,4.9,22.1,7.6,33.1
					c1.9,7.9,3.9,15.8,6.1,23.6c3.1,11,6.4,22.1,9.8,33c1.8,6,4.3,11.7,6.1,17.7c2.5,8.2,5.7,16.2,9.2,24c1.5,3.5,3.4,6.8,5.1,10.2
					c3.1,6.4,6.5,12.7,11.2,18.2c2,2.2,4.3,4,6.7,5.6c1,0.7,2.4,0.6,3.5,1.2c3.4,1.8,6.7,0.7,9.9-0.5c0.8-0.3,1.6-0.8,2.3-1.4
					c1.6-1.4,3-3.1,4.7-4.4c2.3-1.7,3.8-3.9,5.1-6.2c2.6-4.3,4.8-8.8,6.9-13.4c2-4.4,3.8-8.9,5.1-13.5c2.3-8.3,4.4-16.6,6.3-25
					c2.4-10.7,2.6-21.4,0.8-32.2c-1.7-10.3-3.5-20.5-5.3-30.8c-2.2-13.1-4.4-26.3-6.6-39.4c-2.1-12.2-4.2-24.4-6.3-36.6
					c-1.9-11.4-3.9-22.8-5.8-34.2c-1.4-8.5-2.8-17-4.4-25.4c-1.4-7.6-2-15.4-5-22.7c-1.8-4.3-4.3-5.5-8.2-3.2
					c-0.2,0.1-0.5,0.1-0.7,0.2c-1.8,0.8-4,1.3-5.4,2.6c-2.2,1.8-4.2,4.1-5.8,6.4c-2.3,3.3-4.5,6.7-6.4,10.2
					c-3.3,6.2-5.8,12.8-7.8,19.5C92.6,478.4,91.7,481.3,90.7,484.6z M116.1,117.7c-2.9,1.8-4.1,4.5-4.8,7.4
					c-1.5,6.1-1.9,12.2-1.2,18.4c0.5,4.4,0.9,8.8,3.4,12.6c1.3,1.9,3,3.5,4.3,5.3c2.5,3.5,5.1,7.1,7.3,10.8
					c4.5,7.5,7.8,15.6,10.5,23.9c2.7,8.5,5.1,17.1,7.3,25.7c4.2,16.7,6.7,33.7,8.7,50.7c2,17.2,3,34.5,3.5,51.8
					c0.6,21.1-0.1,42.1-1.8,63.2c-0.5,6.7-1.1,13.4,0.4,20.1c0.6,2.9,1.9,5.7,3,8.5c0.3,0.6,1.6,1.3,2.2,1.1
					c1.8-0.5,2.6-1.9,3.3-3.7c1.9-5,2.3-10.1,2.6-15.3c0.8-13.8,2-27.7,2.2-41.5c0.3-16.9-0.2-33.8-0.6-50.7
					c-0.2-8.6-0.9-17.1-1.6-25.7c-0.7-9.1-1.6-18.1-2.8-27.1c-1.2-9.4-2.5-18.8-4.2-28.1c-1.5-8.7-3.2-17.4-5.3-26.1
					c-2.4-9.8-5.1-19.5-8.1-29.2c-1.7-5.7-4.2-11.2-6.3-16.8c-2.8-7.7-6.7-14.8-11.1-21.7c-1.6-2.5-3.4-5.1-5.3-7.4
					C120.2,121.6,118.1,119.7,116.1,117.7z M143.6,346.7c-0.5-13.6-0.7-26.3-1.6-38.9c-0.7-10.8-2.1-21.6-3.5-32.4
					c-0.9-7.2-2.1-14.3-3.7-21.3c-1.9-8.2-4.1-16.3-6.5-24.3c-3-10.1-7-19.7-13.1-28.4c-1.6-2.3-3.4-4.6-5.3-6.6
					c-0.5-0.5-2.5-0.5-3,0c-1.1,1.1-1.8,2.6-2.4,4.1c-2.4,6.9-2.6,14-1.9,21.1c0.5,5.7,1.8,11.1,6.2,15.5c3.2,3.3,5.4,7.5,7.1,11.8
					c2.2,5.8,4.4,11.7,6.2,17.6c3.2,10.6,5.1,21.5,6.4,32.5c1.1,9,2,18.1,2.3,27.2c0.4,11.5,0.2,23,0.1,34.5c-0.1,8-1,16.1-0.9,24.1
					c0,5.3,0.5,10.8,4.1,15.4c0.9,1.1,1.9,1,2.8,0.5c0.6-0.3,0.9-1.1,1.4-1.7c2.2-3.2,2.8-6.9,3-10.5
					C142.1,373.1,142.9,359.4,143.6,346.7z"/>
			</g>
		</g>
	</g>
</g>
</svg>
