<?xml version="1.0" encoding="utf-8"?>
<!-- Generator: Adobe Illustrator 22.0.1, SVG Export Plug-In . SVG Version: 6.00 Build 0)  -->
<svg version="1.1" id="Layer_2" xmlns="http://www.w3.org/2000/svg" xmlns:xlink="http://www.w3.org/1999/xlink" x="0px" y="0px"
	 viewBox="0 0 327.1 731" style="enable-background:new 0 0 327.1 731;" xml:space="preserve">
<style type="text/css">
	.Arched_x0020_Green{fill:url(#SVGID_1_);stroke:#FFFFFF;stroke-width:0.25;stroke-miterlimit:1;}
</style>
<linearGradient id="SVGID_1_" gradientUnits="userSpaceOnUse" x1="-104.0635" y1="555.7067" x2="-103.3564" y2="554.9996">
	<stop  offset="0" style="stop-color:#1DA238"/>
	<stop  offset="0.9831" style="stop-color:#24391D"/>
</linearGradient>
<path d="M321.5,299.4c-0.1,1.1-0.3,2.2-0.4,3.2c-0.4,22.4-2.4,44.6-5.4,66.8c-1.8,13.3-4.2,26.6-7.2,39.8
	c-3.2,14.1-7.2,28-11.5,41.8c-2.8,9-6.8,17.7-10,26.6c-0.8,2.1-1.1,4.4-1.1,6.6c-0.1,44.2,0,88.5,0,132.7c0,1.2,0,2.5-0.5,3.9
	c-2.5-4.3-5-8.7-7.6-12.9c-7.6-12.5-15.3-25-22.9-37.5c-5.8-9.6-11.6-19.3-17.3-29.1c-0.9-1.5-1.6-1.3-2.7-0.7
	c-0.7,0.4-1.4,0.8-2.2,1c-3.6,1.1-7.3,2-10.9,3.2c-0.6,0.2-1.1,1.2-1.4,1.9c-3.8,8.1-7.2,16.4-11.5,24.2c-4.8,8.7-10,17.3-15.6,25.5
	c-4.1,6-9.1,11.5-14,16.9c-3.1,3.4-6.7,6.4-10.4,9.2c-3.8,2.9-7.9,5.3-12,7.8c-1.5,0.9-3.4,1-5,1.7c-9.9,4.5-20.3,3.3-30.6,2.9
	c-1.4-0.1-2.7-0.9-4.1-1.4c-2-0.8-4-1.7-5.9-2.7c-1.9-0.9-4.6-0.2-5.7,1.7c-4.5,7.7-9.1,15.4-13.7,23c-6.2,10.3-12.5,20.6-18.8,31
	c-5.2,8.6-10.3,17.2-15.4,25.8c-2.6,4.3-5.2,8.6-8.4,12.8c0-1.1,0-2.3,0-3.4c0-52.5-0.1-105,0.1-157.5c0-5.5-2.5-9.9-4.2-14.6
	c-3.6-9.8-7.7-19.5-11.1-29.5c-3.4-10.2-6.5-20.6-9.1-31.1c-5.4-21.3-9.4-42.8-12.4-64.5c-5.6-39.6-7.7-79.4-7-119.4
	c0.4-24.7,2.2-49.4,5.1-73.9c2.5-20.4,5.6-40.7,10.2-60.7c3-13.3,6.8-26.5,10.3-39.7c4.1-15.3,10-30,16.3-44.4
	C53.5,73,60.4,60.1,68.7,48c5-7.3,10.6-14.1,16.5-20.5c3.1-3.3,6.8-6.2,10.5-8.9c3.7-2.8,7.7-5.2,11.7-7.6c1.5-0.9,3.3-1.1,5-1.7
	c7.3-2.8,14.8-3.8,22.6-3.3c1.6,0.1,3.2,0.1,4.8,0.1c3.6,0.1,6.8,1.2,10,2.7c1.6,0.7,3.3,1.5,5,1.7c3.9,0.6,6.5,3.4,9.6,5.3
	c4.4,2.8,8.5,6.1,12.5,9.5c2.9,2.5,5.4,5.4,8,8.2c1.2,1.3,1.9,0.9,3.1,0.1c3.3-2.3,6.6-4.7,10.1-6.6c2.1-1.1,4.8-1,7-1.9
	c6.7-2.7,13.5-1.3,20.3-1.2c2.4,0.1,4.7,1.5,7.1,2.3c1.7,0.6,3.6,1.1,5.1,1.9c2.9,1.6,5.9,3.2,8.5,5.2c4.1,3.2,8.3,6.5,11.9,10.3
	c3.8,4.1,7.1,8.7,10.4,13.3c6.5,9,11.9,18.8,16.5,28.9c9.3,20.1,16.1,41,21.3,62.5c5.7,23.7,9.9,47.6,12.2,71.7
	c1.4,14.3,1.9,28.7,2.9,43c0.1,1.5,0.3,3,0.4,4.5C321.5,278.2,321.5,288.8,321.5,299.4z M268.3,534.1c0.3-0.1,0.5-0.1,0.8-0.2
	c0-1,0-1.9,0-2.9c0-24.8,0-49.6,0.1-74.4c0-1.8,0.4-3.6,1.1-5.3c4.7-11.1,9.9-22.1,14.2-33.4c5.4-14.4,8.9-29.3,11.8-44.4
	c4.1-20.6,6.6-41.5,7.6-62.4c2.2-44.7-0.6-89.1-11.3-132.8c-2.4-9.8-5.3-19.4-8.4-29c-4.1-12.6-9.4-24.7-16.1-36.2
	c-3.1-5.4-7-10.4-10.8-15.4c-4.2-5.6-9.2-10.6-14.9-14.7c-2.7-2-5.8-3.4-8.9-4.9c-1.6-0.8-3.5-0.8-5-1.6c-3.7-2.1-8-2.1-11.9-2.4
	c-3.6-0.3-7.4,1.7-11.2,2.3c-3.8,0.7-6.8,2.5-10.1,4.5c-6.1,3.7-11,8.5-15.7,13.7c-4.5,5-8.8,10.1-11.9,16c-4.3,8-8.5,16-12.1,24.3
	c-6.8,15.4-11.6,31.5-15.1,47.9c-2.9,14-5.3,28.1-7.3,42.3c-3,21.2-3.7,42.5-3.6,63.9c0.2,30.4,3.1,60.5,9.5,90.2
	c2,9.6,4.6,19.1,7.4,28.5c2.3,7.8,5,15.4,8,23c5.3,13.3,11.8,26.1,20.5,37.6c2.7,3.7,5.7,7.2,9.1,10.3c3.7,3.5,7.8,6.7,12.1,9.5
	c3.6,2.3,7.7,3.7,11.6,5.5c0.1,0,0.2,0,0.3,0c6,0,11.9,0,17.9,0c0.4,0,0.9,0,1.2-0.2c2.6-1.3,5.2-2.8,7.8-4.1
	c1.2-0.6,2.4-1.1,3.7-1.5c0.5-0.1,1.5,0.2,1.8,0.6c1.5,2.2,2.8,4.6,4.2,6.8c4.6,7.4,9.2,14.8,13.8,22.3
	C261.8,523.1,265,528.6,268.3,534.1z M194.2,539.3c-2.3-1.9-4-3.7-6.2-5c-5.6-3.4-10.2-8-14.2-12.9c-6.1-7.6-11.7-15.8-16.9-24.1
	c-6.5-10.3-11.2-21.5-15.4-32.8c-4.5-12.2-8-24.8-11.7-37.3c-4.6-15.9-7.7-32.2-10.2-48.6c-4.1-26.9-6.4-53.9-6.9-81
	c-0.7-39.5,1.5-78.8,8.7-117.7c2.4-13.2,5.4-26.3,8.6-39.4c3.6-15.1,8.4-29.8,14.6-44.1c4.3-9.9,8.7-19.9,14.5-29.1
	c0.5-0.8,0.4-2.9-0.2-3.3c-2.1-1.5-4.5-2.8-6.8-3.8c-2.1-0.9-4.4-1.6-6.6-2.3c-2.5-0.8-5-2.1-7.6-2.1c-4.1-0.1-8.3-1-12.4,1
	c-2.1,1-4.7,0.4-7.1,1.5c-3.8,1.8-8.1,2.4-11.7,4.9c-3.1,2.1-6.6,3.9-9.3,6.5c-4.4,4.2-9.2,8-12.8,13.1
	c-4.8,6.7-10.1,13.1-14.6,19.9c-3.3,5-5.9,10.5-8.5,15.9c-8,16.6-14.3,34-19.3,51.7c-5.2,18.1-9,36.5-12,55
	c-3.6,22.2-5.8,44.5-6.8,66.9c-2.1,48.3,0.8,96.2,10.4,143.6c4.4,21.8,9.9,43.4,18.5,64.1c3.1,7.4,6.3,14.8,9.4,22.2
	c2.2,5.3,5,10.1,4.9,16.3c-0.3,32.4-0.1,64.8-0.1,97.2c0,0.8,0.1,1.6,0.2,3.1c0.8-0.9,1.1-1.2,1.2-1.5c4.3-7.3,8.6-14.6,13-21.9
	c4.5-7.6,9.1-15.1,13.7-22.7c2.9-4.8,5.8-9.6,8.7-14.4c0.4-0.6,1.3-1.5,1.7-1.4c2.2,0.7,4.4,1.5,6.5,2.5c2.8,1.3,5.5,3.2,8.4,3.9
	c3.6,0.9,7.4,0.5,11.2,1.6c2.4,0.7,5.2,0.5,8-0.9c2.3-1.1,5.2-0.4,7.8-1.8c2.8-1.5,6.3-1.9,9.1-3.5c3.9-2.1,7.8-4.4,11.1-7.3
	c6-5.2,11.7-10.8,16.3-17.4C187,549.3,190.4,544.5,194.2,539.3z"/>
</svg>
