<?xml version="1.0" encoding="utf-8"?>
<!-- Generator: Adobe Illustrator 22.0.1, SVG Export Plug-In . SVG Version: 6.00 Build 0)  -->
<svg version="1.1" id="Layer_6" xmlns="http://www.w3.org/2000/svg" xmlns:xlink="http://www.w3.org/1999/xlink" x="0px" y="0px"
	 viewBox="0 0 274.1 731" style="enable-background:new 0 0 274.1 731;" xml:space="preserve">
<style type="text/css">
	.Arched_x0020_Green{fill:url(#SVGID_1_);stroke:#FFFFFF;stroke-width:0.25;stroke-miterlimit:1;}
</style>
<linearGradient id="SVGID_1_" gradientUnits="userSpaceOnUse" x1="-104.0635" y1="555.7" x2="-103.3564" y2="554.9929">
	<stop  offset="0" style="stop-color:#1DA238"/>
	<stop  offset="0.9831" style="stop-color:#24391D"/>
</linearGradient>
<path d="M7,424.5c1-3.4,1.9-6.8,2.9-10.2c3.3-11.7,6.4-23.5,10-35.2c2.5-8.1,5.5-16.1,8.5-24c1.9-5,4.1-9.9,6.6-14.6
	c1.6-3,3.8-5.7,5.7-8.5c0.3-0.5,0.5-1.1,1.3-1.6c0.7,3.2,1.5,6.3,2.1,9.5c1.7,9.7,3.4,19.4,4.9,29.1c1.7,10.4,3.2,20.9,4.8,31.4
	c1.8,11.9,3.7,23.8,5.6,35.8c1.7,10.9,3.2,21.8,4.8,32.7c1.9,12,3.9,24,5.9,35.9c1.4,8.7,2.8,17.5,4.4,26.2c1.3,7.2,3,14.4,4.5,21.6
	c0.3,0,0.6,0,0.9,0c0.9-2.3,1.9-4.6,2.5-7c2.8-11.3,5.6-22.7,8.2-34c3.3-14.1,6.4-28.2,9.5-42.3c2.7-12.3,5.3-24.7,7.9-37.1
	c2.7-12.4,5.4-24.8,8-37.2c2.7-12.8,5.4-25.6,8.2-38.3c2.6-12,5.3-24,7.8-36c2.7-12.4,5.3-24.9,7.9-37.3c2.7-12.5,5.5-25.1,8.2-37.6
	c2.3-10.4,4.5-20.8,6.7-31.3c2.9-13.4,5.9-26.9,8.9-40.3c2.4-11.1,4.8-22.2,7.3-33.3c3.1-13.8,6.2-27.5,9.2-41.3
	c2.4-10.7,4.6-21.4,7-32.1c2.6-11.6,5.3-23.2,8-34.8c2-8.8,3.9-17.7,5.7-26.2c2.8,3.5,5.6,7.2,8.5,10.8c2.7,3.4,5.3,6.9,8.9,9.6
	c2,1.5,3.5,3.8,5.5,5.3c2.6,2,4.6,4.6,7.8,5.8c1.1,0.4,2,1.8,2.9,2.7c0.1,0.1,0.2,0.4,0.4,0.5c2.4,1.1,4.9,2,7.3,3.3
	c1.4,0.7,2.5,1.9,3.8,2.9c0.2,0.1,0.3,0.3,0.5,0.3c1.9,0.5,3.8,0.9,5.7,1.5c0.5,0.1,0.9,0.5,1.4,0.8c0.5,0.3,1,0.7,1.6,0.8
	c1.2,0.2,2.8-0.3,3.3,1.5c0.1,0.2,0.8,0.2,1.2,0.3c2.5,0.1,5.2-0.5,6.9,2.4c-3.5,10.5-7,21.4-10.6,32.2
	c-3.4,10.3-6.9,20.5-10.3,30.8c-2.2,6.7-4.1,13.6-6.2,20.3c-2.5,8-5.1,16-7.6,24.1c-2.3,7.4-4.5,14.8-6.7,22.2
	c-3.1,10.2-6.2,20.4-9.2,30.7c-4.2,14.3-8.2,28.6-12.3,42.9c-4.2,14.5-8.4,29.1-12.4,43.6c-3.3,12.1-6.4,24.2-9.7,36.3
	c-3.2,11.8-6.4,23.6-9.6,35.5c-2.3,8.8-4.4,17.6-6.7,26.4c-3.5,13.9-7,27.8-10.5,41.7c-2.2,8.9-4.3,17.8-6.5,26.7
	c-3.1,12.6-6.1,25.3-9.1,38c-2.3,9.7-4.5,19.5-6.7,29.3c-2.9,12.6-5.8,25.1-8.6,37.7c-2,8.7-3.9,17.5-5.8,26.3
	c-3.1,14.3-6.3,28.5-9.3,42.8c-3,14-5.7,27.9-8.7,41.9c-1.9,8.9-3.9,17.8-5.8,26.7c-0.8,3.6-3,6.3-5.1,9.2c-1.2,1.6-2.4,3.1-3.7,4.6
	c-0.6,0.7-1.3,1.2-1.9,1.9c-2.7,0-5.4,0-8.1,0c0-0.3,0.1-0.9-0.1-1c-2.8-1.7-4-4.7-5.5-7.3c-2.8-4.8-4.2-10.2-5.4-15.6
	c-4.1-17.3-8.1-34.7-12-52.1c-1.7-7.5-3.2-15-4.9-22.6c-2-9.4-4.2-18.7-6.1-28.1c-1.8-8.8-3.5-17.6-5.3-26.4
	c-2.6-12.6-5.3-25.3-8-37.9c-2.3-10.9-4.5-21.9-6.8-32.8c-1.6-7.7-3-15.4-4.5-23.1c-1.4-6.9-2.7-13.7-4.1-20.6
	c-1.3-6.9-2.6-13.7-4-20.6c-0.7-3.5-1.3-7-2-10.6C7,426.8,7,425.6,7,424.5z"/>
</svg>
