<?xml version="1.0" encoding="utf-8"?>
<!-- Generator: Adobe Illustrator 22.0.1, SVG Export Plug-In . SVG Version: 6.00 Build 0)  -->
<svg version="1.1" id="Layer_2" xmlns="http://www.w3.org/2000/svg" xmlns:xlink="http://www.w3.org/1999/xlink" x="0px" y="0px"
	 viewBox="0 0 328.1 731" style="enable-background:new 0 0 328.1 731;" xml:space="preserve">
<style type="text/css">
	.Arched_x0020_Green{fill:url(#SVGID_1_);stroke:#FFFFFF;stroke-width:0.25;stroke-miterlimit:1;}
</style>
<linearGradient id="SVGID_1_" gradientUnits="userSpaceOnUse" x1="-104.0635" y1="555.7067" x2="-103.3564" y2="554.9996">
	<stop  offset="0" style="stop-color:#1DA238"/>
	<stop  offset="0.9831" style="stop-color:#24391D"/>
</linearGradient>
<g>
	<g>
		<path d="M321.2,725H81L4.9,365.5L81,6h240.1V725z M97.3,705h203.9V26H97.3L25.4,365.5L97.3,705z"/>
	</g>
	<g>
		<path d="M78.8,172c5.6,7.7,10.8,15.6,16.1,23.5c5.2,7.9,10.3,15.9,15.3,23.8c10,16,19.7,32.2,29.2,48.4c18.9,32.6,37,65.6,54.3,99
			c17.3,33.4,33.9,67.2,49.5,101.5c7.8,17.1,15.4,34.4,22.7,51.8c3.6,8.7,7.2,17.5,10.6,26.3c3.4,8.8,6.8,17.7,9.9,26.7
			c-5.6-7.7-10.9-15.6-16.1-23.5c-5.2-7.9-10.3-15.9-15.3-23.8c-10-16-19.7-32.2-29.2-48.4c-18.9-32.6-37-65.6-54.3-99
			c-17.3-33.4-33.8-67.2-49.5-101.5c-7.8-17.1-15.4-34.4-22.7-51.8c-3.6-8.7-7.2-17.5-10.6-26.3C85.3,189.9,81.9,181,78.8,172z"/>
	</g>
	<g>
		<path d="M284.2,173.2c-3,9-6.4,17.8-9.8,26.6c-3.4,8.8-6.9,17.5-10.5,26.2c-7.2,17.4-14.7,34.6-22.4,51.7
			c-15.5,34.2-31.8,67.9-48.9,101.2c-17.1,33.3-35,66.3-53.7,98.7c-9.4,16.2-19,32.4-28.9,48.3c-5,8-10,15.9-15.2,23.8
			c-5.2,7.9-10.4,15.7-15.9,23.4c3-9,6.3-17.8,9.7-26.6c3.4-8.8,6.9-17.5,10.5-26.2c7.2-17.4,14.7-34.6,22.4-51.7
			c15.5-34.2,31.8-67.9,49-101.2c17.1-33.3,35-66.2,53.7-98.7c9.4-16.2,19-32.4,28.9-48.3c5-8,10-15.9,15.2-23.8
			C273.4,188.7,278.6,180.9,284.2,173.2z"/>
	</g>
</g>
</svg>
