<?xml version="1.0" encoding="utf-8"?>
<!-- Generator: Adobe Illustrator 22.0.1, SVG Export Plug-In . SVG Version: 6.00 Build 0)  -->
<svg version="1.1" id="Layer_2" xmlns="http://www.w3.org/2000/svg" xmlns:xlink="http://www.w3.org/1999/xlink" x="0px" y="0px"
	 viewBox="0 0 243.1 731" style="enable-background:new 0 0 243.1 731;" xml:space="preserve">
<style type="text/css">
	.Arched_x0020_Green{fill:url(#SVGID_1_);stroke:#FFFFFF;stroke-width:0.25;stroke-miterlimit:1;}
	.st0{fill:#FFFFFF;}
</style>
<linearGradient id="SVGID_1_" gradientUnits="userSpaceOnUse" x1="-104.0635" y1="555.7067" x2="-103.3564" y2="554.9996">
	<stop  offset="0" style="stop-color:#1DA238"/>
	<stop  offset="0.9831" style="stop-color:#24391D"/>
</linearGradient>
<g>
	<g>
		<g>
			<g>
				<path class="st0" d="M36.9,647.1c-0.1-3.2-0.4-6-0.4-8.8c0-23.7,0.1-47.4-0.1-71.2c-0.1-5.3-1.4-10.7-2.7-16
					c-0.5-1.9-2.5-4.2-4.3-4.9c-11.9-4.5-20.8,1.2-22.1,13.9c-0.3,2.6-0.3,5.2-0.3,7.8c0,45.6,0,91.2,0,136.8
					c0,3.9,0.6,7.8,0.8,11.7c0.5,7.3,4.2,9.6,11.7,9.6c65.8-0.3,131.7-0.2,197.5-0.2c21.3,0,21.8-0.5,21.8-21.9
					c0-44.6,0-89.1,0-133.7c0-3.9,0.6-8.1-0.5-11.7c-1.4-4.4-3.2-10.5-6.6-12.1c-11.1-5.3-20.2,0.6-21.9,12.9
					c-0.5,3.3-0.4,6.8-0.4,10.1c0,22.9,0,45.9,0,68.8c0,2.8-0.2,5.6-0.4,8.6C151.2,647.1,94.4,647.1,36.9,647.1z"/>
			</g>
		</g>
	</g>
	<path d="M140.1,486.2c6.7,0,12.9,0.5,19-0.1c6.1-0.6,8.5,2.3,10.2,7.6c3.7,11.4,1,22.2-2.3,32.9c-13.1,42-26.4,84-40,125.8
		c-1,2.9-4.5,5-6.9,7.5c-2.2-2.4-5.5-4.4-6.4-7.2C99.3,606.8,85.1,560.8,71,514.8c-1.1-3.6-1-7.7-0.9-11.6
		c0.4-13.7,3.7-16.9,17-16.9c4.4,0,8.7,0,14.1,0c0-3.9,0.1-7.1,0-10.4c-2.1-104.5-4.3-291.5-6.4-396c-0.4-18.8,0.8-37.4,7.7-55.2
		c1.8-4.7,4-9.3,6.7-13.5c4.6-7.2,18.8-6.4,23.3,1.2c9.3,15.6,13.4,32.6,13.4,50.1c-0.1,46.4-1.3,92.8-2.2,139.2
		c-1.3,65.9-2.6,214.3-3.9,280.2C139.8,482.9,139.9,484,140.1,486.2z"/>
	<path d="M34.5,690c57.5,0,114.4,0,171.9,0c0.1-3.1,0.4-50.1,0.4-52.9c0-22.9,0-45.9,0-68.8c0-3.4,0-6.8,0.4-10.1
		c1.7-12.3,10.8-18.2,21.9-12.9c3.4,1.6,5.3,7.7,6.6,12.1c1.1,3.6,0.5,7.7,0.5,11.7c0,44.6,0,89.1,0,133.7
		c0,21.5-0.5,21.9-21.8,21.9c-65.8,0-131.7-0.1-197.5,0.2c-7.4,0-11.1-2.3-11.7-9.6c-0.3-3.9-0.8-7.8-0.8-11.7
		c-0.1-45.6,0-91.2,0-136.8c0-2.6,0-5.2,0.3-7.8C6.2,546.1,15.1,540.4,27,545c1.8,0.7,3.8,3,4.3,4.9c1.4,5.2,2.7,10.6,2.7,16
		c0.3,23.7,0.1,47.4,0.1,71.2C34.2,639.7,34.4,686.8,34.5,690z"/>
</g>
</svg>
