<?xml version="1.0" encoding="utf-8"?>
<!-- Generator: Adobe Illustrator 22.0.1, SVG Export Plug-In . SVG Version: 6.00 Build 0)  -->
<svg version="1.1" id="Layer_2" xmlns="http://www.w3.org/2000/svg" xmlns:xlink="http://www.w3.org/1999/xlink" x="0px" y="0px"
	 viewBox="0 0 328.1 731" style="enable-background:new 0 0 328.1 731;" xml:space="preserve">
<style type="text/css">
	.Arched_x0020_Green{fill:url(#SVGID_1_);stroke:#FFFFFF;stroke-width:0.25;stroke-miterlimit:1;}
</style>
<linearGradient id="SVGID_1_" gradientUnits="userSpaceOnUse" x1="-104.0635" y1="555.7067" x2="-103.3564" y2="554.9996">
	<stop  offset="0" style="stop-color:#1DA238"/>
	<stop  offset="0.9831" style="stop-color:#24391D"/>
</linearGradient>
<g>
	<g>
		<path d="M321.2,725H5L4.9,365.5L5,6h316.1V725z M21.3,705h279.9V26H21.3V705z"/>
	</g>
</g>
<g>
	<g>
		<path d="M237.4,94c1.6,34.1,2.9,68.1,4.1,102.2l1.7,51.1l0.4,12.8c0.1,4.3,0.3,8.5,0.3,12.8c0.1,8.5-0.3,17-0.3,25.5l-1.3,239.3
			l0,6.8l-7.1,0.3l-63.4,2.5l-31.7-1.7l-4,0.2l-2,0.1c-0.7,0-1.3,0.2-2,0.2c-0.7,0.1-1.3-1.1-2-1.3l-2,1.5c-1.3-0.3-2.7,16.4-4,16
			c-5.5-1.4-18.3-39.4-40.1-66.6c24.5-38.9,33.9-64.9,39.7-66.9c1.3-0.5,2.6,18.1,3.9,17.7l2-0.6c0.7-0.2,1.3-0.4,2-0.4
			c0.7,0,1.3,0.1,2,0.1l2-0.1l4-0.2l31.7-1.3l56.2-2.6l1.3-143.1c0.1-8.5-0.2-17,0-25.5c0.1-4.3,0.3-8.5,0.5-12.8l0.6-12.8l2.4-51.1
			C233.7,162.1,235.4,128,237.4,94z"/>
	</g>
</g>
</svg>
