<?xml version="1.0" encoding="utf-8"?>
<!-- Generator: Adobe Illustrator 22.0.1, SVG Export Plug-In . SVG Version: 6.00 Build 0)  -->
<svg version="1.1" id="Layer_6" xmlns="http://www.w3.org/2000/svg" xmlns:xlink="http://www.w3.org/1999/xlink" x="0px" y="0px"
	 viewBox="0 0 195.1 731" style="enable-background:new 0 0 195.1 731;" xml:space="preserve">
<style type="text/css">
	.Arched_x0020_Green{fill:url(#SVGID_1_);stroke:#FFFFFF;stroke-width:0.25;stroke-miterlimit:1;}
	.st0{fill:#FFFFFF;}
</style>
<linearGradient id="SVGID_1_" gradientUnits="userSpaceOnUse" x1="-104.0635" y1="555.7067" x2="-103.3564" y2="554.9996">
	<stop  offset="0" style="stop-color:#1DA238"/>
	<stop  offset="0.9831" style="stop-color:#24391D"/>
</linearGradient>
<g>
	<g>
		<path class="st0" d="M78.5,707.8c0.5,5.6,2.1,10.9,6.1,15.1c1.7,1.8,3.6,3,6.2,3c4.9,0,9.9-0.1,14.8,0c1.8,0,3.2-0.7,4.5-1.6
			c1.9-1.3,3.2-3.1,4.3-5.1c1.7-3.2,2.8-6.6,3.2-10.1c0.4-3.7,0.7-7.4,1-11.1 M191.1,726.2c-62.1,0-124.1,0-186.2,0"/>
	</g>
</g>
<path d="M190.5,387.9c-0.2,2.4-0.4,4.8-0.8,7.1c-0.6,3.6-1.7,7-3.8,10c-1.6,2.4-3.7,4.3-6.4,5.3c-1.8,0.7-3.5,1.1-5.4,0.7
	c-1.2-0.3-2.4-0.8-3.4-1.5c-3.2-2.3-4.8-5.8-6.1-9.3c-1.8-4.6-2.3-9.4-3.1-14.1c-1.8-10.3-3.5-20.5-5.2-30.8
	c-1.6-9.2-3.1-18.4-4.6-27.7c-1.4-8.1-2.7-16.2-4.1-24.3c-1.4-8.5-2.8-17-4.3-25.5c-1.3-7.7-2.6-15.3-3.9-23
	c-1.1-6.4-2.1-12.7-3.2-19.1c-0.1-0.4-0.1-0.7-0.2-1.1c-0.1-0.3-0.4-0.5-0.6-0.7c-0.2,0.3-0.5,0.5-0.6,0.8c-0.1,0.6-0.2,1.2-0.2,1.8
	c-0.7,7.3-1.3,14.7-2,22c-0.7,7.8-1.4,15.5-2.1,23.3c-0.5,6-1.1,12-1.5,18c-0.5,7.8,0,15.6,1.4,23.4c1.8,10.3,3.7,20.6,5.6,30.9
	c1.7,9.2,3.4,18.4,5,27.6c1.5,8.5,3.1,17.1,4.6,25.6c1.2,6.9,2.5,13.8,3.8,20.7c1.6,8.9,3.2,17.7,4.8,26.6
	c1.5,8.5,3.1,16.9,4.6,25.4c1.3,7.3,2.6,14.6,4,21.9c1.5,8.5,3.1,17,4.6,25.5c1,5.5,0.7,10.9-1.5,16c-1.1,2.5-2.6,4.9-5.2,6.1
	c-1,0.5-2.2,0.8-3.3,0.8c-8.1,0.1-16.3,0.1-24.4,0c-2.1,0-2.9,0.8-3.4,2.6c-0.5,1.8-0.6,3.6-0.7,5.5c-0.7,9-1.5,18-2.2,27
	c-0.5,6.5-1,12.9-1.5,19.4c-0.5,6.5-1,12.9-1.6,19.4c-0.4,5.6-0.9,11.2-1.3,16.9c-0.5,6.6-1.1,13.1-1.6,19.7
	c-0.4,5.6-0.9,11.1-1.3,16.7c-0.5,6.6-1,13.2-1.6,19.8c-0.3,3.7-0.6,7.4-1,11.1c-0.4,3.6-1.5,7-3.2,10.1c-1.1,2-2.4,3.8-4.3,5.1
	c-1.3,0.9-2.8,1.6-4.5,1.6c-4.9-0.1-9.9,0-14.8,0c-2.6,0-4.6-1.2-6.2-3c-4-4.2-5.6-9.5-6.1-15.1c-1-10.8-1.8-21.6-2.6-32.4
	c-0.6-7.6-1.2-15.2-1.8-22.8c-0.8-10.2-1.7-20.5-2.5-30.7c-0.8-10.3-1.6-20.6-2.4-30.9c-0.8-9.5-1.5-19.1-2.3-28.6
	c-0.2-2.4-0.3-4.8-0.6-7.2c-0.1-0.9-0.5-1.7-0.8-2.6c-0.5-1.2-1.5-1.6-2.7-1.6c-8.1,0-16.3,0-24.4,0c-2.9,0-5.1-1.3-6.7-3.6
	c-3.6-5.1-4.5-10.9-3.7-16.8c0.9-6.8,2.3-13.6,3.5-20.4c1.2-7,2.5-14,3.8-21c1.2-6.8,2.5-13.6,3.7-20.4c1.5-8.5,3.1-17.1,4.6-25.6
	c1.2-6.5,2.4-13,3.5-19.5c1.3-7,2.5-13.9,3.8-20.9c1.2-6.5,2.4-13,3.5-19.5c1.2-6.6,2.4-13.2,3.6-19.7c1.2-6.8,2.5-13.6,3.7-20.4
	c1.4-7.6,2.8-15.2,4-22.9c1.2-7.6,1.3-15.2,0.7-22.9c-0.7-8.6-1.5-17.3-2.3-25.9c-0.8-8.5-1.5-17-2.3-25.4
	c-0.3-3.4-0.6-6.8-0.9-10.1c0-0.1,0-0.3,0-0.4c-0.2-0.3-0.4-0.7-0.6-1c-0.2,0.3-0.6,0.6-0.7,0.9c-0.5,2.4-0.9,4.8-1.3,7.2
	c-1.1,6.7-2.2,13.4-3.4,20.1c-1.4,8.5-2.9,17.1-4.3,25.6c-1.4,8.1-2.7,16.2-4.1,24.3c-1.4,8.1-2.7,16.2-4.1,24.4
	c-1.4,8.1-2.7,16.1-4.1,24.2c-1.5,8.9-3,17.7-4.5,26.6c-0.7,3.9-1.1,7.8-2.4,11.5c-1.1,3.1-2.3,6.1-4.4,8.7c-2.4,3-5.4,4.5-9.3,3.6
	c-2-0.4-3.7-1.4-5.3-2.7c-4-3.5-5.7-8.2-6.7-13.2c-1.1-5.8-0.7-11.6,0.4-17.3c1.7-8.8,3.3-17.7,4.9-26.5c1.4-7.7,2.9-15.3,4.3-23
	c1.9-10.1,3.7-20.2,5.6-30.4c1.8-9.7,3.6-19.3,5.4-29c1.9-10.1,3.7-20.2,5.6-30.4c1.8-9.7,3.6-19.3,5.4-29
	c2.3-12.2,4.5-24.4,6.7-36.6c1.1-5.7,2-11.4,3.2-17.1c1.1-5.2,3-10,5.9-14.5c1.9-2.8,4.2-5.3,7.1-7c1.5-0.9,3.1-1.6,5-1.6
	c2.1,0,4.2-0.2,6.3-0.3c19,0,38.1,0,57.1,0c3.1,0,5.9,0.9,8.4,2.7c3.4,2.4,5.8,5.7,7.8,9.3c2.8,5.1,4.1,10.7,5.1,16.3
	c1.1,6,2.2,12.1,3.3,18.1c1.4,7.4,2.7,14.8,4.1,22.2c1.1,6.1,2.2,12.1,3.3,18.2c1.5,8.2,3,16.4,4.5,24.5c1.4,7.6,2.8,15.2,4.2,22.8
	c1.5,8.2,3,16.4,4.5,24.5c1.5,8.1,3,16.1,4.5,24.2c1.8,9.7,3.6,19.4,5.3,29.1c1.5,8.1,3,16.1,4.5,24.2c0.9,5,1.7,10.1,2.6,15.1
	c0.2,0.9,0.2,1.9,0.3,2.8C190.5,387.1,190.5,387.5,190.5,387.9z"/>
<path d="M131.5,63.7c0,10.1-1.1,18.8-3.6,27.4c-1.5,5.3-3.6,10.5-6.4,15.3c-1.8,3.1-3.8,5.9-6.2,8.5c-2.2,2.4-4.8,4.5-7.7,6.1
	c-4.4,2.4-9.1,3-14,2.2c-1.7-0.3-3.4-1.1-5.1-1.8c-2.8-1.1-5.2-3-7.3-5.1c-1.7-1.6-3.2-3.5-4.6-5.4c-5.5-7.5-8.7-16.1-10.7-25.1
	c-2-8.8-2.6-17.8-2.1-26.8c0.5-8.6,2-17,4.8-25.1c1.7-4.7,3.8-9.2,6.5-13.4c2-3.1,4.3-5.9,7-8.3c2.2-2,4.7-3.6,7.4-4.8
	c3.9-1.7,8-2,12.1-1.3c1.9,0.3,3.8,1.3,5.6,2.1c3.7,1.6,6.6,4.4,9.2,7.3c1.7,1.9,3.1,4.1,4.5,6.2c2.4,3.8,4.2,7.9,5.7,12.2
	c1.7,4.9,2.9,9.9,3.8,15C131.1,54.3,131.4,59.5,131.5,63.7z"/>
</svg>
