<?xml version="1.0" encoding="utf-8"?>
<!-- Generator: Adobe Illustrator 22.0.1, SVG Export Plug-In . SVG Version: 6.00 Build 0)  -->
<svg version="1.1" id="Layer_6" xmlns="http://www.w3.org/2000/svg" xmlns:xlink="http://www.w3.org/1999/xlink" x="0px" y="0px"
	 viewBox="0 0 191.2 731" style="enable-background:new 0 0 191.2 731;" xml:space="preserve">
<style type="text/css">
	.Arched_x0020_Green{fill:url(#SVGID_1_);stroke:#FFFFFF;stroke-width:0.25;stroke-miterlimit:1;}
</style>
<linearGradient id="SVGID_1_" gradientUnits="userSpaceOnUse" x1="-104.0635" y1="555.7067" x2="-103.3564" y2="554.9996">
	<stop  offset="0" style="stop-color:#1DA238"/>
	<stop  offset="0.9831" style="stop-color:#24391D"/>
</linearGradient>
<path d="M66.4,6c10.8,0,21.6,0,32.4,0c1.8,7.7-6.2,19.1,8.4,22.1c0.7,0.1,1.3,2.1,1.5,3.2c1.1,6.8,0,13,7,19.4
	c5.2,4.9,1.6,17,6.8,26.1c5.2,9.1,4.4,21.5,6.6,32.4c2.7,13.3,5.7,26.5,8.5,39.8c0.3,1.2,0.4,2.5,0.7,3.7c2.3,10,5.1,20,6.8,30.1
	c1.7,10.1,2.1,20.3,3.5,30.5c2.9,21.4,6,42.8,9,64.2c0.2,1.3,1,2.4,1.5,3.7c1-0.1,2-0.2,3-0.2c4.5-84.6,9-169.1,13.6-254.7
	c1.8,1.5,3.9,2.4,4.1,3.6c1.6,9.7,4.3,19.5,4.1,29.2c-1.3,51.8-3.1,103.5-5.1,155.3c-0.8,21.7-2.1,43.4-3.6,65.1
	c-1.9,27.5-5.1,55-6,82.6c-0.6,17.5,2.1,35.1,3.2,52.6c2,32.3,4.5,64.7,5.8,97.1c2.2,54.3,4.1,108.6,5.3,162.9
	c0.2,9-3.6,18.2-5.7,27.2c-0.2,0.7-2,1-4.3,2c-2.1-85.1-4-169.2-13.7-252.8c-4.5,23.5-7.9,46.9-11.6,70.3c-2,12.6-4.5,25.2-6.9,37.8
	c-2.8,14.6-5.9,29.1-8.5,43.6c-2,11-3.5,22.1-5.3,33.1c-0.1,0.6-0.1,1.3-0.2,1.9c-4.2,14.2-8.5,28.4-13.1,43.8
	c-12.8,1.3-1.9,14.5-7.6,20.9c-2.6,0.7-5.5,1.5-9.7,2.6c0,7.2,0,14.1,0,21c-10.8,0-21.6,0-32.4,0c-1-8.5,6.8-19.8-7.7-24.2
	c-0.7-0.2-1-2.2-1.2-3.4c-1-6.6-1.1-12.2-6.5-18.7c-4.5-5.5-4.6-17.1-7.2-25.9c-2.9-9.9-3-20.5-4.6-30.8c-1.2-7.5-2.6-15-4.2-22.4
	c-2.1-9.8-4.8-19.4-6.5-29.2c-2.2-13.4-3.8-26.9-5.4-40.4c-2.5-22.3-4.9-44.6-6.9-66.9c-1.5-17.2-2.1-34.4-3.5-51.6
	c-0.7-8.8-2.3-17.6-3.5-26.4c0-13.9,0-27.9,0-41.8c0.7-2.5,1.7-5.1,1.9-7.6c1.3-17.2,1.8-34.5,3.6-51.6c3.2-31.5,7.1-63,10.7-94.5
	c2-17.5,3.8-35.1,6-52.6c1-7.9,2.5-15.7,4.2-23.5c2.3-10.9,5.9-21.6,7.3-32.6c1.4-11,10.5-20,7.6-31.8c-0.1-0.4,1.4-1.1,1.8-1.9
	c1.5-2.7,4.1-5.6,3.9-8.3c-0.5-8.3,1.1-14.1,11.1-14.1C65.8,18.6,66.1,12.3,66.4,6z M60.4,133.3c-0.7,7.3,0.9,16.4-2.2,18.5
	c-7.4,4.9-5.4,11-6.1,17.2c-0.2,2-1.3,3.9-2.2,5.8c-1.3,3.1-3.2,6-4,9.2c-0.8,3,0.5,6.7-0.7,9.4c-5.7,12.4-7.4,25.6-8,39
	c-0.1,1.9-0.1,3.8-0.5,5.6c-2,10.5-4.5,20.8-6.1,31.3c-1.6,10.5-2.1,21-3.2,31.6c-1.9,17.1-5.8,34.2-5.4,51.2
	c0.7,31.6,3.7,63.2,6,94.7c0.6,7.7,1.8,15.4,3.1,23c1.9,10.5,4.4,20.9,6.2,31.4c1.7,10,2.7,20.1,4.4,30c1,6.2,2.6,12.3,4.2,18.4
	c0.5,1.9,1.8,3.5,2.8,5.3c1.4,2.4,3.5,4.7,4,7.3c1.2,6.2-2.8,14.2,6.8,17.3c1,0.3,0.9,4,1.1,6.2c0.3,4,0.4,8,0.7,12.8
	c12-1.7,14.1,4.5,13.5,14c-0.1,2.1,3.8,5.8,6.5,6.4c7.4,1.8,7.9-3.4,8.1-9.1c0.1-4.3-1.9-10.8,5.7-10.7c8.1,0.1,8.1-4.6,8.2-10.4
	c0.1-3.5,1.1-7.1,2.3-10.4c1.2-3.3,4.1-6.1,4.9-9.5c1.3-5.6-2.6-13.1,7-15c0.7-0.1,1-3.3,1.3-5.2c2.1-10.9,4.1-21.8,6.1-32.6
	c0.1-0.3,0.1-0.6,0.2-0.9c2.9-9.6,6.6-19.1,8.6-28.9c2.2-10.5,2.8-21.3,4.2-32c1-7.3,2.2-14.6,3.3-21.9c2.9-19.8,6.6-39.6,8.3-59.5
	c1-11.3-1.1-23-2.4-34.4c-1.5-13.2-3.6-26.3-5.5-39.4c-2.7-17.8-5.4-35.7-8.2-53.5c-0.2-1.5-0.5-3.1-0.9-4.6
	c-2.7-10.7-5.7-21.3-8.1-32c-2.3-10.3-1-23-6.8-30.3c-5.7-7.2-4.9-13.8-6.4-20.9c-0.2-1.1-1.2-2.7-2-2.8c-7.8-1-5.4-7-6.1-11.6
	c-0.5-3.2-1.7-9-2.5-9c-11.1,0.1-11.5-6.9-11.7-15.1c0-2-4.2-5.4-6.5-5.5c-2.2,0-6.6,3.6-6.5,5.4C76.9,130,72.8,135.2,60.4,133.3z"
	/>
</svg>
