<?xml version="1.0" encoding="utf-8"?>
<!-- Generator: Adobe Illustrator 22.0.1, SVG Export Plug-In . SVG Version: 6.00 Build 0)  -->
<svg version="1.1" id="Layer_2" xmlns="http://www.w3.org/2000/svg" xmlns:xlink="http://www.w3.org/1999/xlink" x="0px" y="0px"
	 viewBox="0 0 327.1 731" style="enable-background:new 0 0 327.1 731;" xml:space="preserve">
<style type="text/css">
	.Arched_x0020_Green{fill:url(#SVGID_1_);stroke:#FFFFFF;stroke-width:0.25;stroke-miterlimit:1;}
</style>
<linearGradient id="SVGID_1_" gradientUnits="userSpaceOnUse" x1="-104.0635" y1="555.7067" x2="-103.3564" y2="554.9996">
	<stop  offset="0" style="stop-color:#1DA238"/>
	<stop  offset="0.9831" style="stop-color:#24391D"/>
</linearGradient>
<path d="M206.9,258c-9-4,22.6,44,27,53.7c1.1,2.4,7.9,10.8,9.1,13.1c2.4,4.9,1.4-1.2,3.6-4.8c2.3-3.7,4.3-14.1,3.4-20.3
	c-2.1-14.1-4.3-28-6.4-42.1c-3.1-20.9-6.6-41.5-9.2-62.8c-5.1-42,1.2-82.7,16.2-107.6c6.1-10.1,12.9-4.9,15.5,12.3
	c13.9,89.8,27.7,179.6,41.5,269.4c2,13.1,4.4,26.1,5.7,39.7c3.1,32.2,10.4,163,6.2,194.1c-5,36.9,1.6,65.7-8.6,95.5
	c-35,11.5-40.4,13-60,13c-25.8,13.4-35.7,12.9-51.3,11.9c-15.4-0.9-29.4-12.7-42.5-31.7c-11.6-16.9-22-37.6-32.3-58.4
	c-23.1-46.5-43.3-100-64-152.3c-15.5-39.2-30.9-78.4-46.2-117.9c-4.5-11.6-7.8-25-7.7-41.9c0.3-26.3,13-47.1,23.2-37.9
	c3.9,3.5,6.8,9.8,9.6,16.8c15.8,39.7,31.6,79.4,47.4,119c0.7,1.8,1.5,3.6,2.3,5c1.7,2.9,3.5,2.5,5.1-0.9c1.6-3.4,1.8-8.2,0.6-12.5
	c-0.7-2.5-1.6-4.6-2.5-6.8C68,340.4,43.3,277.6,18.5,214.9c-7.6-19.4-8.3-44.2-1.6-63.7c4.8-14,11.8-18.3,18.8-11.6
	c4.2,4,7.6,10.4,10.6,18c16.2,40.5,32.4,81,48.6,121.5c7.8,19.6,15.6,39.2,23.4,58.7c1.2,3,2.4,6,4.4,4.7c3-2,3.9-9.6,1.7-15.7
	c-2.8-7.8-5.8-15.3-8.7-22.8c-24.8-63.5-49.7-127-74.6-190.4c-4.5-11.5-7.6-24.4-7.5-40.9c0.2-24.3,8.3-42.4,18.4-41.1
	c6.9,0.9,12.4,8.5,17.1,20.2c14.9,37.4,29.7,74.8,44.6,112.1c13.4,33.6,26.8,67.2,40.2,100.8c0.5,1.2,0.9,2.3,1.5,3.2
	c1.5,2.4,3,3.1,4.5,0.2c1.5-3,2.1-7,1.2-11.5c-0.4-2.4-1.1-4.6-1.9-6.5c-21.3-54.4-42.6-108.8-63.9-163.1c-3.6-9.3-7-18.9-8.3-31.7
	C84.1,29.2,95,1.5,106,6.6c7,3.3,12.6,12.3,17.4,24.1c23.7,57.7,47.4,115.4,71.1,173.2c7.3,17.8,14.5,35.7,21.9,53.3
	c1.2,3,32.3,55.3,31.1,58.7c-10.9,30.9-48.8,16-50.9,56.3c-2.3,45.1,0.6,88.4,9,129.4c0.8,3.9,2.1,7.5,3.5,10.2
	c2.2,4-16.2-7.2-16.3-13.8c-0.1-4.7-0.6-9.5-1.4-13.8c-5.5-30.1-8.8-61.3-8.3-94.4C183.9,346.3,178.2,268.6,206.9,258
	C212.9,297,195.9,297,206.9,258z"/>
</svg>
