<?xml version="1.0" encoding="utf-8"?>
<!-- Generator: Adobe Illustrator 22.0.1, SVG Export Plug-In . SVG Version: 6.00 Build 0)  -->
<svg version="1.1" id="Layer_2" xmlns="http://www.w3.org/2000/svg" xmlns:xlink="http://www.w3.org/1999/xlink" x="0px" y="0px"
	 viewBox="0 0 307.1 731" style="enable-background:new 0 0 307.1 731;" xml:space="preserve">
<style type="text/css">
	.Arched_x0020_Green{fill:url(#SVGID_1_);stroke:#FFFFFF;stroke-width:0.25;stroke-miterlimit:1;}
</style>
<linearGradient id="SVGID_1_" gradientUnits="userSpaceOnUse" x1="-104.0635" y1="555.7067" x2="-103.3564" y2="554.9996">
	<stop  offset="0" style="stop-color:#1DA238"/>
	<stop  offset="0.9831" style="stop-color:#24391D"/>
</linearGradient>
<g>
	<path d="M127.1,667.3c-4.5-3.5-8-7.7-11-12.4c-7.1-11.4-11-24.3-13.3-37.8c-1.5-8.9-2.1-17.9-2.1-27c0-21.1,0.1-42.3-0.1-63.4
		c-0.1-17-1.1-33.9-3.2-50.7c-2.5-20.8-7.1-41.1-13.9-60.7c-5-14.5-10.1-28.8-15.1-43.3c-7-20.6-12.4-41.8-15.8-63.5
		c-1.9-12.2-3.4-24.5-3.9-36.8c-0.5-12.1-1-24.2-0.9-36.2c0.5-34.4,4.8-68.1,14.2-100.9c5.3-18.6,12.2-36.5,21.4-53.2
		c5.3-9.6,11.3-18.6,18.3-26.6c5.5-6.3,11.5-11.9,18.3-16.5c7.6-5.2,15.9-9.1,24.7-10.2c8.7-1.2,17.5-0.9,26.1,2.3
		c9.6,3.6,18.2,9,26,16.2c11.9,11,21,24.5,28.7,39.2c12.5,23.8,20.4,49.5,25.8,76.2c3.3,16.3,5.4,32.7,6.6,49.4
		c1.2,16.8,1.4,33.7,0.8,50.5c-1.1,29-5.1,57.5-12.6,85.4c-3.8,14-8.4,27.7-13.2,41.2c-5.8,16.3-11.8,32.5-16.1,49.4
		c-3.5,13.9-6,28-7.6,42.3c-2.3,20-2.8,40-2.9,60.1c-0.1,19.7,0.1,39.4-0.2,59.1c-0.3,14.7-3.2,29-8.5,42.5c-3,7.5-6.8,14.5-12,20.4
		c-1.4,1.5-2.8,3.1-4.4,4.2c-1.2,0.8-1.3,1.8-1.4,3.1c-0.1,5.1-0.2,10.1-0.7,15.2c-0.9,9.5-3.2,18.5-7.6,26.8
		c-2.6,4.9-5.8,9.3-10.3,12.2c-5.9,3.9-12.2,3.7-18.7-2.4c-6.7-6.2-10.1-14.6-12.5-23.6c-2.4-8.8-3.3-17.9-3.2-27.1
		C127.1,669.5,127.1,668.5,127.1,667.3z M182.2,510.6c0.1-1.1,0.2-2.1,0.2-3c0.4-6.2,0.7-12.4,1.2-18.7c1.2-14.8,2.9-29.6,5.2-44.3
		c2.8-18,6.6-35.8,11.4-53.4c4.3-15.8,10-30.9,15.4-46.2c3.6-10.2,7-20.6,9.6-31.2c4.6-18.7,6.6-37.8,7.2-57.1
		c0.7-21.3-0.2-42.5-3.5-63.5c-3.6-22.6-9.4-44.3-19.2-64.6c-6-12.3-13.3-23.6-23-32.7c-6.4-5.9-13.4-10.5-21.5-13
		c-9.1-2.8-18-2-26.7,1.1c-4.7,1.6-9,4.5-13,7.6c-7.1,5.5-13.1,12.4-18.3,20c-6.8,10.1-12.2,21.1-16.5,32.8
		c-9.8,26.3-14.5,53.8-15.8,82.1c-0.9,18.1-0.4,36.2,1.4,54.3c1.1,10.6,2.8,21,5.2,31.3c3.2,13.6,7.6,26.7,12.4,39.7
		c8.4,22.6,15.4,45.7,20.3,69.6c3.2,16.1,5.8,32.3,7.5,48.6c1.2,12.1,2,24.2,2.9,36.4c0.1,1.4,0.3,2.8,0.4,4.2
		C144.2,510.6,163.1,510.6,182.2,510.6z M179.8,565.1c-17.6,0-35,0-52.6,0c0,1.2,0,2.1,0,3.1c0,6.5,0,13.1,0,19.6
		c0,3.2,0.1,6.4,0.4,9.6c0.4,5.1,1.6,9.9,4.1,14.4c2.4,4.3,5.6,6.8,10.3,6.7c7.6-0.1,15.3-0.2,22.9,0c5,0.1,8.3-2.4,10.7-6.9
		c3-5.6,4.1-11.8,4.2-18.2c0.1-8.9,0-17.7,0-26.6C179.8,566.2,179.8,565.8,179.8,565.1z"/>
	<path d="M43.3,119.9c-0.6-0.9-1-1.5-1.3-2.2C31.5,96.3,21,75,10.5,53.6c-1.3-2.7-2.6-5.3-4-7.9c-0.5-1-0.7-1.9-0.1-3
		C12.3,30.8,18.1,19,24,7.1c0.1-0.2,0.4-0.4,0.8-0.8c1.3,2.6,2.6,5.1,3.8,7.7c8,16.3,16.1,32.6,24.1,48.9c2.8,5.6,5.5,11.3,8.3,16.9
		c0.8,1.5,0.8,2.7,0.1,4.3c-3.5,7.1-7,14.2-10.5,21.3c-1.9,3.9-3.8,7.9-5.8,11.8C44.4,118,43.9,118.8,43.3,119.9z"/>
	<path d="M42.4,435c1.1,2.2,2,4,2.9,5.7c4.8,9.7,9.5,19.5,14.4,29.2c1.2,2.3,1.1,4-0.1,6.4c-5.1,10.1-10.1,20.3-15,30.5
		c-6.7,13.7-13.4,27.3-20.1,41c-0.2,0.3-0.4,0.6-0.8,1.1c-1.3-2.5-2.5-4.8-3.7-7.2c-4.7-9.7-9.4-19.3-14.2-29
		c-0.6-1.3-0.6-2.2,0-3.5c9.9-20,19.7-39.9,29.5-59.9c1.9-3.8,3.8-7.7,5.6-11.5C41.2,437,41.7,436.2,42.4,435z"/>
	<path d="M263.8,120c-1.6-3.2-3-6-4.4-8.8c-4.2-8.5-8.4-17.1-12.6-25.6c-0.2-0.4-0.4-0.9-0.6-1.3c-1-1.5-0.8-2.9,0-4.6
		c5.4-10.8,10.7-21.7,16-32.5C268.6,34.2,275,21.1,281.4,8c0.2-0.5,0.5-1,0.9-1.7c0.4,0.6,0.8,0.9,1,1.4c5.7,11.5,11.3,23.1,17,34.6
		c0.6,1.3,0.6,2.3,0,3.5c-5.9,11.9-11.8,23.9-17.7,35.9c-5.9,12-11.8,23.9-17.6,35.9C264.8,118.2,264.4,118.8,263.8,120z"/>
	<path d="M282.5,551.2c-3.1-6.3-6-12.1-8.9-17.9c-6.3-12.9-12.7-25.8-19-38.7c-2.9-5.8-5.7-11.6-8.6-17.4c-0.6-1.3-0.9-2.3-0.2-3.8
		c5.8-11.6,11.4-23.2,17.1-34.8c0.2-0.3,0.4-0.6,0.8-1.3c0.9,1.8,1.9,3.3,2.7,5c10.5,21.4,21,42.7,31.4,64.1
		c0.8,1.7,1.7,3.4,2.6,5.1c0.6,1.1,0.6,2.1,0,3.2c-4.3,8.7-8.6,17.4-12.9,26.1C286,544.1,284.4,547.4,282.5,551.2z"/>
</g>
</svg>
