<?xml version="1.0" encoding="utf-8"?>
<!-- Generator: Adobe Illustrator 22.0.1, SVG Export Plug-In . SVG Version: 6.00 Build 0)  -->
<svg version="1.1" id="Layer_6" xmlns="http://www.w3.org/2000/svg" xmlns:xlink="http://www.w3.org/1999/xlink" x="0px" y="0px"
	 viewBox="0 0 169.1 731" style="enable-background:new 0 0 169.1 731;" xml:space="preserve">
<style type="text/css">
	.Arched_x0020_Green{fill:url(#SVGID_1_);stroke:#FFFFFF;stroke-width:0.25;stroke-miterlimit:1;}
</style>
<linearGradient id="SVGID_1_" gradientUnits="userSpaceOnUse" x1="-104.0635" y1="555.7067" x2="-103.3564" y2="554.9996">
	<stop  offset="0" style="stop-color:#1DA238"/>
	<stop  offset="0.9831" style="stop-color:#24391D"/>
</linearGradient>
<path d="M38.2,12.3c1.2,0,2.5,0,2.5-1.8c2,0,3.9,0,5.9,0c-0.1,1.5,0.9,1.6,2,1.8c0.4,0.1,0.6,1.2,0.9,2.1c0.2,0.1,0.6,0.2,1.1,0.3
	c-0.1,0.1-0.2,0.2-0.3,0.2c0.5,0.6,1.1,1.2,1.4,1.9c0.4,0.8,0.4,1.6,1.1,2.4c0.7,0.8,0.7,2.2,1.2,3.4c0.4,1.1,1,2.2,1.4,3.3
	c0.3,0.7,0.6,1.5,0.8,2.3c0.3,1.1,0.5,2.2,0.8,3.4c0.2,0.9,0.5,1.8,0.7,2.7c0.7,3,1.5,5.9,2.2,8.9c0.8,3.2,1.6,6.5,2.3,9.7
	c0.5,2.6,0.9,5.2,1.3,7.8c0.5,2.7,1,5.4,1.4,8.1c0.4,2.6,0.7,5.1,1.1,7.7c0.5,3.6,1.1,7.1,1.6,10.7c0.5,3.3,0.8,6.7,1.2,10
	c0.4,3.3,0.9,6.7,1.3,10c0.5,4,0.9,8,1.4,12c0.4,4.2,0.8,8.4,1.3,12.6c0.4,3.6,0.7,7.1,1.1,10.7c0.5,4.8,1,9.5,1.4,14.3
	c0.5,5,0.9,9.9,1.3,14.9c0.6,6.4,1.2,12.8,1.7,19.1c0.4,4.2,0.6,8.5,1,12.7c0.5,6.3,1,12.6,1.5,18.9c0.4,5.6,0.8,11.3,1.2,16.9
	c0.3,3.9,0.6,7.8,1.1,11.7c0.5-7.1,0.9-14.2,1.4-21.3c0.6-8.2,1.2-16.4,1.8-24.6c0.6-7.5,1.2-15.1,1.8-22.6c0.7-8.3,1.4-16.7,2.2-25
	c0.8-8.2,1.6-16.4,2.4-24.7c0.8-7.6,1.6-15.1,2.4-22.6c0.8-6.8,1.6-13.5,2.5-20.3c0.7-5.4,1.5-10.7,2.3-16c0.7-4.5,1.4-8.9,2.2-13.4
	c0.7-4.1,1.6-8.1,2.4-12.2c0.5-2.7,0.9-5.4,1.5-8.1c0.6-2.6,1.4-5.1,2.1-7.7c0.5-1.9,0.8-3.8,1.3-5.6c0.6-1.9,1.4-3.7,2.1-5.5
	c0.4-1.1,0.5-2.3,1-3.4c0.4-1.1,1.1-2.1,1.7-3.1c0.1-0.2,0.3-0.4,0.3-0.7c0.1-0.8-0.2-1.6,1-1.9c0.3-0.1,0.3-1.1,0.4-1.7
	c0.1,0.1,0.3,0.1,0.4,0.2c0.4-0.6,0.7-1.3,1.1-1.9c0-0.1,0-0.3,0-0.3c0.7-0.4,1.8-0.6,2.1-1.2c0.4-0.8,0.3-1.6,1.5-1.5
	c1.1,0.1,2.2,0,3.3,0c0.9,0,1.7,0,1.7,1.3c0,0.3,0.7,0.7,1,0.7c0.9,0.1,1.3,0.4,1.4,1.3c0,0.5,0.7,1,1.1,1.5c0.5,0.7,1.1,1.3,1.6,2
	c0.1,0.1,0.2,0.4,0.2,0.6c0,0.8,0,1.5,0.9,2c0.5,0.3,0.7,1.3,1,2.1c0.4,1.1,0.7,2.1,1.1,3.2c0.3,1,0.6,2.1,1,3.1
	c0.4,1.2,0.9,2.3,1.3,3.5c0.6,2,1.2,4,1.8,6c0.5,1.7,0.8,3.5,1.2,5.3c0.6,2.7,1.3,5.4,1.9,8.1c0.4,1.8,0.7,3.6,1,5.4
	c0.5,2.8,1,5.5,1.5,8.3c0.4,2.5,0.8,5.1,1.2,7.7c0.5,3.4,1.1,6.9,1.6,10.3c0.5,3.3,0.9,6.7,1.3,10c0.6,4.2,1.2,8.4,1.7,12.6
	c0.4,3.3,0.7,6.6,1,9.9c0.5,4.2,1,8.4,1.4,12.6c0.4,3.4,0.6,6.7,1,10.1c0.6,6.4,1.2,12.8,1.8,19.3c0.4,4.8,0.7,9.6,1.1,14.4
	c0.6,8,1.2,15.9,1.7,23.9c0.4,6.5,0.7,13,1,19.6c0.5,10,1.1,19.9,1.4,29.9c0.6,19.3,1.2,38.6,1.7,58c0.9,39.8,0.8,79.6,0.4,119.4
	c-0.2,16.6-0.5,33.2-0.9,49.8c-0.3,12.8-0.7,25.6-1.2,38.3c-0.3,9.1-0.7,18.1-1.2,27.2c-0.4,7.5-0.8,15.1-1.2,22.6
	c-0.5,7.5-0.9,15-1.5,22.5c-0.6,7.9-1.3,15.9-2,23.8c-0.5,6.4-1,12.8-1.7,19.1c-0.7,6.4-1.5,12.8-2.2,19.1
	c-0.5,4.2-0.9,8.4-1.4,12.6c-0.7,4.8-1.5,9.7-2.3,14.5c-0.5,3.4-1,6.8-1.6,10.1c-0.5,2.7-1.2,5.4-1.7,8.1c-0.4,1.8-0.6,3.7-1,5.5
	c-0.6,2.6-1.4,5.2-2.1,7.8c-0.3,1.1-0.5,2.3-0.8,3.4c-0.3,1.1-0.8,2.1-1.2,3.2c-0.4,1-0.7,2.1-1,3.1c-0.4,1.3-0.6,2.7-1.8,3.7
	c-0.1,0.1-0.1,0.2-0.1,0.3c-0.4,1.2-0.8,2.4-1.2,3.6c-0.1,0.2-0.4,0.4-0.6,0.6c-0.2,0.1-0.5,0.2-0.5,0.2c0.5,2.1-2.6,2.2-1.9,4.3
	c-1.5-0.1-2.8,0-2.8,1.8c0,0.1-0.5,0.3-0.8,0.3c-1.3,0-2.5,0-3.8,0c-0.3,0-0.8-0.3-0.8-0.4c0-1.9-1.4-1.6-2.6-1.7
	c-0.4-0.9,0-2.2-1.6-2.2c-0.1,0-0.3-0.6-0.3-0.9c-0.1-0.6,0.1-1.4-0.9-1.4c-0.1,0-0.3-0.1-0.3-0.3c-0.4-1.2-0.8-2.4-1.3-3.5
	c-0.4-1-1-1.9-1.5-2.9c-0.4-0.8-0.8-1.6-1.1-2.4c-0.6-1.9-1-3.9-1.6-5.8c-0.5-1.7-1-3.3-1.4-5c-0.3-1-0.7-2-0.9-3
	c-0.7-3.4-1.4-6.8-2.1-10.2c-0.8-4.1-1.7-8.1-2.5-12.2c-0.6-3.3-1-6.7-1.5-10c-0.6-4.1-1.3-8.3-1.9-12.4c-0.5-3.2-0.8-6.5-1.2-9.7
	c-0.6-4.3-1.1-8.6-1.7-13c-0.4-3.2-0.7-6.5-1-9.8c-0.5-4.2-1-8.5-1.4-12.7c-0.4-4.2-0.8-8.4-1.2-12.6c-0.5-4.9-1-9.7-1.5-14.6
	c-0.4-3.9-0.7-7.8-1.1-11.7c-0.5-5.9-1.1-11.7-1.6-17.6c-0.5-5.6-0.9-11.3-1.3-16.9c-0.5-5.5-1-11.1-1.4-16.6
	c-0.5-5.7-0.9-11.4-1.3-17.1c-0.2-2.6-0.4-5.1-0.9-7.7c-0.2,2.6-0.4,5.1-0.6,7.7c-0.5,6.5-1,13-1.5,19.5c-0.4,4.8-0.7,9.6-1.1,14.4
	c-0.4,5-0.9,9.9-1.3,14.9c-0.3,3.3-0.5,6.5-0.8,9.8c-0.5,5.7-1,11.3-1.5,17c-0.4,4.3-0.8,8.6-1.2,12.9c-0.5,4.8-1,9.6-1.5,14.4
	c-0.4,4-0.8,7.9-1.2,11.9c-0.6,5.1-1.2,10.3-1.8,15.4c-0.5,4.1-0.9,8.3-1.5,12.4c-0.5,4.1-1.2,8.2-1.8,12.3
	c-0.5,3.4-0.8,6.7-1.4,10.1c-0.5,3.4-1.2,6.8-1.8,10.3c-0.4,2.7-0.8,5.4-1.3,8.1c-0.5,2.6-1.2,5.2-1.7,7.8c-0.4,1.9-0.6,3.8-1.1,5.7
	c-0.6,2.6-1.4,5.1-2.1,7.7c-0.5,2-0.9,4-1.4,5.9c-0.3,1.1-0.9,2.1-1.3,3.1c-0.4,1.1-0.6,2.2-1,3.3c-0.4,1.1-1,2.2-1.6,3.3
	c-0.2,0.3-0.2,0.7-0.4,1.1c-0.2,0.5-0.5,0.9-0.8,1.4c-0.2,0.3-0.3,0.6-0.4,0.9c-0.1,0.3-0.1,0.7-0.3,1c-0.5,0.6-1,1.2-1.4,1.9
	c-1,0.2-1.8,0.6-1.6,2c0,0.2-0.6,0.7-1,0.7c-2.6,0.1-5.2,0-8,0c-0.1-0.5-0.1-1-0.2-1.4c-0.1-0.3-0.3-0.9-0.4-0.9
	c-1.3,0-1.4-1.7-1.6-1.7c-1.6-0.4-0.9-2.5-2.3-2.8c-0.1,0-0.1-0.1-0.2-0.2c-0.4-1.2-0.7-2.4-1.2-3.5c-0.4-1.1-1-2.2-1.5-3.2
	c-0.3-0.8-0.7-1.5-0.9-2.3c-0.5-1.9-1-3.8-1.5-5.7c-0.5-1.8-1.2-3.6-1.7-5.5c-0.5-1.8-0.8-3.6-1.2-5.4c-0.6-2.6-1.2-5.2-1.8-7.8
	c-0.4-1.8-0.7-3.7-1-5.5c-0.5-2.7-0.9-5.4-1.4-8c-0.5-2.7-0.9-5.4-1.3-8.1c-0.5-3.3-1-6.6-1.5-9.9c-0.4-2.6-0.8-5.1-1.1-7.7
	c-0.4-3.4-0.8-6.8-1.2-10.2c-0.5-4.1-1-8.3-1.5-12.4c-0.6-5-1.1-10.1-1.6-15.1c-0.4-4-0.7-8-1.1-12c-0.4-5-0.9-9.9-1.3-14.9
	c-0.4-4.8-0.7-9.6-1.1-14.4c-0.6-8.1-1.2-16.2-1.7-24.4c-0.4-6-0.7-11.9-1-17.9c-0.4-8.9-0.8-17.7-1.2-26.6
	c-0.4-9.6-0.7-19.3-1-28.9C6.6,425.6,6.4,382.3,6.6,339c0.1-22.1,0.6-44.2,0.9-66.2c0.2-10.6,0.5-21.2,0.9-31.8
	c0.4-10.5,0.8-21,1.2-31.5c0.4-9.8,0.9-19.6,1.5-29.4c0.5-8.5,1.1-17.1,1.7-25.6c0.4-5.7,0.8-11.4,1.3-17.1
	c0.6-6.9,1.2-13.9,1.8-20.8c0.6-5.9,1.2-11.8,1.9-17.7c0.5-4.1,1.1-8.2,1.6-12.4c0.4-3.3,0.8-6.7,1.3-10c0.6-4.2,1.3-8.3,2-12.5
	c0.3-1.9,0.5-3.8,0.8-5.6c0.5-2.7,1.1-5.3,1.6-8c0.4-1.7,0.7-3.5,1.1-5.2c0.5-2.1,1-4.2,1.5-6.2c0.4-1.9,0.8-3.8,1.3-5.7
	c0.6-1.9,1.3-3.7,2-5.6c0.4-1.1,0.5-2.3,0.9-3.4c0.4-1.1,1-2,1.5-3.1c0.1-0.3,0.2-0.7,0.3-1c0.2-0.5,0.6-1,0.8-1.5
	c0.1-0.3,0.2-0.7,0.3-0.9c0.2-0.4,0.5-0.7,0.7-1.1c0.2-0.2,0.5-0.4,0.5-0.6c0-0.9,0.2-1.5,1.3-1.7C37.8,14.4,37.9,13.2,38.2,12.3z
	 M123.8,145.4c-0.4,1.1,0.2,2.5-1.5,2.6c-0.1,0-0.1,0.3-0.1,0.4c-0.4,1.1-0.6,2.4-1.3,3.4c-0.9,1.3-1.1,2.7-1.6,4.1
	c-0.3,1-0.6,2-0.9,3c-0.6,1.9-1.2,3.7-1.7,5.6c-0.5,1.9-0.8,3.8-1.2,5.7c-0.4,1.8-0.9,3.6-1.2,5.4c-0.4,1.9-0.6,3.8-0.9,5.7
	c-0.5,2.6-1,5.2-1.4,7.9c-0.4,2.6-0.7,5.2-1.1,7.9c-0.6,4.3-1.2,8.5-1.8,12.8c-0.4,3.3-0.8,6.7-1.2,10c-0.5,4.2-1,8.4-1.4,12.6
	c-0.6,5.5-1.1,11-1.6,16.5c-0.5,4.9-1,9.7-1.5,14.6c-0.5,5.6-0.9,11.3-1.4,16.9c-0.7,8.6-1.5,17.3-2.2,25.9
	c-0.6,6.7-1.1,13.5-1.6,20.2c-0.6,8.3-1.2,16.5-1.8,24.8c-0.5,6.6-0.9,13.2-1.3,19.8c-0.5,7.4-1,14.7-1.4,22.1
	c-0.3,4-0.6,8.1-0.8,12.1c-0.2,3.9-0.5,7.8-0.5,11.7c0,3.4,0.4,6.8,0.7,10.3c0.2,3,0.5,6,0.7,9.1c0.4,5,0.9,9.9,1.4,14.9
	c0.4,4.1,0.7,8.1,1.1,12.2c0.4,4.2,0.9,8.4,1.4,12.6c0.4,4,0.8,8,1.3,12c0.6,5.1,1.3,10.2,2,15.4c0.4,3.3,0.9,6.6,1.3,9.8
	c0.5,3.3,1.1,6.6,1.6,9.9c0.4,2.7,0.7,5.3,1.2,8c0.6,3.3,1.4,6.5,2.1,9.8c0.6,2.7,1,5.4,1.6,8.1c0.7,3,1.6,6,2.4,8.9
	c0.2,0.9,0.5,1.7,0.9,2.6c0.4,1.2,0.9,2.3,1.4,3.5c0.4,1,0.4,2.2,1,3.1c0.9,1.3,1.2,2.9,2,4.2c0.6,0.9,1.3,1.7,1.4,2.9
	c0,0.1,0.4,0.1,0.5,0.2c1,0.9,1.4,2.5,3,2.7c-0.1,1.8,1.2,1.5,2.3,1.6c1,0,1.9,0,2.9,0c1.1,0,2.4,0.2,2.3-1.6c0-0.1,0.2-0.4,0.3-0.4
	c1.3,0,1.9-0.5,1.9-1.9c0-0.1,0.3-0.3,0.4-0.3c1,0,1-0.7,1-1.4c0-0.3,0-0.7,0.2-0.9c0.6-0.9,1.7-1.7,1.9-2.7
	c0.4-1.7,1.2-3.2,1.8-4.8c0.8-2.2,1.4-4.4,2.1-6.7c0.6-2.3,1.2-4.6,1.6-7c0.8-3.8,1.6-7.6,2.3-11.4c0.6-3.4,1-6.8,1.5-10.2
	c0.7-4.8,1.5-9.7,2.1-14.5c0.8-6.8,1.5-13.6,2.2-20.4c0.6-6,1.1-12,1.5-17.9c0.5-7.6,1.1-15.1,1.5-22.7c0.5-9.1,0.9-18.1,1.2-27.2
	c0.4-12.9,0.8-25.8,0.9-38.7c0.3-30,0.3-60-0.7-90c-0.4-10.3-0.8-20.6-1.3-30.8c-0.4-8.1-1-16.3-1.5-24.4c-0.2-3.1-0.4-6.1-0.7-9.2
	c-0.4-5.1-0.9-10.1-1.4-15.2c-0.4-4.1-0.9-8.2-1.4-12.3c-0.4-3.3-0.8-6.7-1.2-10c-0.4-2.7-0.8-5.3-1.2-8c-0.4-2.6-0.8-5.1-1.2-7.7
	c-0.4-2.6-0.8-5.2-1.3-7.8c-0.5-2.6-1.3-5.1-1.9-7.7c-0.7-2.7-1.3-5.4-1.9-8c-0.2-0.9-0.6-1.7-1-2.5c-0.5-1.1-1-2.3-1.5-3.4
	c-0.5-1-0.9-2.1-1.4-3.2c0-0.1-0.3-0.1-0.4-0.2c-0.3-0.4-0.9-0.8-0.9-1.2c-0.1-0.9-0.4-1.3-1.3-1.2c-0.9,0.1-1.4-0.2-1.5-1.2
	c0-0.3-0.5-0.7-0.9-0.8c-0.7,0-1.9,0.1-1.9,0.3C126.4,145.4,125.1,145.4,123.8,145.4z M51.2,161.7c-0.1,0-0.1-0.1-0.2-0.1
	c-0.4-0.5-0.7-1.1-1.1-1.6c-0.3-0.4-0.7-0.6-1.1-0.9c-0.4-0.3-1.2-0.5-1.2-0.7c0.1-1.7-1-1.7-2.2-1.7c-1.1,0-2.1,0-3.2,0.1
	c-0.4,0-1,0.5-1,0.8c0,1.3-0.7,1.4-1.8,1.7c-0.6,0.2-1,1.3-1.4,2c-0.3,0.4-0.6,0.7-0.8,1.2c-0.1,0.2-0.1,0.8-0.2,0.8
	c-1.7,0.5-0.8,2.4-1.9,3.4c-0.8,0.7-0.7,2.3-1.1,3.4c-0.3,0.8-0.6,1.6-0.9,2.4c-0.4,1.1-0.9,2.1-1.2,3.2c-0.3,1.1-0.5,2.3-0.8,3.4
	c-0.5,1.9-1.1,3.7-1.5,5.6c-0.6,2.6-1,5.3-1.5,8c-0.5,2.6-1.1,5.2-1.6,7.8c-0.5,3.3-1,6.7-1.4,10.1c-0.8,5.6-1.6,11.3-2.3,16.9
	c-0.7,5.9-1.3,11.9-1.8,17.9c-0.7,7.6-1.3,15.2-1.8,22.8c-0.4,6.4-0.8,12.7-1,19.1c-0.5,12-1,23.9-1.4,35.9
	c-0.3,9.9-0.4,19.9-0.5,29.8c-0.4,28-0.1,55.9,0.8,83.9c0.4,14,1.2,27.9,1.9,41.9c0.5,8.5,1.2,16.9,1.8,25.4
	c0.4,5.2,0.9,10.3,1.5,15.5c0.4,4.1,1,8.2,1.5,12.2c0.4,3.3,0.8,6.7,1.2,10c0.4,2.6,0.8,5.2,1.3,7.8c0.4,2.4,0.8,4.9,1.3,7.3
	c0.5,2.7,0.8,5.4,1.4,8c0.6,2.9,1.4,5.8,2.2,8.7c0.2,0.9,0.4,1.8,0.8,2.6c0.7,1.8,1.6,3.6,2.3,5.4c0.5,1.2,0.8,2.4,1.2,3.6
	c0.1,0.2,0.3,0.3,0.4,0.4c1.2,0.6,1.1,2.6,2.9,2.6c0,0,0.1,0.2,0.1,0.3c-0.1,1.4,0.8,1.4,1.8,1.4c0.7,0,1.4,0,2.1,0
	c0.9,0,1.6-0.1,1.6-1.3c0-0.3,0.4-0.8,0.7-0.8c0.9,0,1.2-0.5,1.2-1.3c0-0.3,0.2-0.7,0.3-0.8c1.2-0.1,0.9-1,1-1.7
	c0-0.3,0.2-0.5,0.3-0.8c0.5-1.1,1.1-2.2,1.6-3.3c0.4-1.1,0.6-2.2,0.9-3.3c0.6-1.9,1.3-3.8,1.8-5.7c0.5-1.8,0.8-3.7,1.2-5.6
	c0.6-2.6,1.2-5.1,1.8-7.7c0.4-1.9,0.6-3.9,0.9-5.9c0.5-2.6,1-5.3,1.4-7.9c0.5-3.4,0.9-6.7,1.4-10.1c0.5-3.3,1-6.6,1.5-9.9
	c0.5-4.2,0.9-8.4,1.4-12.6c0.5-4.8,1.2-9.7,1.7-14.5c0.5-4.3,0.8-8.5,1.2-12.8c0.6-6.3,1.2-12.6,1.8-19c0.5-5,0.9-10,1.3-15.1
	c0.5-5.7,1-11.5,1.4-17.2c0.4-4.7,0.7-9.4,1-14.1c0.4-5.6,1-11.3,1.4-16.9c0.4-5.6,0.7-11.2,1.1-16.8c0.7-10.2,1.5-20.5,2.2-30.7
	c0.6-8.7,1.1-17.5,1.7-26.2c0.4-5.4,0.8-10.9,0.2-16.4c-0.6-5.7-0.9-11.4-1.4-17.1c-0.3-4-0.7-7.9-1.1-11.9
	c-0.5-4.8-0.9-9.5-1.4-14.3c-0.4-4.3-0.9-8.5-1.3-12.7c-0.4-4.1-0.9-8.2-1.4-12.3c-0.4-3.3-0.8-6.7-1.2-10
	c-0.6-4.2-1.2-8.4-1.8-12.6c-0.4-2.6-0.7-5.1-1.1-7.7c-0.5-2.8-1-5.5-1.5-8.3c-0.3-1.7-0.5-3.4-0.9-5.1c-0.6-2.6-1.2-5.1-1.8-7.7
	c-0.6-2.7-1-5.4-1.7-8c-0.5-2.1-1.2-4.3-1.8-6.4c-0.3-1-0.5-2-0.8-2.9c-0.4-1-1-1.9-1.4-2.9c-0.4-1.1-0.6-2.3-1-3.4
	c-0.3-0.9-0.5-2.1-1.2-2.5c-1-0.5-0.9-1.2-0.9-2c0-0.2-0.1-0.4-0.2-0.6C52.2,162.9,51.7,162.3,51.2,161.7z"/>
</svg>
