<?xml version="1.0" encoding="utf-8"?>
<!-- Generator: Adobe Illustrator 22.0.1, SVG Export Plug-In . SVG Version: 6.00 Build 0)  -->
<svg version="1.1" id="Layer_2" xmlns="http://www.w3.org/2000/svg" xmlns:xlink="http://www.w3.org/1999/xlink" x="0px" y="0px"
	 viewBox="0 0 288.1 731" style="enable-background:new 0 0 288.1 731;" xml:space="preserve">
<style type="text/css">
	.Arched_x0020_Green{fill:url(#SVGID_1_);stroke:#FFFFFF;stroke-width:0.25;stroke-miterlimit:1;}
</style>
<linearGradient id="SVGID_1_" gradientUnits="userSpaceOnUse" x1="-104.0635" y1="555.7067" x2="-103.3564" y2="554.9996">
	<stop  offset="0" style="stop-color:#1DA238"/>
	<stop  offset="0.9831" style="stop-color:#24391D"/>
</linearGradient>
<path d="M144.2,725.5c-5.2-19.2-9.8-37.1-14.7-54.9c-10.9-39.6-21.3-79.4-32.9-118.6c-11-37.1-27.4-69.8-46.2-100.4
	c-13.2-21.6-22.8-46.4-29.6-72.8C0.5,300.4,0.6,221.7,21.7,143.4c9.2-34,23-64.4,41.8-90c8.8-11.9,18.9-21.8,29.9-30.1
	C116,6.1,139.9,2.2,164.8,8c10.4,2.4,20.2,7.6,29.7,14.7c10.5,7.9,20.4,16.8,28.6,28.5c8.5,12.1,16.8,24.8,23.7,38.6
	c19.5,38.9,29.9,82.6,34.1,129.1c6.1,68.2-1.1,133.6-24.2,195c-7.4,19.8-17.6,37.2-27.8,54.4c-13.3,22.3-24.8,46.4-32.9,72.9
	c-12.1,39.9-23,80.5-34.3,120.9c-5.4,19.6-10.5,39.3-15.8,59C145.6,722.2,145.1,723.1,144.2,725.5z M61.2,269.4
	c0.5,35.6,8,74.8,27.7,108.6c10.1,17.3,22.8,30.6,38.4,36.3c21.6,8,41.8,1.2,59.2-17.8c12-13.1,21.4-29.6,27.5-49
	c21.4-68.6,19.2-134.7-12.4-197c-9.7-19.2-23.4-33-39.8-39.3c-16.6-6.4-33.3-3.9-48.7,8C99,130,88.2,145.9,80,164.8
	C67,194.8,61.3,227.7,61.2,269.4z"/>
</svg>
