<?xml version="1.0" encoding="utf-8"?>
<!-- Generator: Adobe Illustrator 22.0.1, SVG Export Plug-In . SVG Version: 6.00 Build 0)  -->
<svg version="1.1" id="Layer_6" xmlns="http://www.w3.org/2000/svg" xmlns:xlink="http://www.w3.org/1999/xlink" x="0px" y="0px"
	 viewBox="0 0 183.1 731" style="enable-background:new 0 0 183.1 731;" xml:space="preserve">
<style type="text/css">
	.Arched_x0020_Green{fill:url(#SVGID_1_);stroke:#FFFFFF;stroke-width:0.25;stroke-miterlimit:1;}
</style>
<linearGradient id="SVGID_1_" gradientUnits="userSpaceOnUse" x1="-104.0635" y1="555.7067" x2="-103.3564" y2="554.9996">
	<stop  offset="0" style="stop-color:#1DA238"/>
	<stop  offset="0.9831" style="stop-color:#24391D"/>
</linearGradient>
<path d="M43.5,219.5c-3.3,0-6.1,0-9.4,0c0,2.9,0,5.6,0,8.2c0,58.1,0,116.2,0,174.3c0,14.1-6.4,23.3-15.4,22.5
	c-8.1-0.7-13.6-9.2-13.6-21.2c0-49.4-0.1-98.8,0-148.2c0-15.7-0.6-31.5,0.8-47c3.4-39.6,27.6-68.6,56.5-69.1
	c19.4-0.3,38.9-0.3,58.3,0c32.2,0.5,57.3,36.1,57.3,80.7c0,61.2,0,122.4,0,183.6c0,9.7-3.3,16.8-9.2,20c-5.7,3.1-12.8,1.3-16.1-5.7
	c-2.2-4.7-3.6-11-3.6-16.6c-0.3-57.7-0.2-115.4-0.2-173c0-2.6,0-5.3,0-8.2c-3.3,0-6,0-9.4,0c0,2.7,0,5.3,0,7.9
	c0,156.3,0,312.6,0,468.9c0,15.3-7.7,27.6-18.4,29.6c-11.1,2.1-21.1-6.7-24-21.5c-0.7-3.5-0.7-7.4-0.7-11c0-84.6,0-169.1,0-253.7
	c0-2.5,0-4.9,0-7.9c-3.2,0-6.1,0-9.6,0c0,2.6,0,5.2,0,7.8c0,85.4,0,170.8,0,256.2c0,12.4-3.9,21.6-11.7,27.2
	c-7.4,5.3-15.1,4.7-22.1-1.9c-6.5-6.1-9.4-14.9-9.4-25.9c0.1-155.7,0-311.4,0-467C43.5,225.5,43.5,222.8,43.5,219.5z"/>
<path d="M53,59.6c0-29.3,17.2-53.1,38.4-53.1c21.4,0,38.4,23.2,38.7,52.8c0.3,29.4-17.2,53.6-38.6,53.5C70.1,112.7,53,89.1,53,59.6z
	"/>
</svg>
