<?xml version="1.0" encoding="utf-8"?>
<!-- Generator: Adobe Illustrator 22.0.1, SVG Export Plug-In . SVG Version: 6.00 Build 0)  -->
<svg version="1.1" id="Layer_3" xmlns="http://www.w3.org/2000/svg" xmlns:xlink="http://www.w3.org/1999/xlink" x="0px" y="0px"
	 viewBox="0 0 143.1 731" style="enable-background:new 0 0 143.1 731;" xml:space="preserve">
<style type="text/css">
	.Arched_x0020_Green{fill:url(#SVGID_1_);stroke:#FFFFFF;stroke-width:0.25;stroke-miterlimit:1;}
	.st0{clip-path:url(#SVGID_3_);}
	.st1{fill:#FFFFFF;}
</style>
<linearGradient id="SVGID_1_" gradientUnits="userSpaceOnUse" x1="-104.0635" y1="555.7067" x2="-103.3564" y2="554.9996">
	<stop  offset="0" style="stop-color:#1DA238"/>
	<stop  offset="0.9831" style="stop-color:#24391D"/>
</linearGradient>
<g>
	<defs>
		<line id="SVGID_2_" x1="181.9" y1="731" x2="0" y2="731"/>
	</defs>
	<clipPath id="SVGID_3_">
		<use xlink:href="#SVGID_2_"  style="overflow:visible;"/>
	</clipPath>
	<g class="st0">
		<g>
			<path class="st1" d="M54.5,588.3c3.1,46.6,6.5,93.2,9.7,139.7c-76.1,0-152.2,0-228.4,0 M350.5,728c-74.6,0-149.4,0-224.1,0
				c1.9-30.9,3.8-61.9,5.8-92.8"/>
		</g>
	</g>
</g>
<path d="M47,725.5c-2.6-46.6-5.3-93.2-7.8-139.8c-2.8-53.3-5.5-106.5-8.2-160.8c-8.1,0-16,0-24.8,0c-0.3-5.1-0.8-9.3-0.8-13.4
	c0-80.1,0-160.3,0-240.4c0-12.2,4-20.3,13.1-23.9c9.2-3.7,18.8-6.1,28.2-9.2c2.8-0.9,5.5-2.2,9.8-3.9c5,24.2,9.9,48.3,15.2,74.5
	c5.2-26,9.9-49.7,14.8-74.7c13.2,4.6,25.9,8.3,38.2,13.5c7.4,3.2,12.3,9.5,12.2,21.3c-0.3,81.1-0.2,162.3-0.2,243.4
	c0,3.6-0.2,7.2-0.4,12c-8.1,0-15.7,0-24,0c-0.9,14-1.8,26.9-2.4,39.8c-2.9,56.3-5.7,112.6-8.6,168.8c-1.6,31-3.1,61.9-4.6,92.9
	C80.1,725.5,63.6,725.5,47,725.5z"/>
<path d="M96.9,62.9c-0.8,19-3.3,37-15.2,50.5c-5.9,6.7-14.4,6.3-20.5-0.3c-7.7-8.2-11.5-19-13.1-30.8c-3.4-25.9-3.3-51.1,13.2-71.3
	c5.9-7.2,14.3-7.1,20.4-0.3C94.2,24.7,96.3,43.4,96.9,62.9z"/>
</svg>
