<?xml version="1.0" encoding="utf-8"?>
<!-- Generator: Adobe Illustrator 22.0.1, SVG Export Plug-In . SVG Version: 6.00 Build 0)  -->
<svg version="1.1" id="Layer_6" xmlns="http://www.w3.org/2000/svg" xmlns:xlink="http://www.w3.org/1999/xlink" x="0px" y="0px"
	 viewBox="0 0 244.2 731" style="enable-background:new 0 0 244.2 731;" xml:space="preserve">
<style type="text/css">
	.Arched_x0020_Green{fill:url(#SVGID_1_);stroke:#FFFFFF;stroke-width:0.25;stroke-miterlimit:1;}
</style>
<linearGradient id="SVGID_1_" gradientUnits="userSpaceOnUse" x1="-104.0635" y1="555.7067" x2="-103.3564" y2="554.9996">
	<stop  offset="0" style="stop-color:#1DA238"/>
	<stop  offset="0.9831" style="stop-color:#24391D"/>
</linearGradient>
<g>
	<path d="M71.9,86.5c0.1,1.3,0.1,2,0.1,2.6c0,35.3,0.1,70.6-0.1,105.8c0,2.9-1.5,5.8-2.5,8.6c-2.9,8-6.1,15.9-8.7,23.9
		c-5.5,16.8-9.7,34-12.4,51.5c-2.6,16.2-4.8,32.4-6.5,48.7c-3,29.2-3.5,58.6-2.3,88c0.6,15.3,1.7,30.7,3.3,45.9
		c1.3,12.9,3.5,25.8,5.6,38.6c2.7,16.5,6.7,32.8,11.6,48.8c3.5,11.2,7.5,22.2,12.4,32.9c3.7,8,7.9,15.6,12.8,22.8
		c3.9,5.6,8.4,10.7,13.5,15.2c2.1,1.8,4.3,3.9,6.8,4.9c3.6,1.5,7,4.1,11.4,3.7c1.3-0.1,2.7,0.6,4,0.9c0.5,0.1,1.1,0.1,1.6,0
		c1.5-0.3,3-1,4.4-0.9c3.1,0.2,5.8-1,8.3-2.4c3.7-2.1,7.4-4.4,10.6-7.2c4.1-3.6,7.7-7.7,11-12.2c9.8-13.3,16.6-28.1,22-43.5
		c3.7-10.6,6.8-21.4,9.8-32.2c4.5-16.1,7.4-32.6,9.7-49.1c1.8-13,3.1-26.1,4.3-39.2c2.3-26.7,2.9-53.5,1.6-80.3
		c-0.8-17-2.1-34-4-50.9c-1.8-15.6-4.6-31.2-7.5-46.7c-2.8-15-7-29.8-11.9-44.2c-2.5-7.3-5.6-14.3-8.3-21.5
		c-0.5-1.2-0.8-2.6-0.8-3.9c0-35.3,0-70.7,0-106c0-0.6,0-1.2,0-1.8c0.2-0.1,0.3-0.2,0.5-0.3c0.5,0.5,1.1,1,1.6,1.6
		c6.5,10,12.3,20.3,17.4,31.1c5,10.7,9.4,21.6,13.1,32.8c3.6,10.8,6.9,21.8,9.9,32.8c5,18.3,9.1,36.9,11.9,55.6
		c2.6,17.2,5.4,34.4,7.2,51.7c4.2,40.3,5.9,80.6,4.5,121.1c-0.7,19.5-1.8,39-3.2,58.4c-1.7,22.4-4.7,44.6-8.5,66.8
		c-3.2,18.4-6.9,36.6-11.9,54.6c-3.1,11.2-6.5,22.3-10.1,33.4c-2.5,7.6-5.4,15.1-8.5,22.5c-4.8,11.4-10.3,22.6-16.8,33.2
		c-4.6,7.6-9.8,14.7-15.7,21.3c-3.9,4.3-8.4,8.2-12.9,11.9c-2,1.6-4.6,2.5-7,3.7c-1.8,1-3.6,2-5.5,2.9c-1.5,0.7-3,1.4-4.5,1.8
		c-4.9,1.5-10.1,1.6-15.1,1.2c-2.9-0.3-5.8-1.3-8.7-2.2c-2.2-0.7-4.5-1.5-6.5-2.6c-4.1-2.2-8.4-4.1-11.9-7.5c-3.1-3-6.4-5.7-9.4-8.8
		c-2.7-2.9-5.1-6.1-7.6-9.2c-5.6-6.9-10.2-14.5-14.2-22.3c-3.6-6.9-7.1-13.9-10.2-21.1c-3.2-7.3-6.2-14.8-8.7-22.4
		c-3.7-11-7.1-22.1-10.3-33.3c-6.1-21.7-10.7-43.8-14-66.2c-2.6-18.4-5-36.8-6.8-55.3c-4-40.4-4.9-80.8-3.1-121.4
		c0.8-18.7,2-37.3,3.7-55.9c2-22.7,5.1-45.2,9.6-67.6c2-10.3,3.9-20.6,6.5-30.7C30,184,34,169.1,38.8,154.5
		c3.6-11.1,8.2-22,12.8-32.8c5-11.7,11.5-22.8,18.4-33.5C70.4,87.8,71,87.4,71.9,86.5z"/>
	<path d="M105.1,197.6c0-47.2-0.1-94.5,0.1-141.7c0-7.4,0.6-14.8,1.5-22.1c0.8-7.1,2.8-14.1,6.1-20.6c1.6-3,3.8-5.6,6.8-7.4
		c1.5-0.9,4.9,0.1,6.6,1.5c5,4.3,6.8,10.3,8.5,16.2c2.9,10.2,3.6,20.7,3.6,31.2c0,95.2,0,190.3,0,285.5c0,11.1-0.9,22.1-4.2,32.7
		c-1.4,4.5-2.9,9.2-6.3,12.7c-1.4,1.4-2.7,3-5,3.3c-4.3,0.5-6.8-2.1-8.7-5.2c-4.8-7.8-7-16.6-7.7-25.6c-0.8-10.7-1.1-21.4-1.1-32.1
		C105.1,283.2,105.1,240.4,105.1,197.6z"/>
</g>
</svg>
