<?xml version="1.0" encoding="utf-8"?>
<!-- Generator: Adobe Illustrator 22.0.1, SVG Export Plug-In . SVG Version: 6.00 Build 0)  -->
<svg version="1.1" id="Layer_6" xmlns="http://www.w3.org/2000/svg" xmlns:xlink="http://www.w3.org/1999/xlink" x="0px" y="0px"
	 viewBox="0 0 255.1 731" style="enable-background:new 0 0 255.1 731;" xml:space="preserve">
<style type="text/css">
	.Arched_x0020_Green{fill:url(#SVGID_1_);stroke:#FFFFFF;stroke-width:0.25;stroke-miterlimit:1;}
</style>
<linearGradient id="SVGID_1_" gradientUnits="userSpaceOnUse" x1="-104.0635" y1="555.7067" x2="-103.3564" y2="554.9996">
	<stop  offset="0" style="stop-color:#1DA238"/>
	<stop  offset="0.9831" style="stop-color:#24391D"/>
</linearGradient>
<g>
	<path d="M77.4,728.5c-0.9-1-2-1.8-2.7-2.9c-1.6-2.7-3.2-5.4-4.3-8.3c-2.2-5.4-4.3-10.9-6.2-16.5c-3.2-9.7-6.2-19.4-9.2-29.2
		c-2.2-7.4-4.4-14.8-6.3-22.3c-4.2-16.8-8.3-33.6-12.1-50.5c-3.6-16.1-6.9-32.2-10.1-48.4c-2.9-14.7-5.8-29.5-8.3-44.3
		c-3-17.3-5.8-34.7-8.3-52.1c-2.1-14.5-1.8-29.1-1-43.7c0.5-9.5,2.1-18.8,5.2-27.7c1.3-3.9,3.5-7.4,5.5-10.9
		c2.3-3.9,5.7-6.7,9.5-8.7c4.2-2.1,8.4-1.9,12.3,1.3c1.3,1.1,2.9,1.7,4,2.9c4.8,4.9,8.1,10.9,10,17.7c4.1,14.9,8.1,29.9,12.1,44.9
		c0.5,1.8,1,3.7,1.8,5.5c0-0.7,0-1.5,0-2.2c0.3-87.3,0.5-174.6,0.9-261.9c0-10.9,0.1-21.8,0.9-32.7c0.4-5.9,2-11.8,3.4-17.7
		c1.8-7.6,4.8-14.6,9.1-21c1.2-1.7,2.8-3.1,4.3-4.5c1.9-1.8,3.7-4,6.5-4.3c2.4-0.2,4.9-0.8,7.2-0.4c5.4,1,9.4,4.7,12.7,9.1
		c3.7,4.9,6.1,10.7,8.1,16.6c3.8,11.3,5.5,23.1,5.6,35.1c0.1,27.8,0.3,55.7,0.5,83.5c0,0.9,0,1.7,0,2.7c1.7-0.6,3.1-1.2,4.5-1.7
		c7-2.4,13.2-0.4,18.3,5c5.1,5.4,8.1,12.3,10.7,19.4c1,2.6,1.8,5.3,2.6,7.9c0.5,1.4,1.1,1.7,2.3,0.8c1.8-1.3,3.6-2.9,5.7-3.6
		c4.9-1.7,10.2-2.5,14.5,1.3c2.9,2.6,5.5,5.8,7.7,9.2c5.7,9,9.4,19,11,29.8c0.2,1.1,0.4,2.1,0.6,3.4c1.9-1,3.9-1.8,5.6-2.9
		c2.6-1.7,5.5-2.4,8.1-1.5c3.9,1.3,7.8,3.2,10.4,6.8c2.5,3.4,4.7,7,6.5,10.9c4.1,8.9,6.3,18.5,8.2,28.3c3.6,18.5,2.7,37.2,2.8,55.9
		c0.2,41.3,0.1,82.6-0.3,123.9c-0.2,20.6-1.2,41.3-2.1,61.9c-0.7,14.6-1.6,29.3-2.8,43.8c-1.2,13.9-2.7,27.8-4.4,41.6
		c-1.1,8.7-2.5,17.4-4,26c-0.5,2.7-1.5,5.3-2.4,8c-0.9,2.7-3.1,4.2-5.2,5.5c-0.7,0.4-2.2,0-3-0.6c-4.6-3.7-6.3-9.2-6.8-14.9
		c-0.5-4.9,0-9.9,0.5-14.8c1.5-14.1,3.6-28.2,5-42.3c1.5-16,2.8-32.1,3.7-48.2c1.1-21.5,2-43,2.3-64.5c0.5-36.8,0.6-73.6,0.7-110.4
		c0-14.2-0.4-28.4-0.6-42.6c-0.1-7.8-1.3-15.4-4-22.6c-0.9-2.5-2.5-5-4.3-6.9c-2-2.1-4.7-0.9-6.1,1c-4.2,5.9-6,12.6-6,20
		c-0.2,14.7-0.3,29.3-0.6,44c-0.1,4.3-0.5,8.8-1.4,13c-0.6,2.8-2.1,5.5-3.7,7.8c-2.7,3.9-6.5,2.5-9-0.9c-4.2-5.9-4-12.8-4.1-19.6
		c-0.4-23.7-0.3-47.3-0.6-71c-0.1-7.5-0.5-15-1-22.5c-0.2-3.6-1.6-6.9-3.7-9.7c-3.5-4.7-8-4.4-11.5,0.5c-2.9,4.1-3.5,8.9-3.7,13.8
		c-0.4,14.5-0.6,28.9-0.8,43.4c-0.2,16.3-0.2,32.5-0.5,48.8c-0.1,5.7-1,11.3-4.1,16.2c-2.7,4.2-6.4,3.6-9.2,0.2
		c-4.2-5.1-4.7-11.3-4.7-17.6c-0.1-9.8-0.3-19.5-0.4-29.3c-0.2-27.5-0.2-55-0.4-82.5c0-6.2-0.2-12.5-1.9-18.6
		c-1.2-4.3-5.7-8.1-9.7-7.6c-1,0.1-2.1,0.7-2.8,1.5c-4.4,4.3-5,10.1-5.2,15.9c-0.4,16.8-0.6,33.6-0.8,50.4
		c-0.2,20.2-0.2,40.5-0.5,60.7c-0.1,4.7-0.9,9.3-1.7,13.9c-0.7,3.6-3.3,6-6,8.1c-1,0.8-3.8-0.7-5.3-1.8c-3.6-2.7-3.7-6.8-3.9-10.7
		c-0.5-11.5-1.1-23-1.1-34.5c-0.4-77.4-0.6-154.8-0.9-232.2c0-1.8-0.2-3.7-0.9-5.2c-1.6-3.6-2.7-7.6-6-10c-2.7-2.1-4.9-2-7.4,0.5
		c-2.7,2.6-3.9,6-4.1,9.9c-1.9,27.5-1.4,55.1-1.5,82.7c-0.3,99.7-0.5,199.3-0.8,299c0,1.3-0.5,2.7-1.1,3.9c-1.3,2.6-2.6,5.2-4.4,7.5
		c-3,3.8-7,1.6-8.9-1.5c-3.3-5.5-4.2-12-5.8-18.1c-2.3-8.5-4.4-17-6.6-25.5c-4-15.6-7.8-31.3-11.9-46.8c-2.7-10.2-5.6-20.4-8.5-30.6
		c-0.7-2.4-1.5-4.6-2.3-7c-0.7-2.2-2.1-3.8-4.3-4c-2.3-0.2-3.6,1.7-4.7,3.5c-2,3.2-2.5,6.7-2.4,10.5c0.2,13.6,0.9,27.2,3.3,40.7
		c3,16.9,5.8,33.9,9,50.8c3.3,17.3,6.7,34.6,10.3,51.9c2.6,12.7,5.4,25.3,8.5,37.8c3.9,15.8,8,31.5,12.3,47.1
		c2.2,7.9,4.8,15.7,7.4,23.5c2.7,8.2,5.9,16.1,8.4,24.4c2.9,9.8,2.8,19.7-1.8,29.1c-0.7,1.4-2.1,2.3-3.1,3.5
		c-0.2,0.2-0.4,0.5-0.6,0.8C79.9,728.5,78.7,728.5,77.4,728.5z"/>
	<path d="M106.1,38.3c0,7.5-0.1,14.9,0.1,22.4c0,1.5-0.9,2.9-2.5,4.2c-0.8,0.6-1.6,1.3-2.4,1.9c-1,0.8-2.5,0.9-4.7,0.8
		c-4.8-0.3-6-1.8-7.8-3.1c-1.3-0.9-1.2-1.9-1.2-2.9c-0.1-14.1-0.2-28.2-0.2-42.3c0-2,0.3-3.9,0.7-5.9c0.3-1.5,1.9-2.7,4.1-3.9
		c2.9-1.5,7-0.9,9.7,0.2c3.4,1.4,3.4,3.3,3.5,5c0.5,7.9,0.7,15.8,1.1,23.7C106.2,38.3,106.2,38.3,106.1,38.3z"/>
	<path d="M56.8,86.2c-0.5,0-0.7,0-1,0C54,86.3,53,86,52.3,85c-2.2-2.7-4.7-5.3-7-7.9c-5-5.6-10-11.2-15-16.9
		c-3.6-4-7.1-8.1-10.5-12.2c-2.4-2.8-4.6-5.7-6.6-8.6c-1.6-2.3-1.5-4.8-0.9-7.2c0.7-2.7,1.8-5.2,5.4-7.3c1.7-1,5-1,6.5,0
		c5.5,4,8.9,8.6,13,13c2.5,2.7,5.1,5.5,7.5,8.2c5.7,6.5,11.4,13,17,19.6c1.9,2.3,3.4,4.7,4.9,7.1c1.7,2.8,0.9,5.6-0.8,8.4
		c-0.9,1.4-1.9,2.8-4,3.9C60.1,86.2,58.4,86.1,56.8,86.2z"/>
	<path d="M35,135.5c-5.7,0-11.4,0.1-17.1,0c-2.5,0-4.9-0.4-7.4-0.6c-1.3-0.1-1.8-0.7-2.2-1.3c-2.8-3.9-3.1-7.9-0.8-11.9
		c0.4-0.7,1-1.3,1.6-1.9c1-1,2.7-1.2,4.4-1.3c5.1-0.2,10.2-0.4,15.4-0.4c5.8-0.1,11.5,0,17.3,0.1c2.3,0,4.6,0.3,6.8,0.7
		c0.8,0.1,1.6,0.6,2.1,1.1c1.5,1.4,2.4,2.9,2.6,4.5c0.2,1.7,0.2,3.4,0.1,5.1c-0.1,2.1-1.7,3.8-3.3,5.6c-0.2,0.2-0.9,0.3-1.3,0.3
		C47.1,135.5,41,135.5,35,135.5C35,135.5,35,135.5,35,135.5z"/>
	<path d="M180.5,28.3c0.5,2.3-1.3,4.7-3.2,7.1c-3.2,3.9-6.6,7.8-10,11.6c-3.6,4.2-7.3,8.3-11,12.5c-3.8,4.2-7.5,8.5-11.4,12.7
		c-2.2,2.3-4,4.8-7.4,6.7c-1.1,0.6-3.5,0.6-4.9,0.2c-5.9-2.1-6.8-5.3-7.2-8.6c-0.5-3.5,1-6.7,3.9-9.9c5.7-6.3,11-12.7,16.5-19
		c2.9-3.3,5.8-6.6,8.8-9.8c3.7-4.1,7.5-8.1,11.3-12.1c0.7-0.7,1.6-1.5,2.8-2c2-0.7,5-0.1,6.6,1C179.6,21.3,180.4,24.5,180.5,28.3z"
		/>
	<path d="M173.9,114.9c6.7,0,13.5,0,20.2,0c1.4,0,3,0.1,4.3,0.4c1.1,0.3,2.2,0.9,2.6,1.6c3.1,4.5,3.8,9-0.2,13.6
		c-1.5,1.7-3,2.2-6.3,2.2c-5.7-0.1-11.4,0-17.2,0c-3.5,0-7,0.2-10.4,0.2c-3.8,0-7.6-0.1-11.3-0.3c-2.9-0.2-5.4-0.9-6.5-2.6
		c-2.4-3.6-3.2-7.3-0.9-11c0.8-1.3,1.9-2.5,3-3.7c0.2-0.2,1.1-0.4,1.7-0.4C159.9,114.8,166.9,114.8,173.9,114.9
		C173.9,114.8,173.9,114.8,173.9,114.9z"/>
</g>
</svg>
