<?xml version="1.0" encoding="utf-8"?>
<!-- Generator: Adobe Illustrator 22.0.1, SVG Export Plug-In . SVG Version: 6.00 Build 0)  -->
<svg version="1.1" id="Layer_2" xmlns="http://www.w3.org/2000/svg" xmlns:xlink="http://www.w3.org/1999/xlink" x="0px" y="0px"
	 viewBox="0 0 247.1 731" style="enable-background:new 0 0 247.1 731;" xml:space="preserve">
<style type="text/css">
	.Arched_x0020_Green{fill:url(#SVGID_1_);stroke:#FFFFFF;stroke-width:0.25;stroke-miterlimit:1;}
</style>
<linearGradient id="SVGID_1_" gradientUnits="userSpaceOnUse" x1="-104.0635" y1="555.7067" x2="-103.3564" y2="554.9996">
	<stop  offset="0" style="stop-color:#1DA238"/>
	<stop  offset="0.9831" style="stop-color:#24391D"/>
</linearGradient>
<path d="M142.9,520.8c-2.8,4.4-5.4,8.6-8.1,12.5c-4.6,6.8-9.6,12.5-15,16.9c-6.3,5.1-12.8,7.9-19.6,9.3c-5.3,1.1-10.4-0.1-15.5-1.8
	c-6.4-2.2-12.6-7-18.4-13.5c-4.4-4.9-8.5-10.3-12.4-16.5c-6-9.5-11-20.6-15.7-32.5c-5.4-13.7-9.9-28.4-13.8-43.9
	c-4.9-19.8-9-40.3-11.5-61.8C10.7,370.9,8.7,352,7.5,333c-1.2-18.7-1.7-37.7-1.6-56.5c0.1-41,3.3-81.1,9.7-120.2
	c4.7-28.8,11.2-55.9,20.1-80.7c4.6-12.9,10-24.6,16-35.2c5.1-9,10.7-16.5,16.7-22.6c4.6-4.6,9.5-8,14.7-10.3C91,4,99,4.6,106.9,6.4
	c4,0.9,7.9,3.5,11.6,6.6c4.3,3.5,8.4,7.9,12.4,12.7c5.2,6.3,10,13.6,14.1,22.5c3.9,8.4,7.8,16.9,11.2,26
	c10.1,27.1,16.9,57.4,21.8,89.5c3.1,20.4,5.3,41.1,6.7,62.1c1.7,26.2,2.2,52.5,1.5,78.8c-0.5,20.2-1.7,40.2-3.7,60.1
	c-2,20.2-4.8,39.9-8.5,59.1c-0.5,2.8-0.7,5.3,0.2,7.9c7.7,22.8,15.3,45.6,23,68.3c8.2,24.3,16.4,48.5,24.6,72.8
	c4.5,13.5,9,27,13.4,40.6c3.2,9.8,4.6,20.8,5.4,32.1c1.2,17.9,0,35.2-3.7,51.8c-2.2,9.9-5.4,18.6-10.2,23.9c-4.6,5-9.4,4.9-14.1-0.2
	c-4.6-5.1-7.2-13.7-10-21.9c-4.1-12.1-8.1-24.4-12.2-36.6c-9.7-29.1-19.5-58.1-29.2-87.1C155,557.4,149,539.2,142.9,520.8z
	 M150.9,282.2c-0.7-14-1.2-28-2.3-41.9c-1.6-22.3-5.2-43.5-10.5-63.5c-3.7-13.8-8.1-26.6-14-37.1c-3.1-5.4-6.5-10-9.9-14.6
	c-3.6-4.9-7.8-7.2-12-8.6c-6.4-2.1-12.7-0.8-18.8,3.7c-4.2,3-7.9,7.4-11.3,12.7c-8,12.5-13.9,28.4-18.4,46.3
	c-7.5,29.4-11,60.8-11.6,93.5c-0.6,31.5,1.6,62.2,7.1,91.9c3.2,17.1,7.4,33.1,13.1,47.3c4.2,10.4,9.1,19.4,15,26.3
	c4,4.7,8.2,8,12.7,9.5c6.3,2.2,12.6,1,18.8-3.5c6-4.4,11-11.2,15.5-19.6c8.9-16.5,14.7-37,18.9-59.2
	C148.2,338.6,150.5,310.8,150.9,282.2z"/>
</svg>
