<?xml version="1.0" encoding="utf-8"?>
<!-- Generator: Adobe Illustrator 22.0.1, SVG Export Plug-In . SVG Version: 6.00 Build 0)  -->
<svg version="1.1" id="Layer_2" xmlns="http://www.w3.org/2000/svg" xmlns:xlink="http://www.w3.org/1999/xlink" x="0px" y="0px"
	 viewBox="0 0 254.1 731" style="enable-background:new 0 0 254.1 731;" xml:space="preserve">
<style type="text/css">
	.Arched_x0020_Green{fill:url(#SVGID_1_);stroke:#FFFFFF;stroke-width:0.25;stroke-miterlimit:1;}
</style>
<linearGradient id="SVGID_1_" gradientUnits="userSpaceOnUse" x1="-104.0635" y1="555.7067" x2="-103.3564" y2="554.9996">
	<stop  offset="0" style="stop-color:#1DA238"/>
	<stop  offset="0.9831" style="stop-color:#24391D"/>
</linearGradient>
<path d="M66.5,282.5c10.1-31.3,33.6-40.5,58-15.5c5.7-37.6,13.2-74.8,16.3-112.3c1.5-17.5-5.5-35.8-8.7-53.8
	c-4.4-25.2-1.6-48.5,15-68.3c1.2-1.4,2.3-3.8,3.6-3.9c13-0.8,19.3-12.7,28.6-19.6c10.3-7.7,23.6-2.7,32.1,11
	c13.2,21.5,13.8,45.1,10.4,69.5c-2.6,18.9-7.5,37.9-7.1,56.7c0.4,21.9,4.9,43.9,8.7,65.6c6.1,35.7,13.1,71.3,19.5,106.9
	c0.7,4.1,0.6,8.4,0.7,12.6c0.7,57.9,1.3,115.9,2,173.8c0,3.1-0.3,6.3,0.5,9.2c11.4,43.7-6.5,81.5-21.1,119.6
	c-9.1,23.8-23,44.6-40.8,62c-12.2,11.9-26.3,20.1-42.1,24.6c-6.6,1.9-13.4,3.9-20.2,4.5c-36.4,3.1-60.1-17.6-76.7-50.1
	c-19.7-38.8-27.2-81.5-32.8-124.8C2.2,472.4,6.9,394.1,6.2,315.9c-0.1-7.4,2-15.2,4.6-22.2c4.3-11.4,11.2-18.8,24.4-18.3
	C58,276.2,58,275.5,66.5,282.5z M149.7,193.7c-0.9-0.1-1.7-0.2-2.6-0.3c-1.4,8.8-2.9,17.5-4.3,26.3c-7.4,45.3-14.2,90.5-12.2,137
	c1.3,29.9,0.5,59.9,0.1,89.8c-0.2,14.4-2.9,30.4-16.4,35.3c-11.1,4-25.4,6.3-36-4c-5.4-5.3-8.5-13.4-11.8-18.9c-16.2,0-32.6,0-50,0
	c2.3,29.2,3.6,56.8,6.7,84.2c4.8,41.4,12.1,82.2,31.2,119.2c9.7,18.9,23.2,35.5,42.8,39.6c38.1,7.9,70.4-6.7,95.2-39
	c22.6-29.5,35.2-64.2,43.4-101.1c2.7-12.1,2.9-23.7,0.1-36c-13.4-60.9-25.9-122.1-39.2-183.1c-3.8-17.4-8.7-34.5-14.3-51.3
	c-1.5-4.6-7.5-9.2-12.1-10c-3-0.6-8.6,4.7-10.4,8.7c-15.3,34.1-20.3,70.2-12.4,107.2c7.6,35.3,17.3,70.1,25.8,105.1
	c1.8,7.2,3.1,14.9-5.2,21.8c-1.8-4.2-3.5-7.3-4.4-10.6c-5.1-19.9-10.2-39.7-14.9-59.7c-7.9-33.7-18.8-66.8-15.4-102.5
	c3-31.3,7.3-61.9,26.6-87.4c1.6-2.1,1.6-6.4,1.1-9.3C157.5,234.2,153.5,214,149.7,193.7z M231.4,446.1c0.5-0.1,0.9-0.2,1.4-0.3
	c0-36.3,0.1-72.6-0.1-108.9c-0.1-8-0.9-16.1-2.4-23.9c-13.1-72.9-26.3-145.8-39.7-218.6c-2.4-13-5-26.2-9.3-38.5
	c-4.1-11.6-14.2-14-24.4-7.9c-10.4,6.3-17.2,22.9-14.5,37.4c10.4,56.3,20.9,112.5,31.6,168.7c0.6,3,2.4,5.9,4.3,8.4
	c5.3,7.1,13.5,13.1,15.8,21.2c7.8,26.8,13.8,54.3,19.9,81.6C220.1,392.1,225.6,419.2,231.4,446.1z M120.6,372.5
	c0-11.9,0.1-23.7,0-35.6c-0.1-14.2,0.7-28.4-0.7-42.5c-1.7-17.6-7.5-21.4-26.2-20.5c-10.8,0.5-15.9,6.3-16,22
	c-0.4,49-0.5,98-0.1,147c0.2,17.5,7.2,22.3,27.3,21.6c10.9-0.4,15.6-7.1,15.6-23.2C120.6,418.4,120.6,395.4,120.6,372.5z
	 M66.1,371.3c-0.1,0-0.2,0-0.2,0c0-18.8,0.5-37.5-0.2-56.3c-0.6-15.8-3.8-18.4-18.1-18.4c-4.2,0-8.5,0-12.7,0
	c-12.6,0.1-15.7,2.6-16.5,16.5c-0.8,14.1-0.5,28.3-0.5,42.5c0,23-0.2,45.9,0.2,68.9c0.3,13.4,4.8,17.7,16.3,17.8
	c4.6,0,9.2-0.5,13.8,0.1c15.2,2,17.5-5.8,17.9-19.3C66.4,405.7,66.1,388.5,66.1,371.3z M179.1,28.6c22.6,23.3,17.6,56.2,27.8,85.7
	c1.5-11.3,3-20.3,3.8-29.4c0.8-9.1,1.7-18.3,1.1-27.4C210.4,35.1,198.4,23.6,179.1,28.6z"/>
</svg>
