<?xml version="1.0" encoding="utf-8"?>
<!-- Generator: Adobe Illustrator 22.0.1, SVG Export Plug-In . SVG Version: 6.00 Build 0)  -->
<svg version="1.1" id="Layer_2" xmlns="http://www.w3.org/2000/svg" xmlns:xlink="http://www.w3.org/1999/xlink" x="0px" y="0px"
	 viewBox="0 0 325.1 731" style="enable-background:new 0 0 325.1 731;" xml:space="preserve">
<style type="text/css">
	.Arched_x0020_Green{fill:url(#SVGID_1_);stroke:#FFFFFF;stroke-width:0.25;stroke-miterlimit:1;}
</style>
<linearGradient id="SVGID_1_" gradientUnits="userSpaceOnUse" x1="-104.0635" y1="555.7067" x2="-103.3564" y2="554.9996">
	<stop  offset="0" style="stop-color:#1DA238"/>
	<stop  offset="0.9831" style="stop-color:#24391D"/>
</linearGradient>
<g>
	<path d="M321.1,365.7c-1.3,24.2-2,48.4-3.9,72.4c-2.5,31.2-7.3,62.1-14.3,92.6c-5.1,22.3-11.2,44.2-19.1,65.6
		c-6.8,18.4-14.2,36.5-24.3,53.3c-5.9,9.7-11.9,19.5-18.6,28.7c-6.6,9.1-13.8,17.7-23,24.4c-5.1,3.7-9.9,7.8-15.3,11.1
		c-4.3,2.7-9.3,4.2-13.8,6.6c-11.8,6.5-24.7,5.1-37.2,4.4c-4.9-0.3-10.3-1-14.8-4.3c-2.7-2-6.8-2-9.7-3.9c-7.2-4.7-14.2-9.7-21-15.1
		c-8.2-6.5-15.1-14.4-21.1-23c-6-8.5-12.1-16.9-17.4-25.8c-5.1-8.6-9.5-17.7-13.6-26.8c-4.6-10.2-9.2-20.6-12.8-31.2
		c-5.7-17-11.3-34.2-15.5-51.6c-5-20.5-8.8-41.3-12.3-62.1C10.8,466.7,9,452,8.1,437.3c-1.5-24-2.8-48-2.8-72
		c0-22.7,0.7-45.5,2.8-68.1c2.3-25.1,5.9-50.2,9.9-75.1c3.8-23.1,9.8-45.8,16.9-68.1c6-19,12.9-37.7,21.8-55.4
		c5.6-11.3,11.8-22.4,18.7-33c6-9.3,12.9-18,20.1-26.4c5-5.8,11.1-10.7,17.1-15.5c6.1-4.9,12.9-8.5,20-11.9c8-3.9,16.3-5.7,25-6
		c3.7-0.1,7.6-0.5,11.2,0.1c7.3,1.1,14.9,1.9,21.8,4.5c7,2.6,13.6,6.7,19.6,11.2c6.8,5.1,13.2,11,19.1,17.2
		C243,53.3,253.8,70,263.1,87.7c7.6,14.4,14.5,29.1,19.7,44.5c6.2,18.5,12.2,37.1,16.9,56c4.8,18.9,8.4,38,11.6,57.2
		c2.8,16.9,4.7,34,6,51.1C319.1,319.6,319.9,342.6,321.1,365.7z M298.2,365.7c-1-19.4-1.4-38.9-3.3-58.2
		c-2.1-21.5-5.1-42.9-8.6-64.3c-3.7-23.1-9.9-45.7-17.6-67.9c-5.4-15.7-11.8-31-19.5-45.8c-8.3-16-18-30.8-30.2-44
		c-7.4-8-15.9-14.6-25.4-20c-6.9-3.9-14.2-6.5-22.1-7c-0.6,0-1.3,0-1.7-0.3c-4.1-3-8.8-1.4-13.1-1.1c-3.8,0.2-7.5,2.3-11.3,2.9
		c-7.1,1.1-13.2,4.7-19,8.5c-8.3,5.5-16.2,11.8-22.5,19.7c-5.7,7.2-12.1,14-16.7,21.9c-7.3,12.2-13.7,25-19.8,37.9
		c-8.1,17-13.7,34.9-18.8,53c-6,21.5-10.8,43.3-13.6,65.4c-2.4,18.7-4.9,37.4-5.9,56.1c-1.2,20.8-1.1,41.7-0.9,62.5
		c0.1,14.2,1,28.5,2.3,42.7c2.1,23.7,5.2,47.2,10.5,70.4c3.8,16.6,8.3,33.1,13.1,49.5c3.4,11.2,7.4,22.3,12.1,33.1
		c4.9,11.2,10.7,22,16.6,32.7c3.6,6.5,8.3,12.5,12.5,18.7c6.7,10.3,15.4,18.6,25,26c5.7,4.4,11.9,8.4,18.6,11
		c6.4,2.5,13.5,3.4,20.4,4.3c3.9,0.5,8-0.6,12-0.9c5.9-0.4,11.3-2.2,16.8-4.7c6.8-3.1,12.8-7,18.6-11.5c9.1-7,16.5-15.4,23.5-24.4
		c8.5-11,15.3-23,21.5-35.5c10.3-20.9,18.1-42.8,24.5-65.2c6.8-24.1,11.6-48.6,15.1-73.4C295.6,427.2,297.6,396.5,298.2,365.7z"/>
	<path d="M161.9,596.5c-7.1,0.9-14.5-0.9-21.1-4.4c-6.4-3.3-12.8-7-17.5-12.9c-2.3-2.9-5.2-5.3-7.8-7.9
		c-7.8-8.1-13.8-17.7-18.9-27.5c-5.4-10.2-10.1-20.9-13.9-31.7c-5.1-14.6-9.6-29.5-13.2-44.6c-3.3-14-5.4-28.3-7.5-42.6
		c-1.5-10.1-1-20.1,4.3-29.4c1.5-2.7,3.4-4.2,6.4-4.2c3.1,0,5,1.6,6.5,4.1c4.6,7.5,4.6,16.1,5.9,24.4c3.9,24.7,10,48.8,20.2,71.6
		c4.4,9.9,9.6,19.5,16.4,28.2c5.4,6.8,11.1,13,18.4,17.9c7.4,4.9,15,8.3,23.9,7.9c7.7-0.4,14.9-2.9,21-7.9c3.6-3,7.6-5.5,11-8.7
		c7.6-7.3,13.6-15.9,18.2-25.3c5.3-10.8,10.4-21.8,14-33.3c4.6-14.7,7.8-29.9,11.2-44.9c1.8-7.9,2.6-16,4.3-23.9
		c0.6-2.6,2.2-5.1,3.6-7.4c2.6-4.1,9.2-3.6,11.8,0.9c4.1,7.3,5.8,15.2,4.9,23.3c-1.5,13.4-3.2,26.9-6,40c-3.2,14.8-7.1,29.6-11.8,44
		c-3.7,11.5-9,22.6-13.7,33.8c-4.8,11.6-12.2,21.7-19.3,31.9c-1.9,2.8-4.2,5.3-6.8,7.6c-6.1,5.4-11.9,10.9-19.1,15
		C179.3,594.8,171.3,596.8,161.9,596.5z"/>
	<path d="M140.1,262.5c0.3,16.9-1.2,33.6-5.1,50.1c-2,8.4-4.8,16.4-9.8,23.5c-3.6,5.1-11.6,4.9-15.2-0.3
		c-5.8-8.3-8.6-17.7-10.7-27.4c-4.5-21.6-5.1-43.4-3.5-65.4c1-14.3,2.8-28.5,8.2-42c1.9-4.9,5-9.5,8-13.9c2-2.9,9.5-2.2,12,0.8
		c8.6,10.2,11.2,22.7,13.1,35.1c2,13,2.7,26.2,3.9,39.3C140.7,262.4,140.4,262.5,140.1,262.5z"/>
	<path d="M230.2,262.2c0.4,17.1-1.2,34.1-5.2,50.8c-2,8.3-4.8,16.2-9.8,23.2c-3.6,5-11.6,4.8-15.2-0.4c-5.8-8.3-8.6-17.7-10.6-27.4
		c-4.5-21.6-5-43.4-3.5-65.4c1-14.3,2.9-28.5,8.2-42c1.9-4.9,5-9.5,8.1-13.8c2.3-3.2,9.1-2.1,11.9,1c8.8,9.9,11.2,22.4,13.2,34.7
		c2.1,13,2.7,26.2,4,39.3C230.8,262.2,230.5,262.2,230.2,262.2z"/>
</g>
</svg>
