<?xml version="1.0" encoding="utf-8"?>
<!-- Generator: Adobe Illustrator 22.0.1, SVG Export Plug-In . SVG Version: 6.00 Build 0)  -->
<svg version="1.1" id="Layer_2" xmlns="http://www.w3.org/2000/svg" xmlns:xlink="http://www.w3.org/1999/xlink" x="0px" y="0px"
	 viewBox="0 0 227.1 731" style="enable-background:new 0 0 227.1 731;" xml:space="preserve">
<style type="text/css">
	.Arched_x0020_Green{fill:url(#SVGID_1_);stroke:#FFFFFF;stroke-width:0.25;stroke-miterlimit:1;}
</style>
<linearGradient id="SVGID_1_" gradientUnits="userSpaceOnUse" x1="-104.0635" y1="555.7067" x2="-103.3564" y2="554.9996">
	<stop  offset="0" style="stop-color:#1DA238"/>
	<stop  offset="0.9831" style="stop-color:#24391D"/>
</linearGradient>
<path d="M41.5,369.9c0.1-57.6,3.7-114.5,12.6-169.8c5.3-32.8,12.5-64.2,23.8-91.5C83.4,95.4,90.2,84.5,98.5,76
	c9.4-9.6,18.4-10.1,27.7-4.2c5,3.2,9.6,9.5,13.6,16c7.2,11.8,13.1,25.7,18.1,41.4c11.2,35.3,17.8,73.5,22.2,113.2
	c6.9,61.5,8.4,123.5,5.3,186.1c-2.3,47.1-7.1,93.2-16.4,137.3c-5.3,25.2-11.7,49.3-21.6,69.7c-5.8,12-12,22.8-20.2,28.9
	c-10.9,8.2-25.6,3.6-34.9-9.5C70,623.4,60.8,577.7,53.1,530.7C44.6,478.4,41.7,424.4,41.5,369.9z M176.4,365.7
	c0.2-35.6-2.5-84.9-9.6-133.1c-4.9-32.7-11.8-64-23.6-90.2c-7.3-16.1-16.3-28.9-28.8-28.9c-12.6-0.1-21.5,12.5-28.9,28.6
	c-12,26.4-19,58-23.8,91c-10,69.4-11.9,139.9-6.6,211.1c2.9,39.1,8,77,17.2,112.9c4.5,17.6,10,34.1,17.6,47.1
	c6.5,11.2,14.1,21,23.8,21.4c6.6,0.3,12.1-4.8,17.5-11.1c13.9-16.1,21.7-41.3,27.7-67.9C171,493.6,175.5,437.3,176.4,365.7z"/>
<path d="M18.9,339.6c2.9,0,5.7,0.1,8.5,0c2.5-0.2,4.1,1.3,4.8,4c1.3,4.7,1.5,9.4-0.6,14.1c-1,2.3-2.4,3.2-4.3,3.2
	c-5.3,0-10.7,0-16,0C8,360.9,6,359,5.5,354c-0.4-3.3-0.1-6.9,0.5-10.2c0.5-2.7,2.1-4.4,4.7-4.2C13.4,339.8,16.2,339.6,18.9,339.6z"
	/>
<path d="M207.8,360.9c-2.4,0-4.8-0.2-7.3,0c-4.7,0.4-6.1-1.6-7.1-7.5c-0.5-2.9-0.1-6.2,0.5-9.2c0.5-2.8,2.2-4.6,5-4.5
	c6,0.1,12,0.1,18,0c2.5-0.1,4.1,1.4,4.8,4c1.3,4.7,1.5,9.4-0.6,14c-1,2.3-2.5,3.3-4.5,3.2C213.6,360.9,210.7,360.9,207.8,360.9z"/>
<path d="M46.7,85.2c-0.5,3.5-0.5,6.7-1.6,9.5c-0.8,2.2-2.9,5.4-4.4,5.3c-2,0-4.8-2.3-5.8-4.4c-3.4-6.9-6.1-14.2-9-21.3
	C20.4,61.2,14.9,48,9.7,34.8C6.5,26.6,5.6,18,8.6,9.5c0.6-1.7,2.6-3.8,3.9-3.8c1.8,0,4.5,1.3,5.2,2.9c6.4,14.6,12.5,29.4,18.5,44.2
	c3,7.3,5.9,14.7,8.5,22.2C45.9,78.3,46.1,82,46.7,85.2z"/>
<path d="M47.6,634.5c-2.8,9.3-5.2,18.8-8.5,27.8c-7,19.8-14.4,39.3-21.9,58.9c-0.8,2-2.8,3.4-4.2,5c-1.3-1.8-3.1-3.4-4-5.5
	c-3.8-9.2-2.8-18.8,0.2-27.6c7.4-21.8,15.5-43.2,23.4-64.7c1-2.8,1.8-5.8,3.2-8.2c1.2-1.9,3.4-4.2,4.9-3.9c1.6,0.3,3.5,3.1,4.1,5.4
	c1.1,3.8,1.3,8,1.8,12.1C47,634.1,47.3,634.3,47.6,634.5z"/>
<path d="M180.4,633.1c1.5-4.8,2.7-9.5,4.3-14.1c1.5-4.2,3.8-4.3,5.5-0.3c3.4,7.6,6.8,15.3,9.7,23.2c5.4,14.6,10.4,29.4,15.8,44
	c3.6,9.7,6,19.6,4.4,30.4c-0.6,3.7-1,8-5.1,8.7c-3.5,0.6-5.1-2.3-6.3-5.6c-4.9-13.4-9.6-26.7-14.4-40.1c-3.4-9.5-6.9-18.9-10-28.5
	C182.7,645.2,181.8,639.4,180.4,633.1z"/>
<path d="M180.7,85.8c0.2-10.8,5.5-19.4,9-28.6c5.4-14.1,11.4-28,17.3-41.9c1.2-2.9,2.8-5.6,4.4-8.3c1.7-2.9,4.7-2.6,6.3,0.4
	c4.4,7.9,4.1,16.6,1.2,24.5c-5.2,14.4-11.5,28.3-17.3,42.5c-2.5,6.2-4.9,12.4-7.5,18.6c-0.8,1.9-1.9,3.8-3.1,5.4
	c-2.1,2.7-6,2.4-7.2-0.8C182.3,93.8,181.6,89.7,180.7,85.8z"/>
</svg>
