<?xml version="1.0" encoding="utf-8"?>
<!-- Generator: Adobe Illustrator 22.0.1, SVG Export Plug-In . SVG Version: 6.00 Build 0)  -->
<svg version="1.1" id="Layer_2" xmlns="http://www.w3.org/2000/svg" xmlns:xlink="http://www.w3.org/1999/xlink" x="0px" y="0px"
	 viewBox="0 0 274.1 731" style="enable-background:new 0 0 274.1 731;" xml:space="preserve">
<style type="text/css">
	.Arched_x0020_Green{fill:url(#SVGID_1_);stroke:#FFFFFF;stroke-width:0.25;stroke-miterlimit:1;}
</style>
<linearGradient id="SVGID_1_" gradientUnits="userSpaceOnUse" x1="-104.0635" y1="555.7067" x2="-103.3564" y2="554.9996">
	<stop  offset="0" style="stop-color:#1DA238"/>
	<stop  offset="0.9831" style="stop-color:#24391D"/>
</linearGradient>
<g>
	<path d="M137.8,119.6c0.9,0.9,2.7,4.3,4.5,4.2c7.6-0.1,12.2,6.5,17.1,15c6,10.4,11.2,21.5,14.8,34.1c6.1,21.2,12.6,42.2,17.2,64.3
		c5.7,27.4,10.5,55.4,14,83.7c5.6,45.9,10.6,92.1,14.6,138.4c7.1,82.7,9.7,166,11,249.5c0,1.3,0.2,2.6,0.3,5.1c11.8,0,23.5,0,35.2,0
		c-49.4,16-236.3,14.8-258.7,0.8c11.6,0,23.4,0,35.8,0c0.3-10.2,0.6-19.4,0.9-28.6c2.2-59.1,3-118.4,7-177.1c4-60,10-119.8,17.2-179
		c4.7-38.9,12.9-76.8,20-114.9c4.2-22.2,10.5-43.1,19-61.9c4.6-10.1,10.4-18.9,16.1-27.4c1.4-2.2,4.9-0.6,7.3-1.6
		C133.3,123.3,135.4,121.3,137.8,119.6z M217,713.9c0-3,0.1-5,0-6.9c-2.3-58-3.9-116.1-7.2-174c-2.3-40.4-6.7-80.5-11.1-120.4
		c-4.2-37.8-10.1-74.9-18.2-111.2c-5.8-26.2-13.7-50.3-23.8-72.8c-1.9-4.2-5.2-9-8.1-9.5c-7.6-1.3-15.4-0.5-23.1-0.3
		c-0.7,0-1.7,0.9-2,1.8c-3.1,8.6-8.3,14.2-11.9,22.5c-6.6,15.1-11.8,31-15.2,47.8c-7,34.1-13.2,68.7-18.3,103.6
		c-4.4,30.1-7.4,60.8-10,91.4c-2.8,32.5-5,65.1-6.4,97.8c-1.9,42.4-2.9,85-4.2,127.5c0,0.8,0.5,1.7,0.8,2.6
		C111.1,713.9,163.6,713.9,217,713.9z"/>
	<path d="M208.8,210.7c-10-12.3-2.5-24,4.5-35.8c8.4-14.1,16.4-28.2,24.6-42.2c1.2-2.1,3.2-4.2,4.9-6.2c0.3-0.3,1.8-0.7,2-0.7
		c1,0.3,2.3,0.7,2.7,1.1c7.8,8,7.7,16.2,3.3,24.3c-10,18.5-21.2,36.9-32,55.4C216.2,211.2,216.1,211.2,208.8,210.7z"/>
	<path d="M141.1,100.4c-3,0-4.6,0-8,0c-0.9-4.7-2.6-9.4-2.6-14.1c-0.3-22.1-0.4-44.2,0.1-66.3c0.1-4.5,2.8-9,4.5-13.4
		c0.2-0.4,1.5-0.8,2.4-1.1c0.7,0.4,1.8,0.7,1.9,1.1c1.7,4.3,4.4,8.6,4.5,12.9c0.5,22.6,0.4,45.2,0.1,67.8
		C144,91.7,142.2,96,141.1,100.4z"/>
	<path d="M66.2,210.7c-5.7,0.6-8.6,0.7-10.2-2c-11-18-23-35.8-34.3-53.8c-5.1-8.1-7.1-16.3-1.4-24.5c1.1-1.6,3.7-3.1,5.5-4.6
		c2,1.5,4.7,2.9,5.7,4.5c9.7,15,18.9,30,28.5,44.9c5.3,8.3,12.3,16.5,10.2,25.3C69.4,203.9,67.6,207.3,66.2,210.7z"/>
	<path d="M42.6,489c-3.4,0-5,0-5.1,0c-3.1-1.1-5.2-1.9-7.3-2.7c-4.9-1.9-10.4-3.6-14.5-5.7c-5.5-2.8-9.9-5.9-10.2-9.8
		c-0.4-5.1-0.6-10.1,4-15.1c1.5,0,3.3-0.1,3.6-0.1c2.8,1.1,4.8,1.8,6.7,2.6c5.2,2,10.9,3.9,15.5,6c7.2,3.4,10.7,7.5,10.1,12
		C44.8,480.5,43.5,484.7,42.6,489z"/>
	<path d="M233.6,488.9c-4.8-5.3-5.6-10.8-3.7-16.2c0.9-2.5,3-4.6,7.3-6.8c5.2-2.7,13-4.5,17.2-7.5c1.2-0.9,3.9-1.5,5.2-2.6
		c1.8,0,3.6,0,5.3,0c5.4,5.7,5.2,11.5,3.4,17.3c-1,3.4-5.7,5.7-11.9,7.9c-4.3,1.5-7,3.9-11.9,4.9
		C240.2,486.7,241.3,490.1,233.6,488.9z"/>
</g>
</svg>
