<?xml version="1.0" encoding="utf-8"?>
<!-- Generator: Adobe Illustrator 22.0.1, SVG Export Plug-In . SVG Version: 6.00 Build 0)  -->
<svg version="1.1" id="Layer_2" xmlns="http://www.w3.org/2000/svg" xmlns:xlink="http://www.w3.org/1999/xlink" x="0px" y="0px"
	 viewBox="0 0 213.1 731" style="enable-background:new 0 0 213.1 731;" xml:space="preserve">
<style type="text/css">
	.Arched_x0020_Green{fill:url(#SVGID_1_);stroke:#FFFFFF;stroke-width:0.25;stroke-miterlimit:1;}
</style>
<linearGradient id="SVGID_1_" gradientUnits="userSpaceOnUse" x1="-104.0635" y1="555.7067" x2="-103.3564" y2="554.9996">
	<stop  offset="0" style="stop-color:#1DA238"/>
	<stop  offset="0.9831" style="stop-color:#24391D"/>
</linearGradient>
<path d="M101.4,6c2.3,1.2,4.6,2.2,6.9,3.5c24.2,13.3,42.2,59.8,43.4,112.2c1.4,56.3-13.7,106.3-37.9,125c-2.7,2.1-3.7,4.7-3.6,10.9
	c0.3,13.5,0.1,27.1,0.1,40.1c2.4-5.4,4.5-11.8,7.3-16c4.9-7.3,10.5-7.4,15.8-1.3c5.6,6.5,8.3,17,8.4,30.4c0.2,10.9,0,21.8,0.3,32.9
	c2.5-10.8,6-18.3,11.5-21.3c9.8-5.4,19.5,10.2,19.7,32.1c0.1,11.7,0,23.4,0.2,35.3c2.4-11.9,6.3-19.9,12.3-22.8
	c9.2-4.5,18.9,11,18.9,31.3c0.1,60,0.3,120.1-0.2,180.1c-0.1,13.7-3,27.6-5.3,40.8c-2,11.1-4.9,21.4-7.6,31.8
	c-6.2,23.6-11.6,47.7-13.6,75.1c-27.9,0-55.6,0-83.5,0c-1.3-22.5-6-41.1-12.4-58.7c-10.6-28.9-17.3-62.6-23.8-96.4
	c-6.4-33.2-12.7-66.6-19.8-99.2c-5.3-24.4-13-45.3-22.9-62.3c-5.7-9.8-9.9-21.9-9.7-38.8c0.2-14.6,5.4-26.1,12.2-26.9
	c9.1-1.1,16.8,6.9,23.8,18.1c9.8,15.4,17.4,35.4,24.5,56.3c4,11.6,7.7,23.6,12.1,37.1c0-4.4,0-7.1,0-9.8c0-62.8,0-125.7,0.1-188.5
	c0-5.6-0.7-8-3.2-10c-24.9-19.2-40-70.3-38-128.2C39.1,65,58.6,18.6,83.8,7.8c1.3-0.5,2.5-1.2,3.8-1.8C92.2,6,96.8,6,101.4,6z
	 M78.5,224.5c0-5.9-0.1-11.3,0-16.7c0.2-4.8-0.7-7.3-2.6-9.8c-13.7-17.2-20.6-51.3-17.4-83.3C62.3,76.6,78.7,51,96.1,52.2
	c18.7,1.3,35.1,35.5,35.4,75.6c0.2,31.5-6.3,55.2-18.9,71.3c-0.9,1.2-2.1,3.3-2.2,5.2c-0.3,6.5-0.1,13-0.1,19.6
	c15.7-4.6,31.6-54.5,30.9-96.3c-1-54-19.9-96.1-44.6-99.2c-22.9-2.8-44.4,34.7-48.2,83.8C44.1,168.6,61.2,212.9,78.5,224.5z
	 M78.5,174.1c0-15-0.1-28.7,0-42.4c0-4.4,0.4-8.9,1-13c2.4-14.8,9.9-24.4,16.8-22.1c8.2,2.7,13.7,15.9,13.9,34.4
	c0.2,12.4,0,24.8,0.1,37.2c0,1.9,0.2,3.8,0.3,6.2c12-19.4,13.6-56.4,3.8-80.3c-10.2-24.8-28.3-25.4-38.9-1.3
	C65.2,116.1,66.3,153.1,78.5,174.1z"/>
</svg>
