<?xml version="1.0" encoding="utf-8"?>
<!-- Generator: Adobe Illustrator 22.0.1, SVG Export Plug-In . SVG Version: 6.00 Build 0)  -->
<svg version="1.1" id="Layer_2" xmlns="http://www.w3.org/2000/svg" xmlns:xlink="http://www.w3.org/1999/xlink" x="0px" y="0px"
	 viewBox="0 0 327.1 731" style="enable-background:new 0 0 327.1 731;" xml:space="preserve">
<style type="text/css">
	.Arched_x0020_Green{fill:url(#SVGID_1_);stroke:#FFFFFF;stroke-width:0.25;stroke-miterlimit:1;}
</style>
<linearGradient id="SVGID_1_" gradientUnits="userSpaceOnUse" x1="-104.0635" y1="555.7067" x2="-103.3564" y2="554.9996">
	<stop  offset="0" style="stop-color:#1DA238"/>
	<stop  offset="0.9831" style="stop-color:#24391D"/>
</linearGradient>
<path d="M163.8,726C78.2,725.8,5.6,559.7,5.9,364.9C6.2,170.4,78.8,5.8,164.1,6c85.6,0.3,158.2,166.4,157.8,361.1
	C321.6,561.7,249.1,726.2,163.8,726z M163.8,658.8c73.3,0.1,128.6-125.9,128.6-292.9c0-166.5-55-292.2-128.1-292.7
	C91.1,72.6,35.6,198.5,35.4,365.4C35.3,532.4,90.5,658.7,163.8,658.8z"/>
<path d="M178.7,237.4c0,23.2,0.6,46.5-0.2,69.6c-0.7,22.3,3.2,35.6,11.6,45.9c15.6,19.4,30.9,40.2,46.3,60.8
	c6.6,8.9,8.9,24.8,6.4,40.3c-2.4,14.9-8.9,24.2-15.8,21.4c-2.6-1-5.2-4-7.5-7c-13.6-17.7-27.1-35.9-40.8-53.1
	c-2.1-2.7-5.5-3.1-7.9-1.4c-9,6.4-18.3-0.7-24.7-20.3c-5.7-17.5-5.6-36.3-0.3-54.7c1.9-6.6,3.2-15.2,3.3-23
	c0.3-52.2,0.1-104.5,0.2-156.7c0-7.1,0.2-14.5,1.1-21.1c2-13.6,8.6-22.5,14.8-21.2c6.4,1.4,11.8,12.3,13,26.7
	c0.4,4.8,0.5,9.8,0.5,14.6C178.7,184.7,178.7,211,178.7,237.4z"/>
</svg>
