<?xml version="1.0" encoding="utf-8"?>
<!-- Generator: Adobe Illustrator 22.0.1, SVG Export Plug-In . SVG Version: 6.00 Build 0)  -->
<svg version="1.1" id="Layer_2" xmlns="http://www.w3.org/2000/svg" xmlns:xlink="http://www.w3.org/1999/xlink" x="0px" y="0px"
	 viewBox="0 0 189.1 731" style="enable-background:new 0 0 189.1 731;" xml:space="preserve">
<style type="text/css">
	.Arched_x0020_Green{fill:url(#SVGID_1_);stroke:#FFFFFF;stroke-width:0.25;stroke-miterlimit:1;}
	.st0{clip-path:url(#SVGID_3_);}
	.st1{clip-path:url(#SVGID_5_);}
	.st2{fill:#FFFFFF;}
</style>
<linearGradient id="SVGID_1_" gradientUnits="userSpaceOnUse" x1="-99.0635" y1="555.7067" x2="-98.3564" y2="554.9996">
	<stop  offset="0" style="stop-color:#1DA238"/>
	<stop  offset="0.9831" style="stop-color:#24391D"/>
</linearGradient>
<g>
	<defs>
		<line id="SVGID_2_" x1="3" y1="731" x2="246.9" y2="731"/>
	</defs>
	<clipPath id="SVGID_3_">
		<use xlink:href="#SVGID_2_"  style="overflow:visible;"/>
	</clipPath>
	<g class="st0">
		<defs>
			<line id="SVGID_4_" x1="0.3" y1="740" x2="249.1" y2="740"/>
		</defs>
		<clipPath id="SVGID_5_">
			<use xlink:href="#SVGID_4_"  style="overflow:visible;"/>
		</clipPath>
		<g class="st1">
			<g>
				<path class="st2" d="M-54.7-42.7c120.5,0,241,0,361.6,0 M306.9,777.7c-120.5,0-241,0-361.6,0 M160.6,714.9
					c1,4.5,3.9,8.1,7.6,10.7c1.2,0.8,3.9,0.8,5.2,0c4.3-2.5,7.2-6.5,9.5-10.9 M70.9,718.8c1.8,3.2,3.4,7.1,8.1,7.4
					c5.4,0.3,8.1-3.3,10.1-7.2"/>
			</g>
		</g>
	</g>
</g>
<path d="M27.2,443.2c0-28.5-0.1-51.6,0-74.6c0.1-18.6-2.5-36.7-6-54.6c-4.1-21.6-8.2-43.2-10.4-65.3c-2.5-24.8-3.9-49.7-3.7-74.7
	c0.2-21.5,0.6-43.1,1.8-64.6C10.2,87,13.8,65,20.2,44.2c3.4-10.9,7.8-21,14.3-29.1c5.7-7,12.5-11,20.4-9.1
	c5.7,1.4,10.7,5.1,14.9,10.7C74.5,22.8,79,29.1,84,34.5c6.1,6.7,16.2,6.5,22.1-1.4C111.4,26,117,19.3,122.8,13
	c5-5.5,10.9-7.7,17.5-7.2c6.2,0.5,11,4.7,15.3,9.9c3.3,4.1,6,9.3,8.5,14.4c4.9,10,8,21.1,10.4,32.5c8,37.4,8.9,75.8,8.5,114.4
	c-0.3,25.5-1.2,50.9-4.4,76c-2.3,18-5,36-8.6,53.6c-5.6,27.6-7.4,55.5-7.2,84.1c0.3,38.6-0.6,77.3-1.5,115.9
	c-0.5,21.8-1.5,43.5-2.8,65.2c-2,33.6-4.7,67.2-10.3,100.2c-2.4,14.5-5.5,28.7-10.6,42c-1.7,4.4-3.9,8.4-7.1,11c-1,0.8-3,0.8-3.9,0
	c-2.8-2.6-4.9-6.3-5.7-10.8c-1.4-8.3-3.2-16.7-3.6-25.1c-1.1-20.3-1.4-40.7-2.4-61.1c-1.1-23.7-2.5-47.5-4.1-71.1
	c-1.5-21.2-3.1-42.4-5.4-63.5c-1.7-15.6-4.5-31.1-6.8-46.6c-0.3-1.8-0.9-3.5-1.6-5.1c-0.5-1-1.4-2.2-2.2-2.3
	c-0.6-0.1-1.7,1.3-1.9,2.3c-1.7,7.3-3.9,14.6-4.8,22.2c-2.9,25-5.8,50-7.8,75.1c-2.2,26.8-3.6,53.7-4.9,80.6
	c-1.2,23.1-1.7,46.4-2.7,69.5c-0.4,10.1-1.6,20.1-5.1,29.2c-1.5,4-3.5,7.6-7.6,7.3c-3.5-0.3-4.7-4.3-6-7.5
	c-7.7-18-11.1-37.9-14.1-58c-4.1-27.7-6.4-55.8-8.2-83.9C28.9,530.1,27.7,484,27.2,443.2z M128.9,690.8c0.7-0.8,0.9-1,1-1.3
	c4.8-10.8,7.2-22.8,9.1-34.9c4.4-27.4,6.8-55.2,8.4-83.1c1.5-27.5,3-55,3.6-82.5c0.8-35.8,1.5-71.6,1.1-107.4
	c-0.4-31.1,2.8-61.3,8.6-91.3c2.8-14.4,5.2-29,6.7-43.8c1.9-19.8,3.2-39.8,3.9-59.7c1.2-31.6,0.9-63.2-4.3-94.2
	c-3-17.7-6.6-35.2-18.2-46.9c-3.9-4-7.8-7.2-13.5-5.1c-4.4,1.6-8,4.1-11.2,8c-3.4,4-6.5,8.5-9.9,12.5c-2.3,2.7-4.8,4.9-7.2,7.4
	c-6,6.2-12.6,7.2-19.6,3.9c-5.6-2.7-9.8-8.3-13.9-13.8c-4.9-6.6-9.6-13.2-16.2-16.7c-2.1-1.1-4.4-2.4-6.6-2.4c-2,0-4.1,1.2-6,2.3
	c-5.5,3-9.3,8.7-12.3,15.2C27,68,24.1,80.5,22.1,93.3c-2.5,15.5-3.6,31.1-4.1,46.9c-0.9,29.4-0.2,58.6,2,87.9
	c1.9,25,6.5,49.2,11.2,73.4c3.6,18.6,6.2,37.4,6.5,56.7c0.6,47.2,0.8,94.5,1.7,141.7c0.4,20.9,1.4,41.9,2.8,62.8
	c1.5,22.5,3.4,45,5.6,67.3c1.8,18,4.4,35.9,9.7,52.7c0.8,2.6,2,5.1,3,7.7c0.9-2.7,1.3-5.2,1.4-7.8c0.7-18.5,1.2-37,2.2-55.4
	c1.5-29,2.9-58,4.9-87c2.2-31.6,4.9-63.1,10.4-94.1c2.1-12.2,4.4-24.5,10-35c2.1-3.9,6.4-5.3,9.3-2.5c3.7,3.6,5.5,9.1,7,14.6
	c4.7,17,7.6,34.7,9.4,52.5c3.1,31.2,6.2,62.5,8.2,93.9c2.3,37.4,3.4,75,5,112.5C128.2,684.8,128.6,687.4,128.9,690.8z"/>
</svg>
