<?xml version="1.0" encoding="utf-8"?>
<!-- Generator: Adobe Illustrator 22.0.1, SVG Export Plug-In . SVG Version: 6.00 Build 0)  -->
<svg version="1.1" id="Layer_2" xmlns="http://www.w3.org/2000/svg" xmlns:xlink="http://www.w3.org/1999/xlink" x="0px" y="0px"
	 viewBox="0 0 189.1 731" style="enable-background:new 0 0 189.1 731;" xml:space="preserve">
<style type="text/css">
	.Arched_x0020_Green{fill:url(#SVGID_1_);stroke:#FFFFFF;stroke-width:0.25;stroke-miterlimit:1;}
</style>
<linearGradient id="SVGID_1_" gradientUnits="userSpaceOnUse" x1="-104.0635" y1="555.7067" x2="-103.3564" y2="554.9996">
	<stop  offset="0" style="stop-color:#1DA238"/>
	<stop  offset="0.9831" style="stop-color:#24391D"/>
</linearGradient>
<g>
	<path d="M77.4,5.5c2,1.4,4,2.9,6.1,4.1c4.4,2.6,7.9,6.9,10.7,11.6c3.6,5.9,6.8,12.5,9.2,19.3c3.4,9.6,6.7,19.5,8.8,29.8
		c2.7,13.2,4.6,26.7,6.2,40.2c2.2,19.2,2.2,38.5,1.5,57.9c-0.7,17-17.9,46.7-17.9,38.7c0-24.3,0.1-48.6-0.2-72.9
		c-0.2-19.1-2.8-37.7-8.7-55.2c-2.9-8.5-6.5-16.2-12.9-21.5c-4.8-4-9.7-4-14.1-1.1c-5.7,3.9-9.4,11-12.3,18.6
		c-5.3,13.7-8.4,28.3-9.5,43.5c-1,13.7-1.1,27.5-1.1,41.2c-0.1,33.8-13.7,60.5-15.8,44.1c-2.9-21.8-4-43.8-3.3-65.9
		c0.6-19.6,2.3-39.1,5.9-58.2c2.6-13.8,5.9-27.3,11-40C44,32.3,47.2,25,51.7,19C55,14.7,58.3,10.3,63,8.4c1.3-0.5,2.5-1.9,3.7-2.9
		C70.3,5.5,73.8,5.5,77.4,5.5z"/>
	<path d="M52.9,386.8c0-1.3,0-2.5,0-3.8c0-81.3,0-162.5,0-243.8c0-14.6,2.1-28.9,7.2-42c1.9-4.9,4.3-9.5,8.4-12
		c3.3-1.9,10,0,12.3,3.7c7,11.2,10.1,24.5,10.7,38.5c0.8,19.7,0.7,39.5,0.8,59.2c0.1,27.1,0,54.1,0,81.2c0,0.8,0.1,1.6,0.1,2.5
		c0.4-0.1,0.8-0.1,1-0.3c3.5-7.1,12.1-7.3,16.2-1.8c2.9,4,5.1,8.6,6.6,13.8c1,3.4,1.9,6.8,2.7,10.2c0.8,3.4,1.3,6.8,1.9,10.3
		c1.9-2.2,3.7-4.3,5.5-6.4c2.7-3.2,7.9-2.9,10.5-0.1c8.5,8.7,10.8,21.4,13,34.3c0.1,0.6,0.1,1.2,0.2,1.8c0,0.3,0.2,0.6-0.3,0.2
		c1.7-1.7,3.5-3.3,5-5.2c1.8-2.3,6-3.6,8.3-2.7c6.5,2.5,9.3,9.6,11.8,16.7c4.7,13.5,6.1,28,6,42.8c-0.1,58.9,0,117.7-0.3,176.6
		c-0.1,17.9-1.8,35.7-4.3,53.3c-2.3,16-5.3,31.7-9.7,46.8c-2.9,9.8-6.5,19.3-9.9,28.9c-3.8,10.6-9.2,19.9-14.5,29.2
		c-1,1.8-2.4,3.2-3.5,4.9c-1,1.6-2.2,2.1-3.8,2.1c-18.2-0.1-36.4-0.1-54.7,0c-4.7,0-8-3.3-10.6-7.5c-8.3-13.5-12.7-29.6-16.7-45.8
		c-7-27.6-12-56-16.5-84.4c-4.4-27.9-8.7-55.9-13.1-83.8c-3.5-21.9-7.1-43.8-10.7-65.6c-1.3-7.9-3.4-15.7-4.6-23.7
		c-3.2-22.1-3-44,2.5-65.5c1.9-7.5,5.2-13.8,10-18.6c2.5-2.5,8.2-1.4,10.6,0.7c6,5.4,7.8,13.9,10.5,21.8c3.4,10.2,6.6,20.6,9.9,30.9
		c0.3,1,0.6,1.9,0.9,2.9C52.6,386.9,52.8,386.8,52.9,386.8z"/>
</g>
</svg>
