<?xml version="1.0" encoding="utf-8"?>
<!-- Generator: Adobe Illustrator 22.0.1, SVG Export Plug-In . SVG Version: 6.00 Build 0)  -->
<svg version="1.1" id="Layer_2" xmlns="http://www.w3.org/2000/svg" xmlns:xlink="http://www.w3.org/1999/xlink" x="0px" y="0px"
	 viewBox="0 0 245.1 731" style="enable-background:new 0 0 245.1 731;" xml:space="preserve">
<style type="text/css">
	.Arched_x0020_Green{fill:url(#SVGID_1_);stroke:#FFFFFF;stroke-width:0.25;stroke-miterlimit:1;}
</style>
<linearGradient id="SVGID_1_" gradientUnits="userSpaceOnUse" x1="-104.0635" y1="555.7067" x2="-103.3564" y2="554.9996">
	<stop  offset="0" style="stop-color:#1DA238"/>
	<stop  offset="0.9831" style="stop-color:#24391D"/>
</linearGradient>
<path d="M54.1,693.9c-1.1,5.1-1.9,9.3-3,13.3c-2,7-4.5,13.7-10.1,14.9c-5.8,1.2-9.5-1.4-11.7-9.7c-1.8-6.9-3.3-14.4-3.5-21.7
	c-0.5-17.1-0.2-34.2-0.2-51.3c0-62.3,0-124.6,0-186.9c0-3.5,0.3-6.5-3.3-6.6c-11.1-0.4-14.9-6.6-14.9-23.8c0-22.7,0-45.4,0-68.1
	c0-38.6-0.2-77.2,0.2-115.8c0.1-10.3,1.8-20.8,3.5-30.9c1.2-7,4.1-12.6,9.4-14.3c1.6-0.5,2.9-3,4.4-3c8.6-0.1,7.5-3,11.5,10.1
	c2.8,9.3,5.2,18.9,8,28.3c1,3.4,2.3,6.7,3.8,9.7c2.6,5,5,4.8,7.7-0.1c5.7-10.3,9.5-22.1,12.6-34.6c3.1-12.4,0.8-10.3,9.8-10.4
	c14.8-0.1,29.6,0.2,44.5-0.2c5-0.1,9.9-2.4,14.9-2.9c5.2-0.5,9.1,3.7,10.4,11.3c3.5,21.1,3.9,42.5,0.3,63.7
	c-1.5,9-6.3,11.7-13.4,8.6c-1.9-0.8-3.8-1.5-5.7-1.5c-14-0.1-28.1,0.1-42.1-0.2c-3.6-0.1-4.8,1.8-4.8,7.3
	c0.1,114.2,0.1,228.5,0.1,342.7c0,20.9,0.1,41.7-0.2,62.6c-0.2,10.5-1.5,20.9-5.6,30c-4.5,10-11.5,10.4-15.9,0.2
	C58.2,708.7,56.6,701.7,54.1,693.9z"/>
<path d="M95.6,54.8c10.7,0,20.7-0.2,30.8,0.1c3.8,0.1,5.1-1.6,5-7.4c-0.2-11.7,1.2-22.6,5.8-32.7c5.3-11.6,20.7-12.1,25.9,0.7
	c3.7,9.1,4.9,18.6,5.1,28.8c0.2,11.5-0.5,10.4,6.8,10.4c15.2,0,30.4-0.2,45.7,0c6,0.1,10.6,5.2,11.9,14.2c2,13.3,4.5,26.8,4.6,40.3
	c0.4,111.2,0.2,222.5,0.3,333.7c0,22.1,0.6,44.2,0.6,66.2c0,13.1-0.6,26.3-1.6,39.3c-0.5,6.7-2.1,13.5-4,19.7
	c-2.8,9.2-8.7,12.6-14.9,12.6c-9.7,0-19.4-1.8-29.1-1.9c-29-0.3-58-0.1-87-0.1c-1.7,0-3.4,0-5.5,0c-0.1-2.1-0.3-3.8-0.3-5.5
	c0-14.5,0.1-29.1,0-43.6c0-4.8,0.7-6.6,4.2-6.5c29.5,0.2,59,0,88.5,0.2c3.4,0,6.7,1.9,10.1,1.8c4-0.1,8.2-0.7,12-2.4
	c3.4-1.5,5.7-5.7,6.9-11.3c3.4-16.2,3.1-32.9,3.1-49.6c0-81,0-162,0-243c0-20.1,0.2-40.2-0.2-60.2c-0.2-9.2-1.2-18.6-2.7-27.6
	c-2-11.6-7.6-17.8-15.5-17.9c-13.9-0.2-27.8-0.1-41.7,0.3c-9.5,0.3-18.9,1.8-28.3,1.7c-11.2-0.1-22.3-1.3-33.5-2.2
	c-1-0.1-2.7-2.2-2.7-3.4C95.5,91.4,95.6,73.6,95.6,54.8z"/>
<path d="M76.9,83.5c0.5,20-2,39.1-7.6,57.2c-2,6.5-5.3,12.2-8.4,17.7c-3.7,6.3-14.6,4.1-18.5-3.5c-9.5-18.6-12.4-39.9-13.5-62.2
	c-1-20.6,0.4-41.1,5.9-60.1c2.5-8.7,6.9-16.7,11.5-23.2C52,1.5,59.8,7,63.7,14.3C74.7,34.6,76.7,58.6,76.9,83.5z"/>
<path d="M237.9,725.4c-7.5,0-14.7,0.2-21.9-0.2c-1.7-0.1-4-1.7-4.7-3.2c-10-20.2-19.9-40.4-29.7-60.7c-6.7-13.8-13.3-27.7-20.6-42.9
	c-7.3,14.9-14.2,28.8-20.8,42.9c-8.3,17.6-16.3,35.4-24.8,53c-1,2-4.5,4-7,4.2c-6.8,0.6-13.7,0.2-21.5,0.2c3-7.4,5.4-13.7,8.1-19.9
	c16.8-37.7,33.8-75.4,50.6-113.1c1.6-3.6,3.5-4.7,7.5-4.9c19.1-0.5,19.4-0.7,27.1,16c19.3,41.9,38.4,83.9,57.6,125.9
	C238,723.2,237.9,723.7,237.9,725.4z"/>
</svg>
