<?xml version="1.0" encoding="utf-8"?>
<!-- Generator: Adobe Illustrator 22.0.1, SVG Export Plug-In . SVG Version: 6.00 Build 0)  -->
<svg version="1.1" id="Layer_2" xmlns="http://www.w3.org/2000/svg" xmlns:xlink="http://www.w3.org/1999/xlink" x="0px" y="0px"
	 viewBox="0 0 328.1 731" style="enable-background:new 0 0 328.1 731;" xml:space="preserve">
<style type="text/css">
	.Arched_x0020_Green{fill:url(#SVGID_1_);stroke:#FFFFFF;stroke-width:0.25;stroke-miterlimit:1;}
</style>
<linearGradient id="SVGID_1_" gradientUnits="userSpaceOnUse" x1="-104.0635" y1="555.7067" x2="-103.3564" y2="554.9996">
	<stop  offset="0" style="stop-color:#1DA238"/>
	<stop  offset="0.9831" style="stop-color:#24391D"/>
</linearGradient>
<path d="M217.4,391.1c0.2,1,0.3,2.1,0.6,2.9c31.5,108.3,63.1,216.6,94.7,324.9c1.6,5.3,3.4,7.7,5.6,6c2.1-1.6,3.6-6.9,3.8-14.3
	c0.1-1.9,0.1-3.8,0.1-5.7c0-226.1,0-452.2,0-678.3c0-2.6,0-5.3-0.2-7.9c-0.9-12.3-5.5-17.4-8.3-9.1c-1.9,5.5-3.6,11.8-5.3,17.8
	c-28.6,98.1-57.2,196.1-85.7,294.2c-1.8,6.1-3.5,12.1-5.5,18.7c0-1.7,0-2.7,0-3.7c0-58,0.1-116-0.1-174c-0.1-38.2-4-71.8-11.4-100.5
	c-5-19.3-10.8-34.6-17.8-44.5c-5.9-8.4-12.2-11.8-18.6-11.8c-38.1,0-76.2,0-114.3,0c-8.5,0-16.6,5.7-23.9,20.8
	C19.3,50.9,11.3,85,8.1,131.3C7.3,143.5,7,156,7,168.5C7,300,6.9,431.4,7,562.9c0.1,67.6,9.7,115.7,26.8,147.1
	c5,9.2,10.5,13.5,16.2,14.9c1.7,0.4,3.5,0.6,5.2,0.6c38.2,0,76.3,0,114.5,0c7.7,0,15.1-4.9,21.8-17.8c13-24.8,21.6-61.2,24.7-111.7
	c0.7-11.3,0.9-22.8,0.9-34.3c0-55.5,0-111.1,0-166.6c0-1.1,0-2.2,0-3.2C217.1,391.6,217.2,391.4,217.4,391.1z"/>
</svg>
