<?xml version="1.0" encoding="utf-8"?>
<!-- Generator: Adobe Illustrator 22.0.1, SVG Export Plug-In . SVG Version: 6.00 Build 0)  -->
<svg version="1.1" id="Layer_6" xmlns="http://www.w3.org/2000/svg" xmlns:xlink="http://www.w3.org/1999/xlink" x="0px" y="0px"
	 viewBox="0 0 135 731" style="enable-background:new 0 0 135 731;" xml:space="preserve">
<style type="text/css">
	.Arched_x0020_Green{fill:url(#SVGID_1_);stroke:#FFFFFF;stroke-width:0.25;stroke-miterlimit:1;}
</style>
<linearGradient id="SVGID_1_" gradientUnits="userSpaceOnUse" x1="-106.127" y1="555.7067" x2="-105.4199" y2="554.9996">
	<stop  offset="0" style="stop-color:#1DA238"/>
	<stop  offset="0.9831" style="stop-color:#24391D"/>
</linearGradient>
<g>
	<path d="M127.9,385.7c-0.1,5.3-0.2,10.5-0.3,15.8c-0.5,33.6-1.6,66.8-3.5,99.5c-1.3,22.3-2.9,44.2-4.9,65.6
		c-1.8,18.6-3.8,36.8-6.3,53.9c-1.7,11.7-3.6,23-5.5,34c-2,11.1-4.3,21.1-6.8,30.3c-1.5,5.7-3.2,11.1-4.9,15.8
		c-2,5.3-4,10.5-6.1,14.2c-2,3.5-4.1,6.6-6.3,8.3c-1.9,1.5-3.9,2.6-5.8,2.6c-0.2,0-0.5,0-0.7,0c0-11.6,0-23,0-34.7
		c0.3,0,0.6,0.1,0.9,0c2.4-0.6,4.8-2.2,7.2-5c2.3-2.6,4.4-6.6,6.4-11.1c1.6-3.5,3.1-8,4.5-12.6c1.7-5.4,3.2-11.2,4.8-17.3
		c1.1-4.4,2.1-9.4,3.1-14.4c2.3-11.3,4.2-23.4,6-36.1c2-14.3,3.7-29.1,5.2-44.5c2.7-27.4,4.6-55.7,5.9-84.8
		c1.7-37,2.4-74.3,2.2-111.9c-0.2-32.2-1-64.1-2.6-95.6c-1-21.1-2.4-41.8-4.2-62c-1.4-15.5-2.8-30.9-4.8-45.3
		c-1.6-12-3.3-24.1-5.1-35.4c-1.6-9.6-3.4-18.8-5.4-27.1c-2-8.4-4.2-16-6.4-23c-2.2-7-4.7-12.3-7.3-16.3c-1.3-2-2.7-3.6-4.1-4.7
		c-2-1.6-4-2.6-6-3.9c0,0.3,0-0.3,0-0.8c0-10.6,0.1-21.2,0.1-31.8c0-0.6,0-1.2,0.1-1.7c0.9,0,1.8,0,2.7,0c0.2,0.4,0.5,1,0.7,1.2
		c0.7,0.4,1.5,0.1,2.2,0.9c1.7,1.8,3.3,4.2,5,6.2c2.5,3,4.7,8.5,6.9,13.9c1.6,4,3.2,8.8,4.6,14.1c2,7.3,3.9,15,5.7,23.2
		c2.4,10.9,4.5,23,6.4,35.5c2.2,14.3,4.1,29.2,5.8,44.7c2.8,25.8,5,52.5,6.6,80c2.3,38,3.5,76.7,3.9,115.8c0,1.5,0.1,3.1,0.1,4.6
		C127.9,359,127.9,372.3,127.9,385.7z"/>
	<path d="M67.8,17c0,234.2,0,467.6,0,701.7c-0.8-5.4-1.5-10.1-2.2-14.9c-1.4-9.4-2.7-18.8-4.1-28.3c-1.6-11-3.2-22-4.8-33
		c-1.3-8.9-2.6-17.8-3.9-26.8c-1.4-9.6-2.8-19.1-4.2-28.7c-2.1-14.1-4.1-28.2-6.2-42.3c-2.1-14.2-4.1-28.5-6.1-42.7
		c-0.7-4.9-1.5-9.6-2.1-14.5c-0.2-1.7-0.5-1.9-0.9-1.9c-5.3,0-10.6,0-15.9,0c-3.1,0-6.1-0.2-9.2,0.1c-1.7,0.2-2.1-1.9-2.8-8.8
		c-0.3-3.1-0.4-6.8-0.4-10.3c0-66.6,0-133.1,0-199.7c0-6.2,0.3-11.9,1.4-16.6c0.4-1.9,0.9-2.3,1.5-2.3c3.3,0,6.6,0,9.9,0
		c5.2,0,10.5,0,15.7,0c0.5,0,0.7-0.7,1-2.4c1.6-11.5,3.3-22.9,5-34.4c1.6-10.9,3.2-21.8,4.8-32.6c1.3-9.1,2.7-18.3,4-27.4
		c1.6-10.9,3.2-21.8,4.8-32.6c1.3-9,2.6-18,3.9-27c1.4-9.5,2.8-19.1,4.2-28.6c1.6-10.8,3.2-21.5,4.8-32.3C66.5,26.4,67.1,22,67.8,17
		z"/>
	<path d="M77,607.8c0-5,0-9.9,0-14.5c1.4-0.7,2.8-1.1,4.1-2.2c1.2-1.1,2.5-2.4,3.6-4.6c1.7-3.3,3.3-7.2,4.9-11.5
		c1.1-3,2.1-6.8,3-10.8c1.4-5.9,2.7-12.2,3.9-18.6c1.9-9.7,3.3-20.5,4.7-31.5c1.7-14.5,3.1-29.6,4.2-45.1
		c1.1-15.7,1.9-31.7,2.5-47.8c0.8-24.8,1.1-49.8,0.7-74.8c-0.3-23.1-1.2-45.9-2.6-68.3c-1.1-17.1-2.5-33.7-4.3-49.7
		c-1.5-13.3-3.3-26.1-5.5-37.5c-1.3-6.5-2.6-12.9-4.1-18.7c-1.9-7.6-4.1-14.1-6.6-18.5c-1.9-3.4-3.9-6.8-6-7.1
		c-0.7-0.1-1.4-0.9-2.2-1.4c0-4.4,0-9.1,0-14.5c1.2,0.5,2.3,1,3.5,1.6c0.5,0.3,0.9,1.1,1.4,1.4c2.9,2.3,5.3,8.1,7.7,14.7
		c2.9,8,5.3,18.2,7.4,29.4c2,10.6,3.7,22.1,5.2,34.2c3.9,31.7,6.2,65.4,7.4,100.6c0.8,22.2,1.1,44.4,0.9,66.8
		c-0.2,34.8-1.4,68.9-4,102.2c-1.5,19.4-3.3,38-5.8,55.5c-1.7,12.4-3.7,24-6.1,34.5c-1.6,6.9-3.3,13.3-5.1,18.6
		c-1.6,4.6-3.3,8.2-5.2,11.3c-1.9,3.2-3.8,4.2-5.7,6C78.3,608.3,77.7,607.8,77,607.8z"/>
	<path d="M74.2,491.6c0-3.8,0-6.8,0-10.1c0.3-0.1,0.6-0.2,0.9-0.3c1.5-0.3,2.9-2.5,4.2-5.6c3.7-9.3,6-23.7,7.7-39.9
		c2.7-26.3,3.4-53.9,2.8-82.2c-0.4-20.4-1.6-40-3.9-58.2c-1.1-8.6-2.5-16.6-4.2-23.1c-1.5-5.3-3.1-10.2-5.1-11.4
		c-0.7-0.4-1.4-1.1-2.2-1.7c0-2.8,0-5.9,0-9.3c1.5-0.3,2.8,1,4.1,3.4c3.8,7.1,6.2,19.5,8.2,34.2c2.5,19,3.8,39.5,4.4,60.9
		c0.6,23.1,0.3,46-1,68.6c-1,16.6-2.5,32.4-4.9,46.5c-1.4,8.4-3.1,15.7-5.2,21.1c-0.9,2.4-2.1,3.9-3.1,5.3
		C76,490.7,75.1,491,74.2,491.6z"/>
</g>
</svg>
