<?xml version="1.0" encoding="utf-8"?>
<!-- Generator: Adobe Illustrator 22.0.1, SVG Export Plug-In . SVG Version: 6.00 Build 0)  -->
<svg version="1.1" xmlns="http://www.w3.org/2000/svg" xmlns:xlink="http://www.w3.org/1999/xlink" x="0px" y="0px"
	 viewBox="0 0 227.1 731" style="enable-background:new 0 0 227.1 731;" xml:space="preserve">
<style type="text/css">
	.Arched_x0020_Green{fill:url(#SVGID_1_);stroke:#FFFFFF;stroke-width:0.25;stroke-miterlimit:1;}
</style>
<linearGradient id="SVGID_1_" gradientUnits="userSpaceOnUse" x1="-104.0635" y1="555.7067" x2="-103.3564" y2="554.9996">
	<stop  offset="0" style="stop-color:#1DA238"/>
	<stop  offset="0.9831" style="stop-color:#24391D"/>
</linearGradient>
<g id="Layer_6">
</g>
<g id="Layer_2">
	<path d="M198.3,574.8c3.1-5,6.2-9.9,9.2-14.8c1.4-2.3,3.4-3.4,5.8-2.6c1,0.3,2.1,1.3,2.6,2.2c1.3,2.7,2.6,5.5,3.4,8.4
		c1.1,4.1,2.2,8.2,2.6,12.4c0.5,5.6,0.4,11.2,0.3,16.8c0,4.2-0.8,8.3-2.9,12.1c-1.3,2.4-2.7,4.7-4.1,7c-2.5,4.1-4.9,8.2-7.4,12.2
		c-2.2,3.5-4.6,7-6.8,10.5c-2.6,4.2-5,8.4-7.6,12.6c-0.8,1.3-1.8,2.7-3.7,2.8c-2.2,0.1-3.5-1.5-4.4-2.9c-3.4-5.3-4.4-11.4-5.8-17.4
		c-1.1-4.6-2.2-9.3-3.2-13.9c-1-4.7-1.9-9.5-3-14.2c-1.2-5.3-2.5-10.5-3.6-15.7c-0.8-3.3-1.3-6.7-2.1-10c-0.8-3.5-1.8-7-2.6-10.5
		c-0.7-2.8-1.2-5.7-1.9-8.6c-0.9-3.8-1.9-7.7-2.8-11.5c-1.1-4.7-1.9-9.5-3-14.2c-1.2-5.3-2.5-10.5-3.7-15.7c-0.8-3.3-1.4-6.7-2.1-10
		c-0.9-4.1-1.9-8.1-2.8-12.1c-1.4-6.2-2.7-12.4-4.2-18.6c-0.4-1.6-0.9-3.2-1.6-4.6c-0.3-0.6-1.3-0.8-2-1.1c-2.6-1.2-4.8-3.2-7.7-4.1
		c-1.8-0.5-3.3-2.2-5-3.1c-1.7-0.9-3.5-1.4-5.2-2.3c-1-0.5-1.8-1.5-2.8-2.1c-0.7-0.4-1.5-0.7-2.2-1.1c-2.5-1.2-5.3-2-7.5-3.6
		c-2.1-1.5-4.5-2-6.6-3.3c-2.3-1.4-4.6-3-6.9-4.4c-0.6-0.4-1.4-0.6-2.1-0.9c-1.8-0.7-3.8-1.2-5.4-2.3c-2-1.4-4.2-2.4-6.3-3.5
		c-2-1-3.8-2.5-6-3.3c-1.8-0.6-3.2-2.6-5-3c-1.6-0.4-2.7-1.4-4-2.2c-1.6-1-3.2-2.1-4.4-3.5c-3.8-4.4-6.4-9.6-8.1-15.1
		c-1.6-5.1-2.8-10.4-3.7-15.7c-0.9-5.8-1.4-11.6-1.7-17.5c-0.3-5.2-0.2-10.4,0-15.6c0.2-5.7,0.8-11.3,1.2-17
		c0.4-5.4,0.8-10.9,1.2-16.3c0.4-5.9,0.8-11.7,1.2-17.6c0.4-5.4,0.8-10.9,1.2-16.3c0.4-5.7,0.8-11.3,1.2-17
		c0.4-5.8,0.8-11.6,1.2-17.4c0.5-7.4,1.1-14.8,1.7-22.1c0-0.4,0.3-0.8,0.3-1.2c0-0.3-0.2-0.6-0.2-0.9c-0.3,0.1-0.6,0.1-0.9,0.3
		c-1.2,1-2.4,2-3.5,3.1c-2,1.8-3.9,3.7-5.9,5.6c-1.7,1.6-3.3,3.4-5.1,4.9c-1.9,1.7-1.9,3.3-3.8,5c-0.2,0.2-0.2,0.6-0.3,1
		c-1.1,4.2-4.2,8.4-5.3,12.6c-1,4-1.9,8.1-2.9,12.1c-1,3.9-0.1,7.7-1.1,11.6c-1.7,6.8,0.6,13.6-1.1,20.4c-1.3,5.3,1.2,10.5-0.1,15.8
		c-1.7,6.5,0.7,12.9-0.9,19.4c-1,3.9-2,7.8-3.2,11.6c-1.2,3.8-3.6,6.9-6.1,9.8c-2.4,2.8-8.5,0.8-10.1-2.7
		c-2.7-6.1-3.7-12.5-3.6-19.1c0.1-6,0.3-12,0.9-17.9c0.4-3.7,1.7-7.3,2.6-10.9c1-4.3,2-8.6,3.1-12.9c1.5-6,0.1-12,1.6-18
		c1.8-7.1,1.5-14.3,3.3-21.4c1-3.9,2.2-7.7,3.1-11.6c1.5-6,2.8-12.1,4.3-18.1c0.7-2.9,1.6-5.8,2.4-8.7c0.8-2.9,1.4-6,2.5-8.8
		c2.4-5.8,0.9-11.4,4.4-16.7c1.9-2.9-0.8-5.2,1.8-7.4c2.7-2.3,4.9-5.1,7.5-7.5c2.3-2.2,4.7-4.3,7.1-6.5c2.9-2.6,5.7-5.3,8.6-7.9
		c1.6-1.4,3.3-2.6,4.8-4c3-2.7,5.8-5.5,8.8-8.2c1.8-1.6,3.8-2.9,5.6-4.4c1.6-1.3,3-2.8,4.6-4.1c1.1-0.9,2.2-1.8,3.3-2.6
		c2.6-1.9,5.6-2.1,8.7-2.2c3.4-0.2,6,2.6,7.2,5.3c2,4.3,3.7,8.8,5.1,13.4c0.9,2.8,1.2,5.8,1.4,8.7c0.4,6,0.9,11.9,0.8,17.9
		c-0.2,7.7-1,15.5-1.6,23.2c-0.4,5.8-0.8,11.6-1.2,17.4c-0.4,6-0.8,12-1.2,18c-0.4,5.7-0.8,11.3-1.2,17c-0.6,8.1-1.1,16.2-1.7,24.2
		c-0.4,5.7-0.8,11.3-1.2,17c-0.5,6.6-1.1,13.2-1.6,19.8c-0.3,4.5-0.6,9-0.8,13.5c0,0.7,0.1,1.4-0.2,2.1c-0.6,1.8,0.2,2.6,1.7,3.6
		c2.6,1.7,5.4,3.1,8.3,4.2c1.5,0.6,2.7,2,4.2,2.7c2.6,1.3,5.1,2.8,7.6,4.2c2.2,1.2,5.1,1.6,6.6,4.2c0.3,0.6,1.5,0.6,2.2,1
		c1.9,1,3.8,2,5.8,2.9c1.7,0.9,3.5,1.7,5.2,2.6c1,0.5,1.8,1.4,2.6,2c0.2,0.2,0.4,0.4,0.6,0.4c3.3-0.2,5.7,1.6,7.9,3.7
		c1.9,1.9,3.6,4.3,5,6.7c1.3,2.2,2.2,4.6,2.9,7c1.4,4.6,2.6,9.3,3.7,14c1,4.2,1.8,8.4,2.6,12.6c1.2,5.7,2.3,11.4,3.6,17
		c1.4,6.4,2.9,12.8,4.3,19.2c1.6,7.6,3.1,15.2,4.8,22.8c1.2,5.7,2.7,11.4,3.9,17.1c1.3,6.1,2.6,12.2,3.9,18.2
		c1.3,6.1,2.6,12.1,3.9,18.2c0.8,3.8,1.5,7.7,2.3,11.5c1,4.8,2.2,9.6,3.3,14.3C196.2,564.8,197.2,569.6,198.3,574.8z"/>
	<path d="M149.3,509.2c0.6,1.5,1.5,3,1.9,4.6c1.3,5.7,2.4,11.4,3.6,17c1.7,8.3,3.4,16.6,5.1,24.9c1.2,5.7,2.8,11.4,3.8,17.2
		c0.5,2.7,0.1,5.5-0.2,8.3c-0.6,5-1.5,9.9-2.4,14.8c-1.8,9.3-3.7,18.6-5.7,27.9c-1.3,5.8-2.7,11.5-4.3,17.2
		c-1.1,3.9-2.6,7.6-3.9,11.4c-1.6,4.6-3,9.3-4.8,13.9c-2.2,5.5-4.6,11-7.3,16.2c-2.3,4.5-5,8.8-7.7,13c-2.2,3.5-4.6,6.9-7.1,10.2
		c-1.4,1.8-3.3,3.2-4.9,4.8c-1.3,1.3-2.4,2.6-3.7,3.9c-1,1-2.2,1.9-3.4,2.8c-1.5,1.1-3,2.2-4.6,3.1c-0.9,0.5-2,0.6-3,1.4
		c-1,0.8-3,0.3-4,1.1c-2,1.6-4.5,0.4-6.2,1.4c-1.4,0.8-2.7,1.1-4.1,1c-0.8,0-1.8,0.5-2.1-1c-0.1-0.2-1.5-0.1-2.3-0.3
		c-1.4-0.3-3,0.8-4.1-1.1c-0.4-0.7-2-0.7-3.1-0.8c-2.8-0.4-4.8-2.6-7.3-3.6c-1.8-0.7-3.3-2.3-4.8-3.6c-1.5-1.3-2.8-2.8-4.2-4.3
		c-1.3-1.3-2.6-2.7-3.8-4.1c-1.9-2.2-3.8-4.4-5.4-6.8c-2.5-3.9-4.9-7.9-7.2-11.9c-2-3.4-4-6.8-5.6-10.3c-2.1-4.7-4-9.6-5.8-14.5
		c-2-5.1-4-10.2-5.7-15.4c-1.7-5.3-2.9-10.7-4.3-16.1c-1.3-5.1-2.7-10.1-3.7-15.3c-1.5-7.2-2.8-14.5-4-21.8c-1-5.9-2-11.8-2.8-17.7
		c-0.6-4.5-0.9-9.1-1.3-13.6c-0.5-5.4-1.1-10.8-1.6-16.3c-0.2-2.4-0.4-4.8-0.4-7.3c-0.2-5.4-0.3-10.9-0.4-16.3
		c-0.2-8.2-0.4-16.3-0.4-24.5c0-5.1,0.2-10.2,0.4-15.2c0.2-5.1,0.4-10.3,0.8-15.4c0.4-5.4,1.1-10.8,1.6-16.3
		c0.4-4.5,0.8-9.1,1.3-13.6c0.4-3.8,1.1-7.6,1.6-11.4c0.7-4.4,1.2-8.8,2.1-13.2c1.5-7.4,3.1-14.7,4.7-22c0.8-3.9,1.8-7.7,2.7-11.5
		c0.4-1.6,0.8-3.2,1.3-4.7c3.3-9.5,6.4-19.1,9.9-28.5c2.1-5.5,4.6-10.9,7.3-16.2c1.8-3.6,4.1-7,6.3-10.5c1.6-2.7,3.3-5.3,5.2-8.3
		c0.2,0.6,0.5,0.9,0.4,1.2c-0.5,7-1.1,13.9-1.6,20.9c-0.2,2.3-0.3,4.7-0.4,7.1c-0.3,5.8-0.5,11.5-0.8,17.3
		c-0.4,6.8-0.6,13.6-1.3,20.3c-0.3,3.1-1.7,6-2.7,9c-2.1,6.5-4.4,12.9-6.3,19.4c-1.9,6.6-3.6,13.3-5.1,20c-1.3,5.9-2.2,12-3.1,18
		c-0.9,5.6-1.7,11.3-2.4,16.9c-0.4,3.4-0.7,6.9-0.9,10.3c-0.5,10.8-0.9,21.5-1.2,32.3c-0.2,7-0.1,14,0,21c0.1,4.2,0.4,8.4,0.8,12.6
		c0.5,5.1,1,10.3,1.6,15.4c0.9,7.6,1.7,15.3,2.9,22.9c0.9,5.4,2.3,10.7,3.5,16c0.8,3.5,1.5,6.9,2.2,10.4c0.4,1.7,0.8,3.3,1.3,4.9
		c2.3,6.5,4.5,13,6.9,19.4c1.4,3.7,2.8,7.5,4.5,11c1.6,3.4,3.6,6.6,5.6,9.8c2.5,3.9,5.2,7.7,8,11.4c1.2,1.6,2.8,2.9,4.4,4.2
		c2.4,1.9,4.8,3.9,7.4,5.4c1.5,0.8,3.4,1.3,4.8,2.1c3.8,2.1,7.7,0.8,11.5,0.9c1.7,0.1,3.7-0.8,5.2-2.1c0.6-0.5,1.7-0.3,2.3-0.8
		c3.7-2.3,7.4-4.5,10.1-8.2c2.1-2.8,4.9-5,6.9-7.9c2.7-4.1,5-8.5,7.3-12.9c1.8-3.4,3.4-6.8,4.8-10.3c2.4-6,4.9-12,6.6-18.3
		c2.7-9.7,4.8-19.6,7-29.4c1.1-5.1,2.1-10.3,2.8-15.5c0.7-4.8,1.3-9.7,1.7-14.6c0.6-7.6,1.1-15.2,1.7-22.8c0.2-2.4,0.4-4.7,0.4-7.1
		c0.1-4.4,0-8.7,0-13.1C148.6,509.3,149,509.3,149.3,509.2z"/>
	<path d="M127.3,69.6c-0.4,7.4-0.5,13.7-1.2,19.9c-0.6,5.2-1.7,10.4-2.8,15.5c-0.8,4-1.7,8-3.1,11.8c-2,5.2-4.3,10.4-8,14.7
		c-1.1,1.3-2.9,2-4.3,3c-1.2,0.8-2.4,1.7-3.7,2.3c-0.8,0.3-2.5,0.4-2.7,0c-0.6-1.4-1.8-0.8-2.7-1.1c-1.5-0.6-3-1.4-4.2-2.5
		c-3-2.9-5.2-6.4-7-10.2c-1.8-3.8-3.2-7.8-4.4-11.9c-1.1-3.9-1.9-8-2.6-12c-0.7-4.4-1.3-8.8-1.6-13.3c-0.4-5.7-0.9-11.4-0.8-17
		c0.2-6.9,0.7-13.8,1.6-20.6c0.9-6.4,2-12.9,3.8-19.1c1.6-5.7,3.9-11.3,7.5-16.2c1.5-2.1,3.2-4,5.1-5.6c3-2.5,6.7-2.1,10.1-1.6
		c1.8,0.3,3.6,2.2,5.1,3.6c5.8,5.6,8.2,13.2,10.4,20.6c1.9,6.5,3,13.3,4,20.1C126.6,56.9,126.8,63.8,127.3,69.6z"/>
</g>
</svg>
