<?xml version="1.0" encoding="utf-8"?>
<!-- Generator: Adobe Illustrator 22.0.1, SVG Export Plug-In . SVG Version: 6.00 Build 0)  -->
<svg version="1.1" xmlns="http://www.w3.org/2000/svg" xmlns:xlink="http://www.w3.org/1999/xlink" x="0px" y="0px"
	 viewBox="0 0 202.1 731" style="enable-background:new 0 0 202.1 731;" xml:space="preserve">
<style type="text/css">
	.Arched_x0020_Green{fill:url(#SVGID_1_);stroke:#FFFFFF;stroke-width:0.25;stroke-miterlimit:1;}
</style>
<linearGradient id="SVGID_1_" gradientUnits="userSpaceOnUse" x1="-104.0635" y1="555.7067" x2="-103.3564" y2="554.9996">
	<stop  offset="0" style="stop-color:#1DA238"/>
	<stop  offset="0.9831" style="stop-color:#24391D"/>
</linearGradient>
<g id="Layer_6">
</g>
<g id="Layer_2">
	<path d="M197.2,394.7c-4.7,44.8-9.5,108.5-15,173.4c-4.2,50.5-23.3,96.9-40,126.9c-6.5,11.7-14.2,14.2-22.9,24.1
		c-3.9,4.5-25.5,9-32.9,2.1c-22.2-21-38.9-40-49.9-76.5C16,575.9,6.8,502.2,6.3,425.7C6,385.6,6,345.4,6.3,305.3
		C6.7,256,11,207.9,22.6,161.9C29.5,134.7,33.4,105,42.4,80c8.4-23.5,20.1-45.5,33.2-62.4c19-24.5,51.7-12.6,65,21.8
		c14,36.4,28.1,73.3,38.7,112.5c7.4,27.3,10.2,58.7,12.6,88.8C195.4,285.3,197.2,327.2,197.2,394.7z M175.9,248.4
		c-8.4,16.9-14.9,33-23.2,46.2c-12.7,20.3-20.3,40.8-33.2,67.6c-2.2,4.5-4.4,20.8-2.2,27.9c5.9,18.3,14.9,33.7,21.5,51.5
		c7.9,21.3,14.3,44,21.9,65.6c2.5,7.1,6.8,12.6,11.2,20.4C184.5,460.5,186.5,314.6,175.9,248.4z M107,343.5
		c12.6-24.1,27-59.4,36.8-78.8c5.4-10.7,7.3-16,13.2-25.9c12.9-21.6,14-49.1,4.2-78.2c-11-32.7-14.5-80-37.7-97.7
		c-3.7-2.8-8.7,1.5-12.1-2.4c-1.5,8.3-4.2,16.6-4.3,24.9C106.9,163.4,107,257.8,107,343.5z M83.9,378.3
		c-10.5-52.9-37.6-99.1-57.6-159.1c-9.2,94.5-13.2,182.2,0.1,277.6C45.8,456.8,63.2,421,83.9,378.3z M88.5,679.1
		c1-2.5,2.1-5,3.1-7.5c0-81.2,0-174.6,0-259.1c-14.3,27.1-27.2,63.3-39.7,87.8c-5.9,11.6-11.8,23.5-16,36.7
		c-2.5,7.7-4.4,20.9-2,27.1c11.7,31,17.4,68.6,35.5,92.7C75.5,664.9,82.1,671.7,88.5,679.1z M92,58.4c-6.1,1.7-11.3,2.2-14.1,4.5
		C59.7,78.4,53,117.3,41.5,145.5c-6.6,16.2-7.6,33.4-0.6,51.4c14.9,38,29.1,76.8,43.8,114.9c0.8,2,4.4,22.6,7.3,23.2
		C92,250.3,92,145.5,92,58.4z M111.1,424.6c-1,0.6-2,1.3-3,1.9c0,78.7,0,167.7,0,251.9c7.9-5,14.8-9.9,20.8-13.8
		c14.7-9.5,21.1-30.4,25.8-53c4-19.1,11.6-33.4,2.4-52.9c-5.6-11.7-9.8-25.2-14.5-38C132.1,492.1,121.6,453.2,111.1,424.6z"/>
</g>
</svg>
