<?xml version="1.0" encoding="utf-8"?>
<!-- Generator: Adobe Illustrator 22.0.1, SVG Export Plug-In . SVG Version: 6.00 Build 0)  -->
<svg version="1.1" xmlns="http://www.w3.org/2000/svg" xmlns:xlink="http://www.w3.org/1999/xlink" x="0px" y="0px"
	 viewBox="0 0 328.1 731" style="enable-background:new 0 0 328.1 731;" xml:space="preserve">
<style type="text/css">
	.Arched_x0020_Green{fill:url(#SVGID_1_);stroke:#FFFFFF;stroke-width:0.25;stroke-miterlimit:1;}
</style>
<linearGradient id="SVGID_1_" gradientUnits="userSpaceOnUse" x1="-104.0635" y1="555.7067" x2="-103.3564" y2="554.9996">
	<stop  offset="0" style="stop-color:#1DA238"/>
	<stop  offset="0.9831" style="stop-color:#24391D"/>
</linearGradient>
<g id="Layer_6">
</g>
<g id="Layer_2">
	<path d="M322.8,366.9c-0.6,198.4-69.8,354.5-154.9,358.6C75.3,729.9,4.7,563.4,5,364.8C5.3,163.2,76.7,4.6,164.6,5.5
		C254.1,6.4,323.1,170.7,322.8,366.9z M89.8,539.9C80,488.7,75.2,434,74.2,377.9c-19.9,0-39,0-58.6,0
		c1.8,86.1,15.7,159.4,41.2,220.5C67.8,579,78.5,559.9,89.8,539.9z M89.1,190c-10.5-18.6-21.3-37.8-32.3-57.3
		C31.2,194,17.4,267.2,15.6,353.1c19.7,0,38.9,0,57.7,0c1.9-28.5,3-56.3,5.6-83.5C81.6,242.6,85.7,216.3,89.1,190z M253.8,377.8
		c-1.1,57.6-6.2,112.1-15.7,162.1c11.4,20.2,22,39.2,33,58.6c25.5-61.5,39.6-134.5,41.1-220.6C292.5,377.8,273.4,377.8,253.8,377.8z
		 M312.2,353.5c-1.7-86.5-15.7-159.7-41.2-220.8c-11.1,19.7-22,38.9-33,58.6c9.8,50.9,14.6,105.6,15.8,162.2
		C273.4,353.5,292.3,353.5,312.2,353.5z M85.1,353.3c24.6,0,48.8,0,73.2,0c0-39.6,0-78.6,0-118.5c-20.8-1.6-40.2-13.7-58.5-33.6
		C91.7,235.7,83.8,317.7,85.1,353.3z M158.4,496.3c0-40.4,0-79.1,0-118.3c-24.6,0-49,0-73.7,0c1.1,53,5.4,103.4,14.9,152.3
		C118.4,509.6,137.7,498,158.4,496.3z M243,353.5c-0.6-53.6-5.4-103.8-14.6-152.3c-1.3,1.2-2.1,1.7-2.8,2.5
		c-16.6,17.4-33.9,28.5-52.3,30.2c-3.1,0.3-3.9,3.3-3.9,9.8c0.1,34.4,0,68.8,0.1,103.2c0,2.1,0.3,4.2,0.5,6.5
		C194.3,353.5,218.2,353.5,243,353.5z M228.9,527.8c8.6-47.5,13.8-97.4,14-149.8c-24.9,0-49,0-73.4,0c0,37.9-0.1,74.9,0.2,111.8
		c0,2.4,2.3,6.3,3.8,6.9c6.7,2.6,13.6,2.8,20.2,6.7C205.3,510.3,216.7,519.3,228.9,527.8z M104,552.2
		c12.9,57.4,30.4,104.4,54.4,140.6c0-58.6,0-115.4,0-172.8C139.1,522.2,121.2,532.3,104,552.2z M104,178.9
		c17.2,20,35.1,29.9,54.2,32.2c0-57.6,0-114.4,0-172.7C134.3,74.9,116.8,121.6,104,178.9z M169.7,211.1
		c19.4-2.5,37.3-12.5,54.2-32.3C211,121.8,193.7,74.7,169.7,38.7C169.7,97.1,169.7,153.5,169.7,211.1z M169.7,520
		c0,57.6,0,114.1,0,172.4c24-36.4,41.4-83.3,54.1-140.4C206.6,532.3,188.9,522.3,169.7,520z M64.4,615.2
		c22.8,45.3,47.9,72.6,77,81.2c-19.6-37-35.1-81.2-47.2-134.6C84,580.2,74.4,597.3,64.4,615.2z M263.4,116
		c-22.9-46-48.5-73.2-79.3-83.6c21.5,37.9,37.1,82.8,49.5,136.8C243.8,150.9,253.4,133.8,263.4,116z M263.4,615.1
		c-10.1-17.9-19.7-35.1-29-51.5c-7.9,26.1-14.4,50.7-22.4,72.8c-8,22.1-17.3,41.5-25.9,61.8C214.9,688.2,240.5,660.9,263.4,615.1z
		 M141.4,34.6c-29.1,8.8-54.3,35.9-77,81.5c10.2,18.1,19.8,35.1,29.9,53.1C106.5,115.2,122,71.6,141.4,34.6z"/>
</g>
</svg>
